<svg xmlns="http://www.w3.org/2000/svg" viewBox="0 0 39.64 32.16"><title>Asset 3</title><g id="Layer_2" data-name="Layer 2"><g id="Layer_1-2" data-name="Layer 1"><path d="M38.35,29.6H1.26a1.26,1.26,0,0,0,0,2.53H38.35a1.12,1.12,0,0,0,1.26-1.26A1.36,1.36,0,0,0,38.35,29.6Z"/><path d="M38.35,14.8H1.26A1.36,1.36,0,0,0,0,16.06a1.36,1.36,0,0,0,1.26,1.26H38.35a1.12,1.12,0,0,0,1.26-1.26A1.36,1.36,0,0,0,38.35,14.8Z"/><path d="M1.26,2.53H38.35a1.06,1.06,0,0,0,.95-.32,1.06,1.06,0,0,0,.32-.95A1.36,1.36,0,0,0,38.35,0H1.26A1.36,1.36,0,0,0,0,1.26,1.36,1.36,0,0,0,1.26,2.53Z"/></g></g></svg>