<?xml version="1.0" encoding="UTF-8" standalone="no"?>
<svg width="27px" height="35px" viewBox="0 0 27 35" version="1.1" xmlns="http://www.w3.org/2000/svg" xmlns:xlink="http://www.w3.org/1999/xlink">
    <!-- Generator: Sketch 40.2 (33826) - http://www.bohemiancoding.com/sketch -->
    <title>patent_portfolios</title>
    <desc>Created with Sketch.</desc>
    <defs></defs>
    <g id="1-Homepage" stroke="none" stroke-width="1" fill="none" fill-rule="evenodd">
        <g id="Homepage" transform="translate(-38.000000, -2189.000000)" fill="#0DC5A0">
            <g id="Asset-types-section-Copy" transform="translate(-1.000000, 1907.000000)">
                <g id="Icons" transform="translate(31.000000, 282.000000)">
                    <path d="M27.0260296,10.9526986 L33.7204713,10.9526986 C33.7257577,10.9518175 33.7319253,10.9518175 33.7380928,10.9526986 C34.1028597,10.9526986 34.3989024,10.6566559 34.3989024,10.291889 C34.3989024,10.0654516 34.2843621,9.8645655 34.1099084,9.74561978 L24.701742,0.196480717 C24.513191,0.00616755614 24.2294834,-0.0502215285 23.980138,0.0484593697 C23.7316735,0.151545665 23.5695549,0.392080354 23.5695549,0.660809586 L23.5695549,7.49710502 C23.5695549,9.40287987 25.1202548,10.9526986 27.0260296,10.9526986 L27.0260296,10.9526986 Z M24.8911741,2.27318498 L32.1415769,9.63107945 L27.0260296,9.63107945 C25.8489075,9.63107945 24.8911741,8.67334609 24.8911741,7.49710502 L24.8911741,2.27318498 L24.8911741,2.27318498 Z M33.7204713,11.2681251 C33.3557044,11.2681251 33.0596617,11.5641678 33.0596617,11.9289346 L33.0596617,31.3311852 C33.0596617,32.6254909 32.0067717,33.6783808 30.7115849,33.6783808 L11.6679337,33.6783808 C10.3745091,33.6783808 9.32161917,32.6254909 9.32161917,31.3311852 L9.32338133,3.60361494 C9.36302991,2.3234065 10.3930118,1.32161917 11.6679337,1.32161917 L22.5994865,1.32161917 C22.9642533,1.32161917 23.260296,1.02557648 23.260296,0.660809586 C23.260296,0.296042695 22.9642533,0 22.5994865,0 L11.6679337,0 C9.67405095,0 8.0643188,1.5647971 8.00264324,3.58246904 L8,31.3311852 C8,33.3541436 9.64585641,35 11.6679337,35 L30.7115849,35 C32.7345433,35 34.3812808,33.3541436 34.3812808,31.3311852 L34.3812808,11.9289346 C34.3812808,11.5641678 34.0852381,11.2681251 33.7204713,11.2681251 L33.7204713,11.2681251 Z" id="patent_portfolios"></path>
                </g>
            </g>
        </g>
    </g>
</svg>