<?xml version="1.0" encoding="utf-8"?>
<!-- Generator: Adobe Illustrator 20.0.0, SVG Export Plug-In . SVG Version: 6.00 Build 0)  -->
<svg version="1.1" id="Layer_1" xmlns="http://www.w3.org/2000/svg" xmlns:xlink="http://www.w3.org/1999/xlink" x="0px" y="0px"
	 viewBox="0 0 49.8 41" style="enable-background:new 0 0 49.8 41;" xml:space="preserve">
<style type="text/css">
	.st0{fill:#5E5E5E;}
</style>
<g>
	<g>
		<g>
			<path class="st0" d="M4.5,19.8c-0.6,0-1-0.4-1-1v-7.5c0-1.7,1.4-3.1,3.1-3.1h38.3c0.6,0,1,0.4,1,1s-0.4,1-1,1H6.6
				c-0.6,0-1.1,0.5-1.1,1.1v7.5C5.5,19.4,5.1,19.8,4.5,19.8z"/>
		</g>
		<g>
			<path class="st0" d="M40.3,16.7c-0.3,0-0.5-0.1-0.7-0.3c-0.4-0.4-0.4-1,0-1.4l5.2-5.2c0.3-0.3,0.3-0.7,0-1l-5.2-5.2
				c-0.4-0.4-0.4-1,0-1.4c0.4-0.4,1-0.4,1.4,0l5.2,5.2c1,1.1,1,2.8,0,3.8L41,16.4C40.8,16.6,40.6,16.7,40.3,16.7z"/>
		</g>
	</g>
	<g>
		<g>
			<path class="st0" d="M43,32.7H4.7c-0.6,0-1-0.4-1-1s0.4-1,1-1H43c0.6,0,1.1-0.5,1.1-1.1v-7.5c0-0.6,0.4-1,1-1s1,0.4,1,1v7.5
				C46.1,31.3,44.7,32.7,43,32.7z"/>
		</g>
		<g>
			<path class="st0" d="M9.3,39.2c-0.3,0-0.5-0.1-0.7-0.3l-5.2-5.2c-1-1.1-1-2.8,0-3.8l5.2-5.2c0.4-0.4,1-0.4,1.4,0
				c0.4,0.4,0.4,1,0,1.4l-5.2,5.2c-0.3,0.3-0.3,0.7,0,1l5.2,5.2c0.4,0.4,0.4,1,0,1.4C9.8,39.1,9.5,39.2,9.3,39.2z"/>
		</g>
	</g>
</g>
</svg>
