<?xml version="1.0" encoding="UTF-8" standalone="no"?>
<svg width="20px" height="19px" viewBox="0 0 20 19" version="1.1" xmlns="http://www.w3.org/2000/svg" xmlns:xlink="http://www.w3.org/1999/xlink">
    <!-- Generator: Sketch 40.2 (33826) - http://www.bohemiancoding.com/sketch -->
    <title>Path</title>
    <desc>Created with Sketch.</desc>
    <defs></defs>
    <g id="8-Dashboard" stroke="none" stroke-width="1" fill="none" fill-rule="evenodd">
        <g id="Dashboard" transform="translate(-284.000000, -1137.000000)" stroke="#CCCCCC">
            <g id="Assets" transform="translate(0.000000, 1027.000000)">
                <g transform="translate(0.000000, 84.000000)" id="Asset-1-(White-Paper)">
                    <g transform="translate(0.000000, 0.739130)">
                        <path d="M299.818856,35.9348628 C299.357956,36.4199427 299.064342,37.3175626 299.149712,37.9758501 L299.755692,42.7694068 C299.774444,42.908565 299.747303,42.981105 299.729044,43.0023241 C299.692528,43.0427886 299.585445,43.0092327 299.488232,42.9633401 L295.074152,40.9105095 C294.781032,40.7743121 294.400074,40.6988114 294.000858,40.6988114 C293.602135,40.6988114 293.22167,40.7743121 292.929537,40.9105095 L288.513484,42.9633401 C288.358041,43.0368669 288.297344,43.0309453 288.273658,43.0023241 C288.254906,42.9815984 288.228259,42.9090585 288.247504,42.7679264 L288.852497,37.9728893 C288.930958,37.3081867 288.637838,36.4135276 288.184833,35.9358498 L284.855399,32.4065604 C284.743381,32.2866474 284.736966,32.2116401 284.740914,32.1983165 C284.745849,32.1844994 284.795196,32.1277504 284.954093,32.0966619 L289.743208,31.1847314 C290.392613,31.0662989 291.156503,30.5150941 291.482686,29.9303335 L294.004805,25.3933806 L296.521003,29.9313205 C296.846693,30.5150941 297.610583,31.0662989 298.257027,31.1837445 L303.040714,32.0966619 C303.203559,32.1277504 303.255373,32.1854863 303.258827,32.1983165 C303.262775,32.2101597 303.25488,32.2856605 303.140888,32.4060669 L299.818856,35.9348628 L299.818856,35.9348628 Z" id="Path"></path>
                    </g>
                </g>
            </g>
        </g>
    </g>
</svg>