<?xml version="1.0" encoding="UTF-8" standalone="no"?>
<svg width="22px" height="21px" viewBox="0 0 22 21" version="1.1" xmlns="http://www.w3.org/2000/svg" xmlns:xlink="http://www.w3.org/1999/xlink">
    <!-- Generator: Sketch 40.2 (33826) - http://www.bohemiancoding.com/sketch -->
    <title>Fill 85</title>
    <desc>Created with Sketch.</desc>
    <defs></defs>
    <g id="8-Dashboard" stroke="none" stroke-width="1" fill="none" fill-rule="evenodd">
        <g id="Dashboard" transform="translate(-603.000000, -1135.000000)" stroke="#0DC5A0" fill="#0DC5A0">
            <g id="Assets" transform="translate(0.000000, 1027.000000)">
                <g transform="translate(0.000000, 84.000000)" id="Asset-2-(Patent)">
                    <g transform="translate(319.347826, 0.739130)">
                        <path d="M304.330943,32.9138464 C304.61074,32.6197389 304.713875,32.2762846 304.616168,31.9718143 C304.517968,31.666357 304.232743,31.4467634 303.83254,31.3697822 L299.044905,30.4558779 C298.610652,30.3769229 298.038228,29.9629025 297.819621,29.5710882 L294.981188,24.4513486 C294.915557,24.333903 294.791203,24.2608696 294.657473,24.2608696 C294.522262,24.2608696 294.398895,24.3334095 294.333757,24.4508551 L291.489403,29.5696078 C291.269809,29.9629025 290.696398,30.3769229 290.259678,30.4568648 L285.465628,31.3697822 C285.071346,31.4467634 284.788095,31.6658636 284.689401,31.9698404 C284.590214,32.2738172 284.691375,32.6172716 284.967224,32.9133529 L288.299126,36.4441227 C288.60261,36.7648775 288.822697,37.4384625 288.770389,37.883078 L288.164903,42.6731804 C288.110128,43.0941093 288.245338,43.3497262 288.369199,43.4903648 C288.618894,43.7760833 289.049199,43.8348061 289.47901,43.6339643 L293.89457,41.5811337 C294.28145,41.4000307 295.024614,41.4000307 295.413961,41.5811337 L299.827053,43.6339643 C299.999767,43.7148932 300.16952,43.7558511 300.330391,43.7558511 C300.572191,43.7558511 300.787343,43.6615985 300.937358,43.4908583 C301.061218,43.3502197 301.196922,43.0946028 301.142147,42.6751543 L300.536661,37.8815976 C300.478925,37.4414233 300.699506,36.7693187 301.008911,36.4431358 L304.330943,32.9138464 L304.330943,32.9138464 Z" id="Fill-85"></path>
                    </g>
                </g>
            </g>
        </g>
    </g>
</svg>