<?xml version="1.0" encoding="UTF-8" standalone="no"?>
<svg width="18px" height="14px" viewBox="0 0 18 14" version="1.1" xmlns="http://www.w3.org/2000/svg" xmlns:xlink="http://www.w3.org/1999/xlink">
    <!-- Generator: Sketch 40.2 (33826) - http://www.bohemiancoding.com/sketch -->
    <title>Collaborators</title>
    <desc>Created with Sketch.</desc>
    <defs></defs>
    <g id="8-Dashboard" stroke="none" stroke-width="1" fill="none" fill-rule="evenodd">
        <g id="Dashboard" transform="translate(-868.000000, -483.000000)" fill="#9B9B9B">
            <g id="Sidebar" transform="translate(868.000000, 140.000000)">
                <g id="Stats" transform="translate(0.000000, 275.000000)">
                    <path d="M8.69637794,75.1568889 C10.6699817,75.1568889 12.2758524,73.5513615 12.2758524,71.5777577 C12.2758524,69.605184 10.6699817,68 8.69637794,68 C6.72380422,68 5.11896357,69.605184 5.11896357,71.5777577 C5.11896357,73.5513615 6.72380422,75.1568889 8.69637794,75.1568889 L8.69637794,75.1568889 Z M8.69637794,68.5150323 C10.3860272,68.5150323 11.7608201,69.8891385 11.7608201,71.5777577 C11.7608201,73.267407 10.3860272,74.6418566 8.69637794,74.6418566 C7.0077587,74.6418566 5.63399587,73.267407 5.63399587,71.5777577 C5.63399587,69.8891385 7.0077587,68.5150323 8.69637794,68.5150323 L8.69637794,68.5150323 Z M14.0942598,73.9448462 C13.6046358,73.9448462 13.1459137,73.7807225 12.7671932,73.4703297 C12.657663,73.3800274 12.4949128,73.3958217 12.4049539,73.5060387 C12.3146515,73.6159122 12.3307892,73.7783191 12.4406628,73.8686214 C12.9055653,74.2497453 13.4927021,74.4598785 14.0942598,74.4598785 C15.5366936,74.4598785 16.7099372,73.2869782 16.7099372,71.8452312 C16.7099372,70.4038274 15.5366936,69.2312706 14.0942598,69.2312706 C13.4920154,69.2312706 12.9048785,69.4410604 12.4403194,69.8221843 C12.3307892,69.9121433 12.3146515,70.0745501 12.4049539,70.1844237 C12.4949128,70.2942972 12.657663,70.3104349 12.7675366,70.2204759 C13.1397333,69.9145467 13.6111595,69.7463029 14.0942598,69.7463029 C15.2523958,69.7463029 16.1949049,70.6877819 16.1949049,71.8452312 C16.1949049,73.0030238 15.2523958,73.9448462 14.0942598,73.9448462 L14.0942598,73.9448462 Z M12.3991168,77.0257694 C11.4689685,75.4755222 9.51630936,75.6695177 9.46102923,75.6777582 L7.87026613,75.6777582 C7.80022173,75.6763848 6.22902986,75.6351822 5.30574862,76.9622488 C4.79380651,77.6963415 4.04185935,80.5132248 3.77747611,81.6854383 C3.74588746,81.824497 3.83309959,81.9621823 3.97181496,81.9934276 C4.11053033,82.0253596 4.24821563,81.9378041 4.27946092,81.7987454 C4.55757836,80.5678182 5.29098436,77.8841566 5.72841846,77.2568472 C6.48791943,76.1649787 7.84176767,76.195194 7.8613389,76.1927905 L9.48849762,76.1914171 C9.50566536,76.1893569 11.2090489,76.0255767 11.9647729,77.3025134 C11.97061,77.3124707 11.9771337,77.3220847 11.9843441,77.3313552 C12.4482166,77.9167753 13.2248853,80.5516805 13.5108999,81.7997755 C13.5383683,81.9189196 13.6444649,81.999608 13.7618923,81.999608 C13.7807768,81.999608 13.8000047,81.9975479 13.8195759,81.9934276 C13.9579479,81.9614956 14.0448167,81.823467 14.0128847,81.6844082 C13.7883306,80.7055035 12.992434,77.7979745 12.3991168,77.0257694 L12.3991168,77.0257694 Z M3.29780936,74.4598785 C3.89971044,74.4598785 4.48753397,74.2497453 4.95243646,73.8686214 C5.06231002,73.7783191 5.0784477,73.6159122 4.98814537,73.5060387 C4.89784304,73.3958217 4.73577954,73.3800274 4.62590598,73.4703297 C4.24718556,73.7807225 3.78812011,73.9448462 3.29780936,73.9448462 C2.13967339,73.9448462 1.19750763,73.0030238 1.19750763,71.8452312 C1.19750763,70.6877819 2.13967339,69.7463029 3.29780936,69.7463029 C3.78812011,69.7463029 4.24684221,69.9100831 4.62453256,70.2204759 C4.73474948,70.3104349 4.89715633,70.2942972 4.9871153,70.1844237 C5.07741763,70.0745501 5.06127996,69.9121433 4.9514064,69.8221843 C4.48719062,69.4410604 3.89971044,69.2312706 3.29780936,69.2312706 C1.85571891,69.2312706 0.68247533,70.4038274 0.68247533,71.8452312 C0.68247533,73.2869782 1.85571891,74.4598785 3.29780936,74.4598785 L3.29780936,74.4598785 Z M17.387033,78.0767787 C17.1126924,76.8393277 16.8356051,76.0139026 16.563668,75.6228214 C15.8872589,74.6487237 14.7277495,74.6789389 14.6882637,74.6799689 L13.5812876,74.6816857 C13.5253208,74.6741319 12.1961941,74.5422836 11.4840761,75.5500302 C11.4020143,75.6660841 11.429826,75.8271176 11.54588,75.908836 C11.6615906,75.9905545 11.822624,75.9634294 11.9046858,75.8470321 C12.4392893,75.0899347 13.5146768,75.1915677 13.5531325,75.1950012 L14.6975343,75.1950012 C14.7064615,75.1884775 15.6225323,75.1702797 16.1409982,75.9167332 C16.3013449,76.1474676 16.5605778,76.7291108 16.8840181,78.1880256 C16.9107998,78.3078565 17.0172398,78.3899183 17.1353539,78.3899183 C17.153895,78.3899183 17.1724362,78.3878582 17.1909774,78.3837379 C17.3300361,78.352836 17.4175916,78.215494 17.387033,78.0767787 L17.387033,78.0767787 Z M5.55021729,75.9438582 C5.62300852,76.0667793 5.7806084,76.1072951 5.90284274,76.0341605 C6.02542042,75.9617127 6.0659363,75.8037694 5.99348842,75.6815351 C5.31227236,74.5316396 3.87224205,74.6748186 3.83927998,74.6799689 L2.71376273,74.6799689 C2.66706646,74.6799689 1.50549695,74.6476936 0.828744504,75.6228214 C0.555434029,76.0159627 0.278690006,76.8417312 0.00606624154,78.0767787 C-0.0244923417,78.2158374 0.0634065044,78.3531793 0.202121871,78.3837379 C0.221006389,78.3878582 0.239547551,78.3899183 0.257745359,78.3899183 C0.375859434,78.3899183 0.482642798,78.3078565 0.509081122,78.1876823 C0.759730176,77.051521 1.02342671,76.2449804 1.2517577,75.9167332 C1.76507323,75.1768034 2.65676582,75.1950012 2.7048355,75.1950012 L3.86640502,75.1936278 C3.87842244,75.1922544 5.03999195,75.0823809 5.55021729,75.9438582 L5.55021729,75.9438582 Z" id="Collaborators"></path>
                </g>
            </g>
        </g>
    </g>
</svg>