<?xml version="1.0" encoding="UTF-8" standalone="no"?>
<svg width="25px" height="38px" viewBox="0 0 25 38" version="1.1" xmlns="http://www.w3.org/2000/svg" xmlns:xlink="http://www.w3.org/1999/xlink">
    <!-- Generator: Sketch 40.2 (33826) - http://www.bohemiancoding.com/sketch -->
    <title>Fill 192</title>
    <desc>Created with Sketch.</desc>
    <defs></defs>
    <g id="8-Dashboard" stroke="none" stroke-width="1" fill="none" fill-rule="evenodd">
        <g id="8.-Dashboard-Mobile" transform="translate(-81.000000, -432.000000)" fill="#999999">
            <g id="Profile" transform="translate(16.000000, 80.000000)">
                <g id="tags" transform="translate(30.000000, 313.000000)">
                    <g id="Group-15" transform="translate(0.000000, 26.000000)">
                        <g id="Group-12">
                            <g id="Fill-192" transform="translate(35.000000, 13.000000)">
                                <path d="M14.7671602,34.7318854 L10.1522099,34.7318854 C9.2990954,34.7318854 8.60561045,35.463601 8.60561045,36.3623124 C8.60561045,37.2658642 9.2990954,38 10.1522099,38 L14.7671602,38 C15.6180158,38 16.3107477,37.2658642 16.3107477,36.3623124 C16.3107477,35.463601 15.6180158,34.7318854 14.7671602,34.7318854 L14.7671602,34.7318854 Z M14.7671602,36.789886 L10.1522099,36.789886 C9.9218012,36.789886 9.73506476,36.598688 9.73506476,36.3623124 C9.73506476,36.1307772 9.9218012,35.9419994 10.1522099,35.9419994 L14.7671602,35.9419994 C14.99531,35.9419994 15.1812934,36.1307772 15.1812934,36.3623124 C15.1812934,36.598688 14.99531,36.789886 14.7671602,36.789886 L14.7671602,36.789886 Z M12.4570496,0 C5.76842123,0 0.3259574,5.82387534 0.3259574,12.9821031 C0.3259574,17.0400187 2.05101061,20.7800777 5.06138283,23.2600047 C5.09074864,23.2922744 5.1238793,23.3213171 5.16077481,23.3463261 C5.19239953,23.3689149 5.22251831,23.3955374 5.29932121,23.4600769 C6.20740247,24.2248689 7.26607764,25.8302868 7.26607764,27.8366558 L7.26607764,28.7926459 C7.26607764,29.1266374 7.51982838,29.3977029 7.83080479,29.3977029 L17.0840475,29.3977029 C17.3965298,29.3977029 17.6495276,29.1266374 17.6495276,28.7926459 L17.6495276,27.8366558 C17.6495276,25.4971021 18.9461411,23.9344415 19.7126641,23.3794026 C19.7367591,23.362461 19.7585953,23.3430992 19.7789254,23.3229306 C22.8367347,20.8446171 24.5888949,17.0787423 24.5888949,12.9821031 C24.5888949,5.82387534 19.146431,0 12.4570496,0 L12.4570496,0 Z M16.5200733,27.8366558 L16.5200733,28.1875889 L13.0232827,28.1875889 L11.8938284,28.1875889 L8.39553195,28.1875889 L8.39553195,27.8366558 C8.39553195,25.3962593 7.10418919,23.4415218 6.03045463,22.5387767 C6.01916008,22.5274823 5.95967549,22.4758508 5.94762798,22.4653631 C5.91976811,22.4427743 5.8926612,22.4209923 5.86630727,22.3992102 C3.04568337,20.1064476 1.45541171,16.6898924 1.45541171,12.9821031 C1.45541171,6.49105153 6.39112704,1.21011401 12.4570496,1.21011401 C18.5229722,1.21011401 23.4594405,6.49105153 23.4594405,12.9821031 C23.4594405,16.7149014 21.8541095,20.1435577 19.0560747,22.3919496 C17.7722616,23.3527801 16.5200733,25.3777042 16.5200733,27.8366558 Z M15.9929946,30.1536208 L8.92110469,30.1536208 C8.06949614,30.1536208 7.37525822,30.8861431 7.37525822,31.7856612 C7.37525822,32.685986 8.06949614,33.4193151 8.92110469,33.4193151 L15.9929946,33.4193151 C16.8461091,33.4193151 17.5411,32.685986 17.5411,31.7856612 C17.5411,30.8861431 16.8461091,30.1536208 15.9929946,30.1536208 L15.9929946,30.1536208 Z M15.9929946,32.2092011 L8.92110469,32.2092011 C8.6959668,32.2092011 8.50471253,32.0147761 8.50471253,31.7856612 C8.50471253,31.5565463 8.6959668,31.3637348 8.92110469,31.3637348 L15.9929946,31.3637348 C16.2203914,31.3637348 16.4116457,31.5565463 16.4116457,31.7856612 C16.4116457,32.0188098 16.2241562,32.2092011 15.9929946,32.2092011 L15.9929946,32.2092011 Z"></path>
                            </g>
                        </g>
                    </g>
                </g>
            </g>
        </g>
    </g>
</svg>