<?xml version="1.0" encoding="UTF-8" standalone="no"?>
<svg width="43px" height="38px" viewBox="0 0 43 38" version="1.1" xmlns="http://www.w3.org/2000/svg" xmlns:xlink="http://www.w3.org/1999/xlink">
    <!-- Generator: Sketch 40.2 (33826) - http://www.bohemiancoding.com/sketch -->
    <title>marketing_brand_guides</title>
    <desc>Created with Sketch.</desc>
    <defs></defs>
    <g id="1-Homepage" stroke="none" stroke-width="1" fill="none" fill-rule="evenodd">
        <g id="Homepage" transform="translate(-30.000000, -2375.000000)" fill="#0DC5A0">
            <g id="Asset-types-section-Copy" transform="translate(-1.000000, 1907.000000)">
                <g id="Icons" transform="translate(31.000000, 282.000000)">
                    <path d="M20.3445664,191.630695 L20.3445664,196.656425 C20.3445664,197.031143 20.6479522,197.333625 21.0217668,197.333625 C21.3955814,197.333625 21.6989672,197.031143 21.6989672,196.656425 L21.6989672,191.630695 C22.9495305,191.324601 23.8822611,190.203157 23.8822611,188.860494 C23.8822611,187.283069 22.5982892,186 21.0217668,186 C19.4434385,186 18.1612724,187.283069 18.1612724,188.860494 C18.1612724,190.203157 19.0931001,191.324601 20.3445664,191.630695 L20.3445664,191.630695 Z M21.0217668,187.354401 C21.851563,187.354401 22.5278604,188.029795 22.5278604,188.860494 C22.5278604,189.691193 21.851563,190.366588 21.0217668,190.366588 C20.1910677,190.366588 19.5156732,189.691193 19.5156732,188.860494 C19.5156732,188.029795 20.1910677,187.354401 21.0217668,187.354401 L21.0217668,187.354401 Z M41.8912763,194.623921 C41.7784096,194.483966 41.6167844,194.393673 41.4361976,194.373808 L40.6199455,194.282612 L40.6199455,192.857782 C40.6199455,192.483968 40.3165597,192.180582 39.9427451,192.180582 L23.0705236,192.180582 C22.696709,192.180582 22.3942262,192.483968 22.3942262,192.857782 C22.3942262,193.2325 22.696709,193.534983 23.0705236,193.534983 L39.2655447,193.534983 L39.2655447,215.567471 L27.2429808,203.544004 C26.9793242,203.279445 26.5504306,203.279445 26.2840651,203.544004 L21.9861001,207.840163 L17.4840721,203.267706 C17.3540496,203.134072 17.1969391,203.069061 16.9847496,203.065449 C16.7978423,203.070867 16.6199644,203.153034 16.4962625,203.292989 L2.77347418,218.734963 L2.77347418,193.534983 L18.9712041,193.534983 C19.0596916,193.534983 19.1436644,193.516021 19.2222197,193.484418 C19.2502106,193.473583 19.2709781,193.454622 19.2971632,193.439272 C19.3450187,193.413087 19.3910683,193.385999 19.4307974,193.349881 C19.4551766,193.326405 19.4714294,193.298414 19.4930998,193.270423 C19.5237996,193.2325 19.5544993,193.194577 19.5752668,193.14943 C19.5915196,193.116021 19.6005489,193.079904 19.6113841,193.043787 C19.6195106,193.010378 19.6375692,192.981484 19.641181,192.947173 C19.6429868,192.931823 19.6375692,192.918279 19.6393751,192.902929 C19.6393751,192.887579 19.6475015,192.874035 19.6475015,192.857782 C19.6475015,192.82618 19.6339575,192.799092 19.6285399,192.768392 C19.6231223,192.723245 19.6168018,192.679904 19.6041607,192.638369 C19.5879079,192.596835 19.5680433,192.559814 19.54547,192.521891 C19.5228966,192.484871 19.5030321,192.448753 19.4750411,192.417151 C19.4452443,192.383742 19.4118358,192.35846 19.3784272,192.331372 C19.3450187,192.304284 19.3107072,192.279905 19.272784,192.26004 C19.2321519,192.239273 19.1879082,192.227535 19.1436644,192.216699 C19.1138676,192.208573 19.0903913,192.191417 19.0596916,192.186903 L3.83983902,190.167943 C3.65925226,190.141757 3.47776256,190.193225 3.33329315,190.305188 C3.1906296,190.417152 3.09853035,190.583292 3.07776288,190.763879 L2.91884652,192.180582 L2.09717674,192.180582 C1.72336214,192.180582 1.41997637,192.483968 1.41997637,192.857782 L1.41997637,205.598179 L0.0041761344,218.25099 C-0.0156884098,218.428868 0.0357788183,218.607649 0.148645546,218.747604 C0.259706407,218.888462 0.424040363,218.978755 0.601918327,218.99862 L1.41997637,219.089816 L1.41997637,220.515548 C1.41997637,220.522772 1.42358811,220.528189 1.42358811,220.535413 C1.42539398,220.584171 1.44164678,220.631124 1.45248199,220.679882 C1.46241426,220.717806 1.466026,220.757535 1.48137587,220.792749 C1.49762868,220.826158 1.52381376,220.853246 1.54367831,220.884848 C1.57347512,220.927286 1.59785434,220.97153 1.63577756,221.005841 C1.64029223,221.011259 1.64209809,221.01758 1.6475157,221.022094 C1.67911838,221.050988 1.7197504,221.066338 1.75496482,221.087106 C1.78656751,221.106067 1.81365552,221.129543 1.84706407,221.143087 C1.92832812,221.17469 2.01049509,221.192749 2.09717674,221.192749 L20.213641,221.192749 L38.2136268,223.204485 C38.238909,223.207194 38.2632882,223.209 38.2885703,223.209 C38.6289764,223.209 38.9215269,222.95347 38.961256,222.606743 L39.1192694,221.192749 L39.9427451,221.192749 C40.3165597,221.192749 40.6199455,220.889363 40.6199455,220.515548 L40.6199455,207.776055 L42.0357457,195.121438 C42.0556102,194.94356 42.0023371,194.764779 41.8912763,194.623921 L41.8912763,194.623921 Z M4.34728783,191.600899 L8.71929341,192.180582 L4.2822766,192.180582 L4.34728783,191.600899 L4.34728783,191.600899 Z M3.60507623,219.838348 L17.0280905,204.734071 L31.8957988,219.838348 L3.60507623,219.838348 L3.60507623,219.838348 Z M37.6908281,221.783267 L32.4086653,221.192749 L37.7567423,221.192749 L37.6908281,221.783267 L37.6908281,221.783267 Z M39.2655447,219.838348 L33.7973775,219.838348 L22.9350836,208.8054 L26.763523,204.980572 L39.2655447,217.482594 L39.2655447,219.838348 L39.2655447,219.838348 Z" id="marketing_brand_guides"></path>
                </g>
            </g>
        </g>
    </g>
</svg>