<?xml version="1.0" encoding="UTF-8"?>
<svg width="30px" height="31px" viewBox="0 0 30 31" version="1.1" xmlns="http://www.w3.org/2000/svg" xmlns:xlink="http://www.w3.org/1999/xlink">
    <!-- Generator: Sketch 41.2 (35397) - http://www.bohemiancoding.com/sketch -->
    <title>Group 7</title>
    <desc>Created with Sketch.</desc>
    <defs></defs>
    <g id="1-Create-a-Challenge-(flow)" stroke="none" stroke-width="1" fill="none" fill-rule="evenodd" stroke-linecap="round" stroke-linejoin="round">
        <g id="5.-Challenge-accepted" transform="translate(-850.000000, -269.000000)" stroke="#DE6BAD">
            <g id="Challenge-welcome" transform="translate(128.000000, 98.000000)">
                <g id="Submissions" transform="translate(723.000000, 165.915633)">
                    <g id="Group-7" transform="translate(0.000000, 5.925558)">
                        <path d="M0.157557692,12.0041556 L0.157557692,29.1295889 C0.157557692,29.3586345 0.376211538,29.5455175 0.646788462,29.5455175 L27.2740962,29.5455175 C27.5446731,29.5455175 27.7633269,29.3586345 27.7633269,29.1295889 L27.7633269,12.0041556" id="Stroke-53"></path>
                        <path d="M1.80380769,11.9963498 L1.80380769,1.88643567 C1.80380769,1.12238051 2.43496154,0.497917828 3.20919231,0.497917828 L18.0320769,0.50475501 L26.1574615,8.45354963 C26.1574615,8.45354963 26.1845769,10.6494248 26.1845769,12.2778138" id="Stroke-55"></path>
                        <path d="M18.0466731,0.584636095 L18.1885962,6.25038147 C18.1885962,7.50329519 19.2443654,8.51291916 20.5424423,8.51291916 L26.0687885,8.47987278" id="Stroke-57"></path>
                        <path d="M11.1208269,19.3788547 C8.54198077,16.64797 4.68871154,13.2453321 0.454096154,11.8778956" id="Stroke-59"></path>
                        <path d="M27.4994423,11.9963498 C23.2336731,13.3677747 19.3555962,16.8017497 16.7830962,19.528646" id="Stroke-61"></path>
                        <path d="M27.1366154,28.8787212 C25.2321923,26.493684 20.0104615,20.4735447 14.0248846,18.5414708 C7.37930769,20.6854973 1.74738462,27.614982 0.396230769,29.4308237" id="Stroke-63"></path>
                        <path d="M16.2821538,4.93796526 L4.71542308,4.93796526" id="Stroke-65"></path>
                        <path d="M16.2821538,7.90074442 L4.71542308,7.90074442" id="Stroke-67"></path>
                        <path d="M22.3871538,11.8511166 L5.56292308,11.8511166" id="Stroke-69"></path>
                        <path d="M17.8900962,14.8138958 L10.0600962,14.8138958" id="Stroke-71"></path>
                        <path d="M1.52607692,10.2909855 C0.957807692,10.9718549 0.528576923,11.5279458 0.263769231,11.8840491" id="Stroke-688"></path>
                        <path d="M27.6571731,11.884277 C27.5233269,11.7042312 26.5979423,10.5458985 26.2517885,10.1390861" id="Stroke-689"></path>
                    </g>
                </g>
            </g>
        </g>
    </g>
</svg>