<?xml version="1.0" encoding="UTF-8"?>
<svg width="33px" height="33px" viewBox="0 0 33 33" version="1.1" xmlns="http://www.w3.org/2000/svg" xmlns:xlink="http://www.w3.org/1999/xlink">
    <!-- Generator: Sketch 41.2 (35397) - http://www.bohemiancoding.com/sketch -->
    <title>i</title>
    <desc>Created with Sketch.</desc>
    <defs></defs>
    <g id="1-Create-a-Challenge-(flow)" stroke="none" stroke-width="1" fill="none" fill-rule="evenodd">
        <g id="5.-Challenge-accepted" transform="translate(-493.000000, -379.000000)" stroke="#D982E0">
            <g id="Challenge-welcome" transform="translate(128.000000, 98.000000)">
                <g id="FAQs" transform="translate(366.000000, 280.476427)">
                    <g id="i" transform="translate(0.000000, 1.975186)">
                        <path d="M20.1046926,7.65905134 C19.9677317,6.30069597 18.7421385,5.30918673 17.3679635,5.44403854 C15.9892231,5.58012001 14.9856727,6.7900974 15.1226337,8.14927253 C15.2591796,9.50721802 16.4851878,10.4991372 17.8643432,10.3638755 C19.2381032,10.2286138 20.2416536,9.01740672 20.1046926,7.65905134 L20.1046926,7.65905134 Z M16.587701,12.0718618 C14.9221726,10.9471403 13.5247557,12.4952719 11.8770738,15.2332966 C11.8770738,15.2332966 14.6133879,12.8170308 14.3124888,14.1343978 C14.0115897,15.4529944 11.2856514,21.9853147 11.1482754,22.7890972 C10.9133666,24.1576996 12.3585123,27.3929135 16.9902832,22.8280361 C16.9902832,22.8280361 16.0846807,23.1006089 15.1022971,23.1969317 C14.1174232,23.2936643 14.5702245,21.6147797 15.6920593,19.1935952 C16.812234,16.7724108 18.2544745,13.1957636 16.587701,12.0718618 L16.587701,12.0718618 Z" id="Stroke-202" stroke-linecap="round" stroke-linejoin="round"></path>
                        <ellipse id="Oval" cx="15.5" cy="15.3076923" rx="15.5" ry="15.3076923"></ellipse>
                    </g>
                </g>
            </g>
        </g>
    </g>
</svg>