<?xml version="1.0" encoding="UTF-8"?>
<svg width="30px" height="26px" viewBox="0 0 30 26" version="1.1" xmlns="http://www.w3.org/2000/svg" xmlns:xlink="http://www.w3.org/1999/xlink">
    <!-- Generator: Sketch 41.2 (35397) - http://www.bohemiancoding.com/sketch -->
    <title>Group 5</title>
    <desc>Created with Sketch.</desc>
    <defs></defs>
    <g id="1-Create-a-Challenge-(flow)" stroke="none" stroke-width="1" fill="none" fill-rule="evenodd" stroke-linecap="round" stroke-linejoin="round">
        <g id="5.-Challenge-accepted" transform="translate(-851.000000, -385.000000)" stroke="#8081E8">
            <g id="Challenge-welcome" transform="translate(128.000000, 98.000000)">
                <g id="Community" transform="translate(723.000000, 280.476427)">
                    <g id="Group-5" transform="translate(0.000000, 6.913151)">
                        <path d="M10.9589362,12.3257917 C10.9307447,12.2832411 10.9009574,12.2385893 10.8748936,12.2044438 C9.9812766,10.5880481 7.43606383,10.6647442 7.43606383,10.6647442 L5.41638298,10.6647442 C5.41638298,10.6647442 3.53393617,10.5996051 2.45787234,12.1287984 C1.8812766,12.9451386 0.988723404,16.0928288 0.614787234,17.6750789 C0.548297872,17.9209266 0.527553191,18.0701162 0.527553191,18.0701162 C0.374893617,18.6537416 0.752021277,19.1328293 1.3637234,19.1328293 L5.96478723,19.1328293 M9.15042553,1.7039132 C8.4637234,1.21169262 7.62489362,0.913313447 6.71212766,0.913313447 C4.41053191,0.913313447 2.54404255,2.75612006 2.54404255,5.02863471 C2.54404255,7.30430125 4.41053191,9.1450066 6.71212766,9.1450066 C7.29138298,9.1450066 7.84138298,9.02891188 8.34404255,8.81826039" id="Stroke-113"></path>
                        <path d="M21.3403191,8.81122116 C21.8440426,9.02554987 22.3988298,9.14532179 22.9818085,9.14532179 C25.285,9.14532179 27.1509574,7.30461644 27.1509574,5.02842458 C27.1509574,2.75590993 25.285,0.913103321 22.9818085,0.913103321 C22.066383,0.913103321 21.2270213,1.21410908 20.5392553,1.70843092 M23.7110638,19.1326192 L28.3770213,19.1326192 C28.9876596,19.1326192 29.3594681,18.6556328 29.2014894,18.0735832 L29.1578723,17.8497988 C28.8211702,16.4188396 27.8052128,13.0289789 27.1445745,12.2042337 C26.2509574,10.5883633 23.7057447,10.6645341 23.7057447,10.6645341 L21.6860638,10.6645341 C21.6860638,10.6645341 19.803617,10.599395 18.7275532,12.1285882 C18.678617,12.1968793 18.6275532,12.2872335 18.5759574,12.3865181" id="Stroke-115"></path>
                        <path d="M22.9906383,23.0263099 L22.9337234,22.7326585 C22.4911702,20.8515039 21.155,16.3957782 20.286383,15.3120524 C19.1124468,13.1871514 15.7651064,13.2885373 15.7651064,13.2885373 L13.1108511,13.2885373 C13.1108511,13.2885373 10.6379787,13.2023856 9.22202128,15.2122425 C8.4656383,16.285462 7.29170213,20.4238971 6.79861702,22.502045 C6.71191489,22.8261647 6.68425532,23.0221073 6.68425532,23.0221073 C6.48478723,23.7906438 6.98,24.4204971 7.78425532,24.4204971 L21.9060638,24.4204971 C22.7103191,24.4204971 23.198617,23.7927451 22.9906383,23.0263099 L22.9906383,23.0263099 Z M14.8156383,11.2907626 C17.842766,11.2907626 20.2948936,8.87115965 20.2948936,5.87896283 C20.2948936,2.89149385 17.842766,0.469264294 14.8156383,0.469264294 C11.7890426,0.469264294 9.33744681,2.89149385 9.33744681,5.87896283 C9.33744681,8.87115965 11.7890426,11.2907626 14.8156383,11.2907626 L14.8156383,11.2907626 Z" id="Stroke-117"></path>
                    </g>
                </g>
            </g>
        </g>
    </g>
</svg>