<?xml version="1.0" encoding="UTF-8"?>
<svg width="26px" height="31px" viewBox="0 0 26 31" version="1.1" xmlns="http://www.w3.org/2000/svg" xmlns:xlink="http://www.w3.org/1999/xlink">
    <!-- Generator: Sketch 42 (36781) - http://www.bohemiancoding.com/sketch -->
    <title>Page 1</title>
    <desc>Created with Sketch.</desc>
    <defs>
        <polygon id="path-1" points="0.000119347319 30.5798817 25.753958 30.5798817 25.753958 0.363480868 0.000119347319 0.363480868"></polygon>
    </defs>
    <g id="WIP" stroke="none" stroke-width="1" fill="none" fill-rule="evenodd">
        <g id="AccessDenied" transform="translate(-500.000000, -452.000000)">
            <g id="Group-2" transform="translate(126.000000, 155.000000)">
                <g id="Group" transform="translate(60.000000, 47.000000)">
                    <g id="Challenge-welcome" transform="translate(0.000000, 80.000000)">
                        <g id="Group-8" transform="translate(314.000000, 164.000000)">
                            <g id="Page-1" transform="translate(0.000000, 6.000000)">
                                <g id="Group-3" transform="translate(0.000000, 0.236005)">
                                    <mask id="mask-2" fill="white">
                                        <use xlink:href="#path-1"></use>
                                    </mask>
                                    <g id="Clip-2"></g>
                                    <path d="M24.5606042,26.4906919 C24.5606042,28.0844434 23.2465902,29.3807905 21.631821,29.3807905 L4.12118228,29.3807905 C2.50700979,29.3807905 1.19359254,28.0844434 1.19359254,26.4906919 L1.19359254,14.6346919 C1.19359254,13.2897767 2.17701445,12.1121515 3.53220326,11.8351337 L3.61097249,11.8189444 C3.95469277,11.7883645 5.25378834,11.7547866 6.39892587,11.7379976 L22.0316345,11.7907629 C23.4757371,11.9880331 24.5606042,13.2046327 24.5606042,14.6346919 L24.5606042,26.4906919 Z M12.8765016,1.56269191 C17.4522779,1.56269191 21.0046508,6.20903511 21.3901427,10.5933507 L6.39295851,10.5387866 C5.48353193,10.5519779 4.83487925,10.5633704 4.36345734,10.5777609 C4.75790023,6.19824221 8.30848298,1.56269191 12.8765016,1.56269191 L12.8765016,1.56269191 Z M22.59018,10.6790943 C22.2387021,5.70716529 18.1570238,0.363480868 12.8765016,0.363480868 C7.59239907,0.363480868 3.50714033,5.71855779 3.16043636,10.6952836 C1.32248765,11.1353941 0.000119347319,12.7675203 0.000119347319,14.6346919 L0.000119347319,26.4906919 C0.000119347319,28.7452087 1.84821259,30.5800016 4.12118228,30.5800016 L21.631821,30.5800016 C23.9047907,30.5800016 25.7540774,28.7452087 25.7540774,26.4906919 L25.7540774,14.6346919 C25.7540774,12.7405381 24.4215646,11.1138083 22.59018,10.6790943 L22.59018,10.6790943 Z" id="Fill-1" fill="#599EE7" mask="url(#mask-2)"></path>
                                </g>
                                <path d="M12.873697,17.0015748 C11.6832075,17.0015748 10.7194779,17.9585452 10.7194779,19.1385688 C10.7194779,20.0439732 11.2857809,20.8114682 12.091972,21.1238627 L12.091972,24.0967069 C12.091972,24.5248252 12.4410629,24.8713972 12.873697,24.8713972 C13.3081212,24.8713972 13.6613893,24.5248252 13.6613893,24.0967069 L13.6613893,21.1232631 C14.464,20.8114682 15.03269,20.0439732 15.03269,19.1385688 C15.03269,17.9585452 14.0671702,17.0015748 12.873697,17.0015748" id="Fill-4" fill="#599EE7"></path>
                            </g>
                        </g>
                    </g>
                </g>
            </g>
        </g>
    </g>
</svg>