<?xml version="1.0" encoding="utf-8"?>
<!-- Generator: Adobe Illustrator 20.0.0, SVG Export Plug-In . SVG Version: 6.00 Build 0)  -->
<svg version="1.1" id="Layer_1" xmlns="http://www.w3.org/2000/svg" xmlns:xlink="http://www.w3.org/1999/xlink" x="0px" y="0px"
	 viewBox="0 0 50 42" style="enable-background:new 0 0 50 42;" xml:space="preserve">
<style type="text/css">
	.st0{fill:#599EE7;}
</style>
<title>ppt</title>
<desc>Created with Sketch.</desc>
<g id="Clip-8">
</g>
<g>
	<path class="st0" d="M49.7,0H0v30.6h23l-8.9,8.9c-0.3,0.3-0.3,0.8,0,1.1c0.1,0.1,0.3,0.2,0.5,0.2s0.4-0.1,0.5-0.2l8.9-8.9v9.2
		c0,0.4,0.3,0.8,0.8,0.8s0.8-0.3,0.8-0.8v-9.2l8.9,8.9c0.1,0.1,0.3,0.2,0.5,0.2s0.4-0.1,0.5-0.2c0.3-0.3,0.3-0.8,0-1.1l-8.9-8.9h23
		V0z M48.2,29.1H24.9c0,0,0,0,0,0H1.5V1.5h46.7V29.1z"/>
	<path class="st0" d="M9.2,26.3C9.2,26.3,9.2,26.3,9.2,26.3c1.5,0,2.7-1.2,2.7-2.7c0-0.5-0.1-0.9-0.4-1.4l6.7-7.3
		c0.4,0.2,0.8,0.3,1.2,0.3c0,0,0,0,0,0c1.1,0,2-0.6,2.4-1.5l5.3,0.9c0.1,0.6,0.3,1.1,0.8,1.6c0.5,0.5,1.2,0.8,1.9,0.8c0,0,0,0,0,0
		c1.5,0,2.7-1.2,2.7-2.7c0-0.3-0.1-0.5-0.1-0.8L38.8,9c0.5,0.4,1.1,0.6,1.7,0.6c0,0,0,0,0,0c1.5,0,2.7-1.2,2.7-2.7
		c0-0.7-0.3-1.4-0.8-1.9c-0.5-0.5-1.2-0.8-1.9-0.8c-1.5,0-2.7,1.2-2.7,2.7c0,0.3,0.1,0.5,0.1,0.8l-6.6,4.5c-0.5-0.4-1.1-0.7-1.8-0.7
		c-0.7,0-1.4,0.3-1.9,0.8c-0.2,0.2-0.4,0.5-0.5,0.8L22,12.3c-0.1-0.6-0.3-1.2-0.8-1.6c-0.5-0.5-1.2-0.8-1.9-0.8
		c-0.7,0-1.4,0.3-1.9,0.8c-0.5,0.5-0.8,1.2-0.8,1.9c0,0.5,0.1,1,0.4,1.4l-6.7,7.3C10,21.1,9.6,21,9.2,21c0,0,0,0,0,0
		c-1.5,0-2.7,1.2-2.7,2.7C6.5,25.1,7.7,26.3,9.2,26.3z M40.6,5.8C40.6,5.8,40.6,5.8,40.6,5.8c0.3,0,0.6,0.1,0.8,0.3
		c0.2,0.2,0.4,0.5,0.4,0.8c0,0.7-0.5,1.2-1.2,1.2c-0.3,0-0.6-0.1-0.8-0.3c-0.2-0.2-0.4-0.5-0.4-0.8C39.4,6.3,39.9,5.8,40.6,5.8z
		 M28.8,13.5c0.2-0.2,0.5-0.4,0.8-0.4c0,0,0,0,0,0c0.3,0,0.6,0.1,0.8,0.3c0.2,0.2,0.4,0.5,0.4,0.8c0,0.7-0.5,1.2-1.2,1.2
		c0,0,0,0,0,0c-0.3,0-0.6-0.1-0.8-0.3c-0.2-0.2-0.4-0.5-0.4-0.8C28.5,14,28.6,13.7,28.8,13.5z M18.5,11.8c0.2-0.2,0.5-0.4,0.8-0.4
		c0,0,0,0,0,0c0.3,0,0.6,0.1,0.8,0.3c0.2,0.2,0.4,0.5,0.4,0.8c0,0.3-0.1,0.6-0.3,0.8c-0.2,0.2-0.5,0.4-0.8,0.4
		c-0.3,0-0.6-0.1-0.8-0.3c-0.2-0.2-0.4-0.5-0.4-0.8C18.1,12.3,18.3,12,18.5,11.8z M9.1,22.5C9.1,22.5,9.2,22.5,9.1,22.5
		c0.3,0,0.6,0.1,0.8,0.3c0.2,0.2,0.4,0.5,0.4,0.8c0,0.7-0.5,1.2-1.2,1.2c-0.7,0-1.2-0.5-1.2-1.2C8,23,8.5,22.5,9.1,22.5z"/>
</g>
</svg>
