<?xml version="1.0" encoding="UTF-8" standalone="no"?>
<svg width="28px" height="35px" viewBox="0 0 28 35" version="1.1" xmlns="http://www.w3.org/2000/svg" xmlns:xlink="http://www.w3.org/1999/xlink">
    <!-- Generator: Sketch 40.2 (33826) - http://www.bohemiancoding.com/sketch -->
    <title>product_catalogues</title>
    <desc>Created with Sketch.</desc>
    <defs></defs>
    <g id="1-Homepage" stroke="none" stroke-width="1" fill="none" fill-rule="evenodd">
        <g id="Homepage" transform="translate(-357.000000, -2377.000000)" fill="#0DC5A0">
            <g id="Asset-types-section-Copy" transform="translate(-1.000000, 1907.000000)">
                <g id="Icons" transform="translate(31.000000, 282.000000)">
                    <path d="M352.50832,203.043613 L340.923339,219.11 C340.913643,219.122678 340.904694,219.135356 340.897236,219.148781 C340.879338,219.176374 340.842048,219.227833 340.802522,219.283021 C340.756283,219.312853 340.712282,219.350142 340.675739,219.394143 C338.362322,222.17964 334.253808,222.701687 331.322138,220.579937 C328.30694,218.401507 327.5537,214.254957 329.609076,211.141317 C329.63667,211.099553 329.658298,211.05406 329.673214,211.008567 C329.682909,210.995889 329.689621,210.987685 329.690367,210.985448 L343.945994,191.214761 C345.630716,188.938633 348.868903,188.43523 351.162183,190.096087 C353.402513,191.714435 353.980494,194.810177 352.477743,197.142984 C352.355435,197.32048 350.543184,199.842716 340.05674,214.38174 L339.788258,214.756123 C339.743511,214.794904 339.706222,214.841888 339.675645,214.894839 L339.574964,215.066369 C339.050679,215.794252 338.272829,216.27379 337.386093,216.41698 C336.498613,216.558679 335.612623,216.347622 334.885486,215.824083 C333.41182,214.751648 333.062048,212.661967 334.105397,211.165927 C334.134483,211.122672 334.157602,211.077179 334.174009,211.027958 C334.176992,211.024229 334.178484,211.0205 334.178484,211.019754 L344.110812,197.212342 C344.291291,196.961759 344.235358,196.611987 343.984029,196.432253 C343.733446,196.251028 343.383674,196.309199 343.203195,196.559782 L333.265647,210.373907 C333.223883,210.433569 333.193306,210.490249 333.147067,210.579743 C333.142593,210.5872 333.139609,210.593912 333.135135,210.602116 C331.80988,212.588134 332.290163,215.318443 334.229197,216.730209 C335.198714,217.429007 336.383762,217.713895 337.565081,217.520738 C338.747146,217.330563 339.782292,216.691428 340.512413,215.674181 L340.575058,215.569772 C340.589974,215.553364 340.605635,215.53472 340.619059,215.515329 L351.767012,200.051535 C352.731309,198.711364 353.189965,198.074466 353.383868,197.727677 L353.418174,197.750051 C355.244595,194.916824 354.539831,191.15659 351.817726,189.189216 C349.0285,187.171875 345.093753,187.782671 343.042852,190.554744 L328.790207,210.322448 C328.66417,210.490249 328.592575,210.585709 328.562744,210.700559 C326.318685,214.295975 327.220336,218.997387 330.666595,221.486808 C332.075378,222.506292 333.719828,223 335.352345,223 C337.589692,223 339.807648,222.072247 341.376774,220.296539 C341.410334,220.279386 341.442403,220.257013 341.47298,220.232402 C341.475963,220.229419 341.707156,220.001955 341.841397,219.747644 L353.415937,203.697664 C353.596416,203.447081 353.539737,203.098055 353.289154,202.91683 C353.038571,202.735605 352.688799,202.793776 352.50832,203.043613" id="product_catalogues"></path>
                </g>
            </g>
        </g>
    </g>
</svg>