<?xml version="1.0" encoding="UTF-8" standalone="no"?>
<svg width="44px" height="35px" viewBox="0 0 44 35" version="1.1" xmlns="http://www.w3.org/2000/svg" xmlns:xlink="http://www.w3.org/1999/xlink">
    <!-- Generator: Sketch 40.2 (33826) - http://www.bohemiancoding.com/sketch -->
    <title>service_catalogues</title>
    <desc>Created with Sketch.</desc>
    <defs></defs>
    <g id="1-Homepage" stroke="none" stroke-width="1" fill="none" fill-rule="evenodd">
        <g id="Homepage" transform="translate(-665.000000, -2376.000000)" fill="#0DC5A0">
            <g id="Asset-types-section-Copy" transform="translate(-1.000000, 1907.000000)">
                <g id="Icons" transform="translate(31.000000, 282.000000)">
                    <path d="M649.594606,204.151317 C647.435097,204.151317 645.679286,205.909453 645.679286,208.069737 C645.679286,210.230795 647.435097,211.988931 649.594606,211.988931 C651.754889,211.988931 653.513025,210.230795 653.513025,208.069737 C653.513025,205.909453 651.754889,204.151317 649.594606,204.151317 L649.594606,204.151317 Z M649.594606,210.826655 C648.076673,210.826655 646.841562,209.589993 646.841562,208.069737 C646.841562,206.550255 648.076673,205.313593 649.594606,205.313593 C651.114088,205.313593 652.350749,206.550255 652.350749,208.069737 C652.350749,209.589993 651.114088,210.826655 649.594606,210.826655 L649.594606,210.826655 Z M669.843775,193.381669 C668.349089,193.381669 667.134898,194.596635 667.134898,196.089772 C667.134898,197.583684 668.349089,198.79865 669.843775,198.79865 C671.336138,198.79865 672.550328,197.583684 672.550328,196.089772 C672.550328,194.596635 671.336138,193.381669 669.843775,193.381669 L669.843775,193.381669 Z M669.843775,197.636374 C668.98989,197.636374 668.297174,196.942882 668.297174,196.089772 C668.297174,195.237436 668.98989,194.543945 669.843775,194.543945 C670.695336,194.543945 671.388827,195.237436 671.388827,196.089772 C671.388827,196.942882 670.695336,197.636374 669.843775,197.636374 L669.843775,197.636374 Z M677.861154,194.351782 L676.701203,194.351782 C676.677957,194.347908 676.633791,194.314589 676.604347,194.240979 L675.910855,192.559553 C675.903882,192.538632 675.909306,192.488267 675.922478,192.470445 L676.736846,191.652978 C676.942956,191.450742 677.056084,191.181094 677.056084,190.892849 C677.056084,190.604605 676.942956,190.334182 676.741495,190.13737 L675.793078,189.181204 C675.383957,188.786031 674.684267,188.78913 674.285219,189.188178 L673.398015,190.025017 L671.638329,189.30828 C671.617408,189.297432 671.584865,189.25404 671.58254,189.234669 L671.58254,188.070843 C671.58254,187.480407 671.101358,187 670.510922,187 L669.174304,187 C668.585418,187 668.10656,187.480407 668.10656,188.070843 L668.107335,189.22847 C668.101911,189.252491 668.067043,189.297432 667.995757,189.326101 L666.314331,190.021917 L666.225223,190.013394 L665.400782,189.188953 C664.99631,188.78758 664.295845,188.786031 663.888274,189.189728 L662.939857,190.136595 C662.526087,190.55424 662.526087,191.232234 662.942181,191.649878 L663.761973,192.46812 C663.775146,192.486717 663.782894,192.537082 663.748801,192.613792 L663.062283,194.293668 C663.051435,194.314589 663.006494,194.347908 662.989447,194.351782 L661.824072,194.351782 C661.233636,194.351782 660.752454,194.83219 660.752454,195.422626 L660.752454,196.758468 C660.752454,197.348904 661.233636,197.829311 661.824072,197.829311 L662.983248,197.828537 C663.006494,197.833186 663.051435,197.865729 663.080105,197.938565 L663.774371,199.620766 C663.782894,199.642462 663.775146,199.692827 663.765073,199.708324 L662.939857,200.531215 C662.525312,200.95041 662.525312,201.628404 662.942181,202.044499 L663.891373,202.996015 C664.297395,203.391964 664.99631,203.392739 665.401557,202.989041 L666.287211,202.155302 L668.046122,202.871264 C668.068593,202.882112 668.101911,202.927053 668.10656,202.94565 L668.10656,204.109475 C668.10656,204.699137 668.585418,205.179544 669.174304,205.179544 L670.510922,205.179544 C671.101358,205.179544 671.58254,204.699137 671.58254,204.109475 L671.58254,202.949524 C671.584865,202.925504 671.617408,202.882112 671.690244,202.853443 L673.37322,202.158402 L673.460778,202.166925 L674.283669,202.989041 C674.684267,203.392739 675.380858,203.401262 675.800827,202.989816 L676.735296,202.049148 C676.941407,201.848461 677.054535,201.578039 677.056084,201.289794 C677.056859,201.000775 676.943731,200.729577 676.739945,200.530441 L675.922478,199.713748 C675.909306,199.694377 675.903107,199.641687 675.936425,199.565752 L676.623718,197.8882 C676.633791,197.865729 676.677957,197.832411 676.697329,197.829311 L677.861154,197.829311 C678.45159,197.829311 678.932772,197.348904 678.932772,196.758468 L678.932772,195.422626 C678.932772,194.83219 678.45159,194.351782 677.861154,194.351782 L677.861154,194.351782 Z M677.769722,196.667036 L676.697329,196.667036 C676.171205,196.667036 675.661353,197.046712 675.531179,197.496126 L674.888827,199.065973 C674.636226,199.527784 674.724559,200.157737 675.097262,200.530441 L675.853516,201.28747 L675.042248,202.104162 L674.282894,201.344809 C674.058188,201.120877 673.73585,200.993026 673.400339,200.993026 C673.19113,200.993026 672.989669,201.043392 672.87809,201.109254 L671.305144,201.757804 C670.799941,201.9058 670.420264,202.416427 670.420264,202.94565 L670.420264,204.017268 L669.268836,204.017268 L669.268836,202.94565 C669.268836,202.418751 668.886835,201.908125 668.437422,201.778725 L666.867574,201.137923 C666.417386,200.888422 665.763412,200.982953 665.401557,201.345583 L664.643753,202.104937 L663.827836,201.28747 L664.584865,200.531215 C664.959892,200.159287 665.05055,199.527784 664.823519,199.124087 L664.174969,197.55424 C664.026197,197.048262 663.516346,196.667036 662.989447,196.667036 L661.91473,196.667036 L661.91473,195.514058 L662.989447,195.514058 C663.517121,195.514058 664.026197,195.132057 664.154823,194.683418 L664.794849,193.115896 C665.052099,192.652535 664.962217,192.020257 664.586414,191.649103 L663.827836,190.892849 L664.646078,190.076932 L665.403107,190.83706 C665.628588,191.059442 665.950151,191.187292 666.288761,191.187292 C666.496421,191.187292 666.696332,191.137702 666.809461,191.071065 L668.381632,190.420965 C668.886835,190.270644 669.268836,189.760793 669.268836,189.234669 L669.268836,188.162276 L670.420264,188.162276 L670.420264,189.234669 C670.420264,189.763117 670.799941,190.272969 671.247805,190.401594 L672.819202,191.043945 C673.26939,191.291122 673.91794,191.197366 674.282894,190.83551 L675.042248,190.075382 L675.853516,190.892849 L675.103461,191.646004 C674.726109,192.016383 674.633902,192.647886 674.861708,193.055457 L675.511032,194.628404 C675.661353,195.133606 676.171205,195.514058 676.697329,195.514058 L677.769722,195.514058 L677.769722,196.667036 L677.769722,196.667036 Z M662.172755,205.673124 L660.350306,205.673124 C660.183713,205.673124 659.96598,205.510405 659.899343,205.295772 L658.819976,202.682201 C658.741716,202.538853 658.780459,202.274629 658.896687,202.158402 L660.183713,200.869825 C660.437864,200.615674 660.578887,200.277064 660.578887,199.916759 C660.578887,199.556453 660.439414,199.217069 660.184488,198.962918 L658.6991,197.472105 C658.189248,196.972327 657.306693,196.971552 656.796842,197.47598 L655.50749,198.76843 C655.437754,198.838942 655.30138,198.885433 655.171205,198.885433 C655.096819,198.885433 655.028633,198.870711 654.920153,198.816471 L652.309682,197.744853 C652.152387,197.698362 651.993543,197.481404 651.993543,197.314036 L651.993543,195.489263 C651.993543,194.744631 651.386835,194.138698 650.642204,194.138698 L648.546233,194.138698 C647.802376,194.138698 647.198768,194.744631 647.198768,195.489263 L647.198768,197.314036 C647.198768,197.477529 647.033724,197.698362 646.821415,197.764224 L644.20707,198.845141 C644.075345,198.917977 643.794074,198.878459 643.685595,198.76998 L642.39237,197.476754 C641.882518,196.970777 640.993764,196.973102 640.488562,197.478304 L639.004723,198.960593 C638.748247,199.215519 638.605675,199.555679 638.605675,199.916759 C638.607225,200.277839 638.748247,200.616449 639.002398,200.86905 L640.293299,202.159176 C640.409527,202.275404 640.44827,202.538078 640.340565,202.741864 L639.272046,205.350011 C639.22478,205.507306 639.003948,205.673124 638.842004,205.673124 L637.013357,205.673124 C636.27105,205.673124 635.666667,206.278282 635.666667,207.022139 L635.666667,209.118884 C635.666667,209.862741 636.27105,210.467899 637.013357,210.467899 L638.842004,210.467899 C639.007047,210.467899 639.223231,210.629843 639.291418,210.842927 L640.369235,213.457273 C640.447495,213.60062 640.409527,213.864069 640.293299,213.980297 L639.004723,215.268098 C638.748247,215.523024 638.605675,215.863184 638.605675,216.225814 C638.607225,216.587669 638.748247,216.927053 639.002398,217.17733 L640.488562,218.666593 C640.999963,219.168696 641.882518,219.166371 642.393919,218.660394 L643.685595,217.369493 C643.753782,217.300531 643.887056,217.25404 644.015681,217.25404 C644.090067,217.25404 644.158254,217.269537 644.267508,217.325327 L646.877979,218.39462 C647.033724,218.441111 647.198768,218.661944 647.198768,218.824662 L647.198768,220.65021 C647.198768,221.394067 647.802376,222 648.546233,222 L650.642204,222 C651.386835,222 651.993543,221.394067 651.993543,220.65021 L651.993543,218.824662 C651.993543,218.65807 652.152387,218.441111 652.364696,218.375249 L654.977492,217.297432 C655.116191,217.222271 655.399011,217.261789 655.505941,217.368718 L656.796842,218.662719 C657.303594,219.170246 658.190798,219.171795 658.702974,218.662719 L660.182164,217.179655 C660.437864,216.926279 660.578887,216.586894 660.578887,216.225814 C660.578887,215.863958 660.439414,215.523799 660.183713,215.269648 L658.895137,213.983396 C658.778909,213.865619 658.741716,213.60062 658.848646,213.397609 L659.918714,210.789462 C659.96598,210.629843 660.183713,210.467899 660.350306,210.467899 L662.172755,210.467899 C662.918936,210.467899 663.524869,209.862741 663.524869,209.118884 L663.524869,207.022139 C663.524869,206.278282 662.918936,205.673124 662.172755,205.673124 L662.172755,205.673124 Z M662.362593,209.118884 C662.362593,209.219615 662.276585,209.305623 662.172755,209.305623 L660.350306,209.305623 C659.664564,209.305623 659.000517,209.799978 658.824625,210.402037 L657.801823,212.895506 C657.477935,213.484392 657.594163,214.320456 658.069921,214.802413 L659.363147,216.092539 C659.409638,216.13903 659.416611,216.19482 659.416611,216.224264 C659.416611,216.253708 659.409638,216.308723 659.361597,216.355988 L657.882407,217.839827 C657.787875,217.932809 657.71194,217.934359 657.619733,217.841377 L656.326507,216.545052 C656.036713,216.257582 655.615969,216.091764 655.17353,216.091764 C654.902332,216.091764 654.641982,216.156852 654.478489,216.250609 L651.98037,217.280385 C651.33492,217.470224 650.831267,218.148993 650.831267,218.824662 L650.831267,220.65021 C650.831267,220.751716 650.743709,220.838499 650.642204,220.838499 L648.546233,220.838499 C648.445502,220.838499 648.361043,220.751716 648.361043,220.65021 L648.361043,218.824662 C648.361043,218.149768 647.854291,217.470998 647.263855,217.299756 L644.768836,216.279278 C644.547229,216.156852 644.286879,216.091764 644.015681,216.091764 C643.572467,216.091764 643.152498,216.257582 642.862704,216.546602 L641.573353,217.836728 C641.479596,217.932035 641.397461,217.92971 641.307579,217.841377 L639.82219,216.352889 C639.776474,216.307948 639.7695,216.253708 639.767951,216.224264 C639.767951,216.195594 639.776474,216.14058 639.82529,216.091764 L641.116966,214.800863 C641.601247,214.315032 641.717475,213.49524 641.413733,212.955944 L640.385507,210.456276 C640.192569,209.810826 639.5138,209.305623 638.842004,209.305623 L637.013357,209.305623 C636.914176,209.305623 636.828943,209.219615 636.828943,209.118884 L636.828943,207.022139 C636.828943,206.921408 636.914176,206.8354 637.013357,206.8354 L638.842004,206.8354 C639.5138,206.8354 640.192569,206.329422 640.366135,205.736662 L641.385839,203.243967 C641.712826,202.653531 641.594273,201.815143 641.113866,201.33706 L639.822965,200.045384 C639.778799,200.001218 639.7695,199.950077 639.767951,199.916759 C639.767951,199.887315 639.776474,199.8323 639.82529,199.785034 L641.312228,198.300421 C641.400561,198.208988 641.479596,198.206664 641.571803,198.300421 L642.865028,199.592871 C643.153273,199.882665 643.574017,200.047709 644.018006,200.047709 C644.288429,200.047709 644.548779,199.983396 644.709173,199.890414 L647.208066,198.859088 C647.855066,198.6677 648.361043,197.988931 648.361043,197.314036 L648.361043,195.489263 C648.361043,195.385433 648.443178,195.300974 648.546233,195.300974 L650.642204,195.300974 C650.743709,195.300974 650.831267,195.386983 650.831267,195.489263 L650.831267,197.314036 C650.831267,197.989706 651.33492,198.668475 651.923806,198.838942 L654.4196,199.862519 C655.003063,200.181758 655.855398,200.060106 656.328832,199.592097 L657.616633,198.299646 C657.712715,198.205889 657.795624,198.212863 657.879308,198.297321 L659.361597,199.785034 C659.409638,199.831525 659.416611,199.88654 659.416611,199.916759 C659.416611,199.944654 659.409638,199.999668 659.361597,200.046934 L658.075345,201.336285 C657.595712,201.813593 657.476386,202.651207 657.774703,203.182754 L658.805254,205.682422 C659.000517,206.34027 659.664564,206.8354 660.350306,206.8354 L662.172755,206.8354 C662.276585,206.8354 662.362593,206.921408 662.362593,207.022139 L662.362593,209.118884 L662.362593,209.118884 Z" id="service_catalogues"></path>
                </g>
            </g>
        </g>
    </g>
</svg>