<?xml version="1.0" encoding="UTF-8" standalone="no"?>
<svg width="17px" height="17px" viewBox="0 0 17 17" version="1.1" xmlns="http://www.w3.org/2000/svg" xmlns:xlink="http://www.w3.org/1999/xlink">
    <!-- Generator: Sketch 40.2 (33826) - http://www.bohemiancoding.com/sketch -->
    <title>Fill 154</title>
    <desc>Created with Sketch.</desc>
    <defs></defs>
    <g id="8-Dashboard" stroke="none" stroke-width="1" fill="none" fill-rule="evenodd">
        <g id="Dashboard" transform="translate(-695.000000, -225.000000)" fill="#9B9B9B">
            <g id="Projects" transform="translate(120.000000, 132.000000)">
                <g id="Asset-by-category-Copy" transform="translate(322.000000, 64.000000)">
                    <g id="Asset-1-(White-Paper)">
                        <path d="M268.488703,29 L254.192897,29.000882 C253.523905,29.0216089 253,29.5605074 253,30.2277361 L253,39.8917482 C253,40.5598589 253.523905,41.0991984 254.20304,41.1199253 L255.993489,41.1199253 L255.993489,45.6692521 C255.993489,45.7997873 256.069781,45.9179745 256.188851,45.9713352 C256.232068,45.9907391 256.278373,46 256.324237,46 C256.403616,46 256.482114,45.9717762 256.543853,45.9166515 L261.929311,41.1238943 L268.488703,41.1203663 C269.166515,41.1203663 269.717762,40.5691198 269.717762,39.8917482 L269.717762,30.2286181 C269.717762,29.5508055 269.166515,29 268.488703,29 L268.488703,29 Z M269.056266,39.8917482 C269.056266,40.2039742 268.801811,40.4588705 268.488262,40.4588705 L261.803186,40.4623985 C261.722042,40.4623985 261.643986,40.4923863 261.583569,40.546188 L256.654985,44.9323458 L256.654985,40.7891774 C256.654985,40.6066046 256.50681,40.4584295 256.324237,40.4584295 L254.213183,40.4584295 C253.904044,40.4487276 253.661496,40.2004462 253.661496,39.8917482 L253.661496,30.2277361 C253.661496,29.9203611 253.904044,29.6716387 254.20304,29.6623778 L268.488703,29.6614958 C268.801811,29.6614958 269.056266,29.9159511 269.056266,30.2286181 L269.056266,39.8917482 L269.056266,39.8917482 Z" id="Fill-154"></path>
                    </g>
                </g>
            </g>
        </g>
    </g>
</svg>