<?xml version="1.0" encoding="UTF-8" standalone="no"?>
<svg width="39px" height="35px" viewBox="0 0 39 35" version="1.1" xmlns="http://www.w3.org/2000/svg" xmlns:xlink="http://www.w3.org/1999/xlink">
    <!-- Generator: Sketch 40.2 (33826) - http://www.bohemiancoding.com/sketch -->
    <title>technical_documentation</title>
    <desc>Created with Sketch.</desc>
    <defs></defs>
    <g id="1-Homepage" stroke="none" stroke-width="1" fill="none" fill-rule="evenodd">
        <g id="Homepage" transform="translate(-992.000000, -2189.000000)" fill="#0DC5A0">
            <g id="Asset-types-section-Copy" transform="translate(-1.000000, 1907.000000)">
                <g id="Icons" transform="translate(31.000000, 282.000000)">
                    <path d="M975.141776,8.57321518 C974.763169,8.57321518 974.457546,8.8797502 974.457546,9.25744512 L974.457546,34.3157701 C974.457546,34.693465 974.763169,35 975.141776,35 C975.518559,35 975.826006,34.693465 975.826006,34.3157701 L975.826006,9.25744512 C975.826006,8.8797502 975.518559,8.57321518 975.141776,8.57321518 L975.141776,8.57321518 Z M968.913459,14.1683915 C968.535764,14.1683915 968.228317,14.4749265 968.228317,14.8526214 L968.228317,34.3157701 C968.228317,34.693465 968.535764,35 968.913459,35 C969.291154,35 969.597689,34.693465 969.597689,34.3157701 L969.597689,14.8526214 C969.597689,14.4749265 969.291154,14.1683915 968.913459,14.1683915 L968.913459,14.1683915 Z M981.370093,14.390082 C980.992398,14.390082 980.685863,14.696617 980.685863,15.0743119 L980.685863,34.3157701 C980.685863,34.693465 980.992398,35 981.370093,35 C981.747788,35 982.054323,34.693465 982.054323,34.3157701 L982.054323,15.0743119 C982.054323,14.696617 981.747788,14.390082 981.370093,14.390082 L981.370093,14.390082 Z M962.68423,18.9552641 C962.306535,18.9552641 962,19.2617991 962,19.639494 L962,34.3157701 C962,34.693465 962.306535,35 962.68423,35 C963.061925,35 963.36846,34.693465 963.36846,34.3157701 L963.36846,19.639494 C963.36846,19.2617991 963.061925,18.9552641 962.68423,18.9552641 L962.68423,18.9552641 Z M1000.05504,10.456216 C999.67735,10.456216 999.371727,10.762751 999.371727,11.1404459 L999.371727,34.3157701 C999.371727,34.693465 999.67735,35 1000.05504,35 C1000.43274,35 1000.74019,34.693465 1000.74019,34.3157701 L1000.74019,11.1404459 C1000.74019,10.762751 1000.43274,10.456216 1000.05504,10.456216 L1000.05504,10.456216 Z M999.845214,5.80983854 C1000.22291,5.80527701 1000.52671,5.49600508 1000.52306,5.11831015 L1000.47197,0.676289393 C1000.47014,0.486529623 1000.38804,0.305892919 1000.24754,0.177257691 C1000.10705,0.0495347694 999.921848,-0.0125020783 999.729351,0.00209482704 L995.30284,0.377052833 C994.926057,0.408983563 994.646891,0.739238547 994.67791,1.11602117 C994.70984,1.49280379 995.046481,1.76375884 995.41779,1.74095118 L998.108182,1.51287453 L987.606621,13.0736236 L975.588807,1.3003071 C975.327887,1.04486125 974.914612,1.0375628 974.647306,1.28388558 L962.244498,12.6275056 C961.965332,12.8829515 961.946174,13.3153848 962.20162,13.5945506 C962.457066,13.8737164 962.889499,13.8919626 963.167752,13.637429 L975.093424,2.73080382 L987.156854,14.547911 C987.284577,14.6738093 987.457003,14.7431446 987.635815,14.7431446 L987.655886,14.7431446 C987.841084,14.7376708 988.017159,14.6564755 988.142145,14.5196295 L999.12358,2.43156726 L999.153686,5.13381936 C999.158247,5.50877737 999.462958,5.80983854 999.838828,5.80983854 L999.845214,5.80983854 L999.845214,5.80983854 Z M987.59841,18.9288072 C987.220716,18.9288072 986.914181,19.2353422 986.914181,19.6130372 L986.914181,34.3157701 C986.914181,34.693465 987.220716,35 987.59841,35 C987.976105,35 988.28264,34.693465 988.28264,34.3157701 L988.28264,19.6130372 C988.28264,19.2353422 987.976105,18.9288072 987.59841,18.9288072 L987.59841,18.9288072 Z M993.828552,14.208533 C993.449945,14.208533 993.14341,14.515068 993.14341,14.8927629 L993.14341,34.3157701 C993.14341,34.693465 993.449945,35 993.828552,35 C994.206247,35 994.51187,34.693465 994.51187,34.3157701 L994.51187,14.8927629 C994.51187,14.515068 994.206247,14.208533 993.828552,14.208533 L993.828552,14.208533 Z" id="technical_documentation"></path>
                </g>
            </g>
        </g>
    </g>
</svg>