<?xml version="1.0" encoding="UTF-8" standalone="no"?>
<svg width="14px" height="18px" viewBox="0 0 14 18" version="1.1" xmlns="http://www.w3.org/2000/svg" xmlns:xlink="http://www.w3.org/1999/xlink">
    <!-- Generator: Sketch 40.2 (33826) - http://www.bohemiancoding.com/sketch -->
    <title>Fill 91</title>
    <desc>Created with Sketch.</desc>
    <defs></defs>
    <g id="8-Dashboard" stroke="none" stroke-width="1" fill="none" fill-rule="evenodd">
        <g id="Dashboard" transform="translate(-346.000000, -942.000000)" fill="#5B5B58">
            <g id="Groups" transform="translate(120.000000, 142.000000)">
                <g id="Team-member-1-Copy" transform="translate(171.333333, 645.000000)">
                    <g id="Group" transform="translate(39.000000, 147.000000)">
                        <path d="M22.588478,17.4260359 C24.9842117,17.4260359 26.9329617,15.477286 26.9329617,13.0827894 C26.9329617,10.6878804 24.9842117,8.73913043 22.588478,8.73913043 C20.1939814,8.73913043 18.2456438,10.6878804 18.2456438,13.0827894 C18.2456438,15.477286 20.1939814,17.4260359 22.588478,17.4260359 L22.588478,17.4260359 Z M22.588478,9.35765031 C24.6432011,9.35765031 26.3144418,11.028891 26.3144418,13.0827894 C26.3144418,15.1362754 24.6432011,16.8075161 22.588478,16.8075161 C20.534992,16.8075161 18.8641637,15.1362754 18.8641637,13.0827894 C18.8641637,11.028891 20.534992,9.35765031 22.588478,9.35765031 L22.588478,9.35765031 Z M29.0433515,25.3604089 C28.770378,24.170789 27.8030129,20.6382158 27.0830558,19.7009521 C25.9548756,17.8214763 23.5847074,18.0581633 23.5174949,18.0668225 L21.5848264,18.0668225 C21.5048312,18.0684719 19.5927801,18.0152792 18.4720221,19.6254926 C17.8493787,20.5206971 16.9368557,23.9394626 16.6164624,25.361646 C16.5785265,25.528234 16.6832626,25.693585 16.8498506,25.7311085 C17.016851,25.7698691 17.1822019,25.6643084 17.2193131,25.4977204 C17.5566126,24.0037887 18.4472813,20.7446013 18.9800331,19.9784613 C19.9032771,18.65153 21.5489523,18.6861671 21.5741054,18.6853424 L23.5504826,18.683693 C23.5719246,18.6799819 25.6427292,18.4824679 26.561025,20.0333034 C26.5684473,20.0452615 26.5762819,20.0572195 26.5849411,20.0679405 C27.1486189,20.7796507 28.0924802,23.981522 28.4405008,25.4989574 C28.4730761,25.6420417 28.6009036,25.7389431 28.7415138,25.7389431 C28.7646052,25.7389431 28.7876966,25.736469 28.810788,25.7311085 C28.977376,25.6931726 29.0816997,25.526997 29.0433515,25.3604089 L29.0433515,25.3604089 Z" id="Fill-91"></path>
                    </g>
                </g>
            </g>
        </g>
    </g>
</svg>