<?xml version="1.0" encoding="UTF-8" standalone="no"?>
<svg width="24px" height="35px" viewBox="0 0 24 35" version="1.1" xmlns="http://www.w3.org/2000/svg" xmlns:xlink="http://www.w3.org/1999/xlink">
    <!-- Generator: Sketch 40.2 (33826) - http://www.bohemiancoding.com/sketch -->
    <title>white_papers</title>
    <desc>Created with Sketch.</desc>
    <defs></defs>
    <g id="1-Homepage" stroke="none" stroke-width="1" fill="none" fill-rule="evenodd">
        <g id="Homepage" transform="translate(-676.000000, -2189.000000)" fill="#0DC5A0">
            <g id="Asset-types-section-Copy" transform="translate(-1.000000, 1907.000000)">
                <g id="Icons" transform="translate(31.000000, 282.000000)">
                    <path d="M669.004364,0 L652.064336,0 C652.010435,0.000759165896 646.666667,0.17384899 646.666667,7.82396372 L646.666667,34.4304509 C646.666667,34.6407398 646.782819,34.833568 646.968056,34.9322595 C647.151774,35.0317102 647.376487,35.0210819 647.551854,34.9041704 L654.665239,30.1631794 L656.737761,30.1631794 L663.850387,34.9041704 C663.945282,34.9679403 664.055362,34.9998253 664.1662,34.9998253 C664.258059,34.9998253 664.349918,34.9778095 664.434944,34.9322595 C664.620181,34.833568 664.735574,34.6407398 664.735574,34.4304509 L664.735574,7.82396372 C664.735574,1.39458775 668.850253,1.1463405 669.022584,1.13874884 C669.332324,1.12887969 669.578293,0.870763282 669.573738,0.560264431 C669.568424,0.24976558 669.314863,0 669.004364,0 L669.004364,0 Z M663.596825,7.82396372 L663.596825,33.3668594 L657.226664,29.1200854 C657.133287,29.0578338 657.023967,29.0244305 656.91161,29.0244305 L654.492908,29.0244305 C654.379792,29.0244305 654.270472,29.0578338 654.177095,29.1200854 L647.805416,33.3668594 L647.805416,7.82396372 C647.805416,1.33081781 651.910226,1.14330384 652.072687,1.13874884 L666.188618,1.13874884 C664.876779,2.1659003 663.596825,4.11847498 663.596825,7.82396372 L663.596825,7.82396372 Z" id="white_papers"></path>
                </g>
            </g>
        </g>
    </g>
</svg>