<?xml version="1.0" encoding="UTF-8" standalone="no"?>
<svg width="47px" height="49px" viewBox="0 0 47 49" version="1.1" xmlns="http://www.w3.org/2000/svg" xmlns:xlink="http://www.w3.org/1999/xlink">
    <!-- Generator: Sketch 48 (47235) - http://www.bohemiancoding.com/sketch -->
    <title>Calendar</title>
    <desc>Created with Sketch.</desc>
    <defs></defs>
    <g id="Icons" stroke="none" stroke-width="1" fill="none" fill-rule="evenodd" transform="translate(-510.000000, -642.000000)">
        <g id="Calendar" transform="translate(501.000000, 634.000000)">
            <rect id="Rectangle-4-Copy-9" x="0" y="0" width="64" height="64"></rect>
            <g id="date" transform="translate(9.000000, 8.000000)" fill="#5D5D5D">
                <g id="Shape">
                    <path d="M12.3,15.1 L12.2,15.1 C9.1,15.3 6.7,17.9 6.7,20.9 L6.7,36.2 C6.7,37.8 7.3,39.3 8.5,40.4 C9.7,41.5 11.2,42.1 12.8,42.1 L34,42.1 C35.6,42.1 37.1,41.5 38.3,40.4 C39.4,39.3 40.1,37.8 40.1,36.2 L40.1,20.9 C40,17.6 37.3,15 34,15 L12.3,15.1 Z M37.7,21 L37.7,36.3 C37.7,37.2 37.3,38.1 36.6,38.8 C35.9,39.5 35,39.8 34,39.8 L12.8,39.8 C11.8,39.8 10.9,39.5 10.2,38.8 C9.5,38.2 9.1,37.3 9.1,36.3 L9.1,21 C9.1,19.2 10.5,17.7 12.3,17.5 L33.8,17.5 C35.9,17.5 37.5,19 37.7,21 Z" fill-rule="nonzero"></path>
                    <path d="M27.2,27.5 C27.8,26.8 28.2,25.9 28.2,24.9 C28.2,23.7 27.7,22.6 26.9,21.8 C25.8,20.7 24.4,20.2 22.9,20.2 C22,20.2 21.1,20.4 20.3,20.7 C19.5,21 18.9,21.6 18.4,22.2 C18,22.7 18.1,23.4 18.6,23.8 C19.2,24.2 19.9,24 20.3,23.5 C20.5,23.2 20.9,22.9 21.3,22.7 C21.8,22.5 22.3,22.4 22.9,22.4 C23.7,22.4 24.6,22.7 25.2,23.2 C25.6,23.6 25.8,24.1 25.8,24.6 C25.8,25.1 25.7,25.7 24.7,26.3 L22.2,26.3 C21.5,26.2 21,26.7 20.9,27.4 C20.8,28.1 21.3,28.6 22,28.7 C22.1,28.7 22.1,28.7 22.2,28.7 L24.8,28.7 C25.2,28.8 25.6,29 25.9,29.4 C26.2,29.8 26.4,30.3 26.3,30.8 C26.3,31.6 25.9,32.4 25.3,33 C23.9,34.2 21.9,34.2 20.5,33.2 C20,32.8 19.2,32.8 18.8,33.3 C18.4,33.8 18.4,34.5 18.9,34.9 C20,35.8 21.4,36.3 22.8,36.2 C24.3,36.2 25.8,35.7 27,34.6 C28.1,33.6 28.7,32.2 28.8,30.7 C28.8,29.7 28.2,28.4 27.2,27.5 Z" fill-rule="nonzero"></path>
                    <path d="M13.6,4.9 L15.3,4.9 C16,5 16.5,4.5 16.6,3.8 C16.7,3.1 16.2,2.6 15.5,2.5 C15.4,2.5 15.4,2.5 15.3,2.5 L13.6,2.5 C12.9,2.4 12.4,2.9 12.3,3.6 C12.2,4.3 12.7,4.8 13.4,4.9 C13.4,4.9 13.5,4.9 13.6,4.9 Z" fill-rule="nonzero"></path>
                    <path d="M22.2,4.9 L23.9,4.9 C24.6,5 25.1,4.5 25.2,3.8 C25.3,3.1 24.8,2.6 24.1,2.5 C24,2.5 24,2.5 23.9,2.5 L22.2,2.5 C21.5,2.4 21,2.9 20.9,3.6 C20.8,4.3 21.3,4.8 22,4.9 C22.1,4.9 22.1,4.9 22.2,4.9 Z" fill-rule="nonzero"></path>
                    <path d="M30.9,4.9 L32.6,4.9 C33.3,5 33.8,4.5 33.9,3.8 C34,3.1 33.5,2.6 32.8,2.5 C32.7,2.5 32.7,2.5 32.6,2.5 L30.9,2.5 C30.2,2.4 29.7,2.9 29.6,3.6 C29.5,4.3 30,4.8 30.7,4.9 C30.7,4.9 30.8,4.9 30.9,4.9 Z" fill-rule="nonzero"></path>
                    <path d="M40.7,3 C40.1,2.8 39.4,3.1 39.2,3.8 C39,4.4 39.3,5.1 40,5.3 C42.3,6 43.9,8.1 44,10.5 L44,40.7 C44,42.1 43.4,43.5 42.3,44.5 C41.2,45.5 39.8,46.1 38.3,46.1 L8.5,46.1 C7,46.1 5.6,45.5 4.5,44.5 C3.5,43.5 2.9,42.1 2.9,40.7 L2.9,10.4 C3,8.1 4.4,6.2 6.5,5.4 C7.1,5.2 7.4,4.5 7.2,3.9 C6.9,3.3 6.3,3 5.6,3.2 C2.5,4.3 0.5,7.2 0.4,10.4 L0.4,40.7 C0.4,42.8 1.3,44.8 2.8,46.2 C4.3,47.7 6.4,48.5 8.5,48.5 L38.3,48.5 C40.4,48.5 42.5,47.7 44,46.2 C45.5,44.8 46.4,42.8 46.4,40.7 L46.4,10.4 C46.3,7 44,4 40.7,3 Z" fill-rule="nonzero"></path>
                    <path d="M10.1,10.7 C11.5,10.7 12.6,9.6 12.6,8.3 C12.6,7.4 12.1,6.6 11.3,6.2 L11.3,1.6 C11.3,0.9 10.8,0.4 10.1,0.4 C9.4,0.4 8.9,0.9 8.9,1.6 L8.9,6.1 C8.1,6.5 7.6,7.3 7.6,8.2 C7.6,9.6 8.7,10.7 10.1,10.7 Z" fill-rule="nonzero"></path>
                    <path d="M16.2,8.3 C16.2,9.7 17.3,10.8 18.7,10.8 C20.1,10.8 21.2,9.7 21.2,8.3 C21.2,7.4 20.7,6.6 20,6.2 L20,1.6 C20,0.9 19.5,0.4 18.8,0.4 C18.1,0.4 17.6,0.9 17.6,1.6 L17.6,6.1 C16.8,6.6 16.3,7.4 16.2,8.3 Z" fill-rule="nonzero"></path>
                    <path d="M24.9,8.3 C24.9,9.7 26,10.8 27.4,10.8 C28.8,10.8 29.9,9.7 29.9,8.3 C29.9,7.4 29.4,6.6 28.6,6.2 L28.6,1.6 C28.6,0.9 28.1,0.4 27.4,0.4 C26.7,0.4 26.2,0.9 26.2,1.6 L26.2,6.1 C25.4,6.6 24.9,7.4 24.9,8.3 Z" fill-rule="nonzero"></path>
                    <path d="M33.5,8.3 C33.5,9.7 34.6,10.8 36,10.8 C37.4,10.8 38.5,9.7 38.5,8.3 C38.5,7.4 38,6.6 37.2,6.2 L37.2,1.6 C37.2,0.9 36.7,0.4 36,0.4 C35.3,0.4 34.8,0.9 34.8,1.6 L34.8,6.1 C34,6.6 33.5,7.4 33.5,8.3 Z" fill-rule="nonzero"></path>
                </g>
            </g>
        </g>
    </g>
</svg>