<?xml version="1.0" encoding="UTF-8" standalone="no"?>
<svg width="38px" height="37px" viewBox="0 0 38 37" version="1.1" xmlns="http://www.w3.org/2000/svg" xmlns:xlink="http://www.w3.org/1999/xlink">
    <!-- Generator: Sketch 48 (47235) - http://www.bohemiancoding.com/sketch -->
    <title>Close</title>
    <desc>Created with Sketch.</desc>
    <defs></defs>
    <g id="Icons" stroke="none" stroke-width="1" fill="none" fill-rule="evenodd" transform="translate(-975.000000, -183.000000)">
        <g id="Close" transform="translate(962.000000, 169.000000)">
            <rect id="Rectangle-4-Copy-2" x="0" y="0" width="64" height="64"></rect>
            <g id="close" transform="translate(13.000000, 14.000000)" fill="#767676">
                <g id="Shape">
                    <path d="M36.2,1.1 C35.2,3.88578059e-16 33.5,3.88578059e-16 32.4,1 C32.4,1 32.4,1 32.3,1.1 L20.9,12.5 C19.8,13.5 18.2,13.5 17.1,12.5 L5.6,1 C4.5,-0.1 2.8,3.88578059e-16 1.8,1 C1.8,1 1.8,1 1.7,1.1 C0.7,2.2 0.7,3.8 1.8,4.9 L13.3,16.3 C14.4,17.4 14.4,19.1 13.3,20.1 L1.8,31.6 C0.8,32.6 0.7,34.3 1.7,35.4 C2.7,36.5 4.4,36.5 5.5,35.5 C5.5,35.5 5.5,35.5 5.6,35.4 L17.1,23.9 C18.2,22.9 19.8,22.9 20.9,23.9 L32.4,35.4 C33.5,36.5 35.2,36.4 36.2,35.4 C36.2,35.4 36.2,35.4 36.3,35.3 C37.3,34.2 37.3,32.6 36.2,31.5 L24.7,20.1 C23.6,19 23.6,17.3 24.7,16.3 L36.2,4.9 C37.2,3.8 37.2,2.1 36.2,1.1 Z" fill-rule="nonzero"></path>
                </g>
            </g>
        </g>
    </g>
</svg>