<?xml version="1.0" encoding="UTF-8" standalone="no"?>
<svg width="46px" height="47px" viewBox="0 0 46 47" version="1.1" xmlns="http://www.w3.org/2000/svg" xmlns:xlink="http://www.w3.org/1999/xlink">
    <!-- Generator: Sketch 48 (47235) - http://www.bohemiancoding.com/sketch -->
    <title>Cyle</title>
    <desc>Created with Sketch.</desc>
    <defs></defs>
    <g id="Icons" stroke="none" stroke-width="1" fill="none" fill-rule="evenodd" transform="translate(-629.000000, -529.000000)">
        <g id="Cyle" transform="translate(620.000000, 520.000000)">
            <rect id="Rectangle-4-Copy-4" x="0" y="0" width="64" height="64"></rect>
            <g id="cycle" transform="translate(9.000000, 9.000000)" fill="#5D5D5D">
                <g id="Shape">
                    <path d="M16,41.8 C5.7,38.5 0.1,27.4 3.5,17.2 C5,12.6 8.1,8.8 12.2,6.4 L10.5,11.3 C10.3,12 10.6,12.7 11.3,12.9 C11.3,12.9 11.3,12.9 11.3,12.9 C11.4,12.9 11.6,13 11.7,13 C12.3,13 12.8,12.7 13,12.1 L15.8,4.2 C15.9,3.9 15.9,3.5 15.7,3.2 C15.5,2.9 15.2,2.6 14.9,2.6 L6.6,0.5 C5.9,0.3 5.2,0.7 5,1.4 C4.8,2.1 5.2,2.8 5.9,3 C5.9,3 5.9,3 6,3 L11,4.3 C4.2,8.3 0.1,15.5 0,23.4 C0.1,32.9 6.2,41.4 15.2,44.4 C15.3,44.5 15.5,44.5 15.7,44.5 C16.3,44.5 16.8,44.2 17,43.6 C17.1,42.8 16.7,42.1 16,41.8 C16,41.9 16,41.9 16,41.8 Z" fill-rule="nonzero"></path>
                    <path d="M39.8,43.7 L34.6,42.4 C41.5,38.5 45.8,31.1 45.8,23.2 C45.7,13.6 39.6,5.2 30.5,2.1 C29.8,1.9 29.1,2.2 28.8,2.9 C28.6,3.6 28.9,4.3 29.6,4.5 C29.6,4.5 29.6,4.5 29.6,4.5 C39.9,7.9 45.5,19 42.2,29.2 C40.7,33.7 37.7,37.6 33.6,40 L35.2,35.4 C35.4,34.7 35.1,34 34.4,33.8 C34.4,33.8 34.4,33.8 34.4,33.8 C33.7,33.6 33,33.9 32.7,34.6 L29.9,42.5 C29.8,42.8 29.8,43.2 30,43.5 C30.2,43.8 30.5,44.1 30.8,44.1 L39.1,46.2 C39.2,46.2 39.3,46.2 39.4,46.2 C40,46.2 40.5,45.8 40.7,45.2 C40.9,44.5 40.5,43.9 39.8,43.7 Z" fill-rule="nonzero"></path>
                </g>
            </g>
        </g>
    </g>
</svg>