<?xml version="1.0" encoding="UTF-8" standalone="no"?>
<svg width="49px" height="49px" viewBox="0 0 49 49" version="1.1" xmlns="http://www.w3.org/2000/svg" xmlns:xlink="http://www.w3.org/1999/xlink">
    <!-- Generator: Sketch 48 (47235) - http://www.bohemiancoding.com/sketch -->
    <title>Discussion</title>
    <desc>Created with Sketch.</desc>
    <defs></defs>
    <g id="Icons" stroke="none" stroke-width="1" fill="none" fill-rule="evenodd" transform="translate(-857.000000, -527.000000)">
        <g id="Discussion" transform="translate(849.000000, 520.000000)">
            <rect id="Rectangle-4-Copy-6" x="0" y="0" width="64" height="64"></rect>
            <g id="chat_people" transform="translate(8.000000, 7.000000)">
                <g id="Shape">
                    <path d="M48.5,44.8 L48.4,44.4 C48,42.6 46.3,37 45.1,35.4 C43.5,32.7 39.8,32.6 39,32.6 L36,32.6 C33.9,32.6 31.9,33.6 30.7,35.3 C30.6,35.5 30.5,35.6 30.4,35.8 C30.1,36.3 30.3,36.9 30.8,37.2 C31,37.3 31.3,37.3 31.6,37.3 C31.9,37.2 32.1,37 32.2,36.8 C32.2,36.7 32.3,36.6 32.4,36.5 C33.2,35.3 34.6,34.7 36,34.6 L39.1,34.6 C39.3,34.6 42.4,34.6 43.4,36.4 L43.5,36.5 C44.3,37.5 45.8,42.1 46.4,44.7 L46.5,45.1 C46.5,45.2 46.5,45.3 46.5,45.3 C46.4,45.4 46.3,45.4 46.2,45.4 L35.4,45.5 C35.1,45.5 34.9,45.6 34.7,45.8 C34.3,46.2 34.3,46.8 34.6,47.2 C34.8,47.4 35.1,47.5 35.4,47.5 L46.2,47.4 C46.9,47.4 47.6,47.1 48.1,46.5 C48.5,46.2 48.7,45.5 48.5,44.8 Z" fill="#545454" fill-rule="nonzero"></path>
                    <path d="M31.4,44 C30.7,41.3 28.3,32.9 26.4,30.5 C25.2,28.6 23.3,27.3 21.1,26.9 C19.9,26.6 18.7,26.5 17.5,26.5 L12.9,26.5 C9.8,26.5 6.9,28 5.1,30.5 C3.5,32.8 1.4,41.2 0.8,43.9 C0.7,44.4 0.6,44.8 0.6,44.9 C0.4,45.8 0.6,46.8 1.1,47.6 C1.7,48.4 2.7,48.8 3.6,48.8 L28.4,48.5 C29.4,48.5 30.3,48.1 30.9,47.3 C31.5,46.5 31.6,45.5 31.4,44.6 L31.4,44 Z M3.7,46.4 C3.4,46.4 3.2,46.3 3,46.1 C2.9,45.9 2.8,45.6 2.9,45.4 L2.9,45.3 C2.9,45 3,44.8 3.1,44.5 C4,40.3 5.9,33.5 7,31.9 C8.3,30 10.5,28.9 12.8,28.9 L12.9,28.9 L17.6,28.9 C17.6,28.9 22.7,28.7 24.5,31.8 L24.6,32 C25.9,33.6 28.3,41.1 29.2,44.6 L29.3,45.1 L29.3,45.2 C29.4,45.4 29.4,45.7 29.2,45.9 C29,46.1 28.8,46.2 28.5,46.2 L3.7,46.4 Z" fill="#545454" fill-rule="nonzero"></path>
                    <path d="M15.7,25.3 L15.8,25.3 C21.8,25.1 26.4,20.1 26.2,14.1 C26,8.4 21.4,3.8 15.7,3.7 L15.6,3.7 C9.6,3.9 5,8.9 5.2,14.9 C5.4,20.6 10,25.1 15.7,25.3 Z M15.7,6 C20.4,6 24.2,9.7 24.2,14.4 C24.2,19.1 20.5,22.9 15.8,22.9 L15.7,22.9 C11,22.9 7.2,19.2 7.2,14.5 C7.2,9.8 11,6 15.7,6 Z" fill="#545454" fill-rule="nonzero"></path>
                    <path d="M37.3,18.4 C33.6,18.6 30.7,21.7 30.9,25.3 C31.1,28.8 33.8,31.5 37.3,31.6 L37.4,31.6 C41.1,31.6 44,28.6 43.9,24.9 C43.8,21.3 40.9,18.4 37.3,18.4 Z M42.2,24.9 C42.2,27.6 40.1,29.8 37.4,29.8 L37.3,29.8 C34.6,29.7 32.5,27.4 32.6,24.7 C32.7,22.2 34.7,20.1 37.2,20 L37.3,20 C39.9,20.1 42.1,22.3 42.2,24.9 Z" fill="#5D5D5D" fill-rule="nonzero"></path>
                    <path d="M45.7,0.7 L32.4,0.7 C31.5,0.7 30.8,1.4 30.8,2.3 L30.8,11.3 C30.8,12.2 31.5,12.9 32.4,12.9 L33.6,12.9 L33.6,16.7 C33.6,17 33.8,17.3 34.1,17.4 C34.2,17.4 34.3,17.5 34.4,17.5 C34.6,17.5 34.8,17.4 34.9,17.3 L39.7,13 L45.6,13 C46.5,13 47.2,12.3 47.2,11.4 L47.2,2.4 C47.3,1.5 46.6,0.8 45.7,0.7 Z M34.5,11.4 L32.5,11.4 L32.5,2.4 C32.5,2.4 32.5,2.4 32.5,2.3 L45.7,2.3 C45.7,2.3 45.8,2.3 45.8,2.4 L45.8,11.4 C45.8,11.4 45.8,11.5 45.7,11.4 L39.6,11.4 C39.4,11.4 39.2,11.5 39.1,11.6 L35.2,15 L35.2,12.2 C35.2,11.8 34.9,11.4 34.5,11.4 Z" fill="#5D5D5D" fill-rule="nonzero"></path>
                </g>
            </g>
        </g>
    </g>
</svg>