<?xml version="1.0" encoding="UTF-8" standalone="no"?>
<svg width="53px" height="49px" viewBox="0 0 53 49" version="1.1" xmlns="http://www.w3.org/2000/svg" xmlns:xlink="http://www.w3.org/1999/xlink">
    <!-- Generator: Sketch 48 (47235) - http://www.bohemiancoding.com/sketch -->
    <title>Flow diagram</title>
    <desc>Created with Sketch.</desc>
    <defs></defs>
    <g id="Icons" stroke="none" stroke-width="1" fill="none" fill-rule="evenodd" transform="translate(-626.000000, -756.000000)">
        <g id="Flow-diagram" transform="translate(620.000000, 748.000000)">
            <rect id="Rectangle-4-Copy-25" x="0" y="0" width="64" height="64"></rect>
            <g id="icon4" transform="translate(6.000000, 8.000000)" fill="#5D5D5D">
                <g id="Shape">
                    <path d="M50.3,36.9 L42.7,36.9 C41.4,36.9 40.3,37.9 40.3,39.2 L40.3,46.5 C40.3,47.8 41.4,48.9 42.7,48.8 L50.3,48.8 C51.6,48.8 52.7,47.8 52.7,46.5 L52.7,39.2 C52.7,37.9 51.6,36.8 50.3,36.9 Z M49.9,46.2 L43,46.2 L43,39.6 L49.9,39.6 L49.9,46.2 Z" fill-rule="nonzero"></path>
                    <path d="M30.6,36.9 L23,36.9 C21.7,36.9 20.6,37.9 20.6,39.2 L20.6,46.5 C20.6,47.8 21.7,48.9 23,48.9 L30.6,48.9 C31.9,48.9 33,47.9 33,46.5 L33,39.2 C33,37.9 31.9,36.8 30.6,36.9 Z M30.2,46.2 L23.3,46.2 L23.3,39.6 L30.2,39.6 L30.2,46.2 Z" fill-rule="nonzero"></path>
                    <path d="M10.8,36.9 L3.2,36.9 C1.9,36.9 0.8,37.9 0.8,39.2 L0.8,46.5 C0.8,47.8 1.9,48.9 3.2,48.8 L10.8,48.8 C12.1,48.8 13.2,47.8 13.2,46.5 L13.2,39.2 C13.2,37.9 12.1,36.8 10.8,36.9 Z M10.4,46.2 L3.5,46.2 L3.5,39.6 L10.4,39.6 L10.4,46.2 Z" fill-rule="nonzero"></path>
                    <path d="M21.1,16.4 L32.3,16.4 C33.6,16.4 34.7,15.4 34.7,14 L34.7,3.2 C34.7,1.9 33.6,0.8 32.3,0.8 L21.1,0.8 C19.8,0.8 18.7,1.8 18.7,3.1 L18.7,13.9 C18.7,15.4 19.8,16.4 21.1,16.4 Z M21.5,3.6 L32,3.6 L32,13.7 L21.5,13.7 L21.5,3.6 Z" fill-rule="nonzero"></path>
                    <path d="M7.1,35.5 C7.9,35.5 8.5,34.9 8.5,34.2 L8.5,28.3 L25.4,28.3 L25.4,34.2 C25.4,35 26,35.6 26.8,35.6 C27.6,35.6 28.2,35 28.2,34.2 L28.2,28.3 L45,28.3 L45,34 C45,34.8 45.6,35.4 46.4,35.4 C47.2,35.4 47.8,34.8 47.8,34 L47.8,27 C47.8,26.2 47.2,25.6 46.4,25.7 L28.1,25.7 L28.1,18.5 C28.1,17.7 27.5,17.1 26.7,17.1 C25.9,17.1 25.3,17.7 25.3,18.5 L25.3,25.7 L7.1,25.7 C6.3,25.7 5.7,26.3 5.7,27 L5.7,34.2 C5.7,34.9 6.3,35.5 7.1,35.5 Z" fill-rule="nonzero"></path>
                </g>
            </g>
        </g>
    </g>
</svg>