<?xml version="1.0" encoding="UTF-8" standalone="no"?>
<svg width="49px" height="49px" viewBox="0 0 49 49" version="1.1" xmlns="http://www.w3.org/2000/svg" xmlns:xlink="http://www.w3.org/1999/xlink">
    <!-- Generator: Sketch 48 (47235) - http://www.bohemiancoding.com/sketch -->
    <title>Green tick</title>
    <desc>Created with Sketch.</desc>
    <defs></defs>
    <g id="Icons" stroke="none" stroke-width="1" fill="none" fill-rule="evenodd" transform="translate(-627.000000, -407.000000)">
        <g id="Green-tick" transform="translate(619.000000, 399.000000)">
            <rect id="Rectangle-4-Copy-16" x="0" y="0" width="64" height="64"></rect>
            <g id="tick_green" transform="translate(8.000000, 8.000000)">
                <g id="Shape">
                    <path d="M24.3,0.4 C37.6,0.4 48.3,11.1 48.3,24.4 C48.3,37.7 37.6,48.4 24.3,48.4 C11,48.4 0.3,37.7 0.3,24.4 C0.3,11.2 11.1,0.4 24.3,0.4 Z" fill="#3CE19D" fill-rule="nonzero"></path>
                    <path d="M19.8,27.5 L16.5,24.2 C15.9,23.6 15,23.6 14.4,24.2 C13.8,24.8 13.8,25.7 14.4,26.3 L19.8,31.7 C20.4,32.3 21.3,32.3 21.9,31.7 L34.3,19.3 C34.9,18.7 34.9,17.8 34.3,17.2 C33.7,16.6 32.8,16.6 32.2,17.2 L21.9,27.5 C21.3,28 20.4,28 19.8,27.5 Z" fill="#FFFFFF" fill-rule="nonzero"></path>
                </g>
            </g>
        </g>
    </g>
</svg>