<?xml version="1.0" encoding="UTF-8" standalone="no"?>
<svg width="49px" height="43px" viewBox="0 0 49 43" version="1.1" xmlns="http://www.w3.org/2000/svg" xmlns:xlink="http://www.w3.org/1999/xlink">
    <!-- Generator: Sketch 48 (47235) - http://www.bohemiancoding.com/sketch -->
    <title>Image</title>
    <desc>Created with Sketch.</desc>
    <defs></defs>
    <g id="Icons" stroke="none" stroke-width="1" fill="none" fill-rule="evenodd" transform="translate(-856.000000, -759.000000)">
        <g id="Image" transform="translate(849.000000, 748.000000)">
            <rect id="Rectangle-4-Copy-27" x="0" y="0" width="64" height="64"></rect>
            <g id="img" transform="translate(7.000000, 11.000000)" fill="#545454">
                <g id="Shape">
                    <path d="M48.5,10.5 C48.3,10.3 48,10.1 47.7,10.1 L47.2,10 L47.2,8.8 C47.2,8.2 46.7,7.6 46,7.6 L27.1,7.6 C26.6,7.6 26.2,7.9 26,8.3 L26,7.8 C27.5,7.3 28.5,6 28.5,4.4 C28.5,2.4 26.9,0.8 24.8,0.8 C22.8,0.8 21.2,2.4 21.2,4.4 C21.2,5.9 22.2,7.3 23.7,7.8 L23.7,8.4 C23.7,8.3 23.6,8.3 23.6,8.2 C23.6,8.1 23.5,8.1 23.5,8 L23.3,7.9 C23.2,7.8 23.2,7.8 23.1,7.8 C23,7.8 22.9,7.7 22.9,7.7 L5.7,5.4 C5.1,5.3 4.4,5.7 4.3,6.4 L4.2,7.6 L3.7,7.6 C3,7.6 2.5,8.1 2.5,8.8 L2.5,22.8 L0.9,36.8 C0.9,37.1 1,37.4 1.1,37.7 C1.3,37.9 1.6,38.1 1.9,38.1 L2.4,38.2 L2.4,39.4 C2.4,39.5 2.4,39.5 2.4,39.6 L2.4,39.7 C2.4,39.8 2.4,39.8 2.5,39.9 C2.5,39.9 2.5,40 2.6,40 L2.7,40.1 L2.8,40.2 C2.9,40.3 2.9,40.3 3,40.3 L3.1,40.4 C3.2,40.5 3.4,40.5 3.5,40.5 L23.9,40.5 L44,42.8 L44.1,42.8 C44.7,42.8 45.2,42.4 45.3,41.8 L45.4,40.6 L46,40.6 C46.7,40.6 47.2,40.1 47.2,39.4 L47.2,25.4 L48.8,11.4 C48.8,11.1 48.7,10.8 48.5,10.5 Z M44.8,36.2 L44.8,38.2 L39.3,38.2 L27.5,26.5 L31.2,22.9 L44.8,36.2 Z M35.9,38.2 L6.2,38.2 L20.3,22.6 L35.9,38.2 Z M23.5,4.4 C23.5,3.7 24,3.1 24.7,3.1 C25.4,3.1 26,3.6 26,4.3 C26,5 25.5,5.6 24.8,5.6 C24.1,5.6 23.5,5.1 23.5,4.4 Z M23.5,9.3 L23.5,13 C23.5,13.7 24.1,14.2 24.7,14.2 C25.4,14.2 25.9,13.6 25.9,13 L25.9,9.3 C26.1,9.7 26.5,10 27,10 L44.7,10 L44.7,32.9 L32,20.3 C31.5,19.8 30.8,19.8 30.3,20.3 L25.8,24.7 L21.1,20 C20.6,19.5 19.9,19.5 19.4,20 L4.8,36.3 L4.8,10 L22.5,10 C22.7,10 22.8,10 22.9,9.9 C22.9,9.9 23,9.9 23,9.8 C23.1,9.8 23.2,9.7 23.2,9.6 L23.3,9.5 C23.5,9.5 23.5,9.4 23.5,9.3 Z" fill-rule="nonzero"></path>
                </g>
            </g>
        </g>
    </g>
</svg>