<?xml version="1.0" encoding="UTF-8" standalone="no"?>
<svg width="33px" height="50px" viewBox="0 0 33 50" version="1.1" xmlns="http://www.w3.org/2000/svg" xmlns:xlink="http://www.w3.org/1999/xlink">
    <!-- Generator: Sketch 48 (47235) - http://www.bohemiancoding.com/sketch -->
    <title>Label</title>
    <desc>Created with Sketch.</desc>
    <defs></defs>
    <g id="Icons" stroke="none" stroke-width="1" fill="none" fill-rule="evenodd" transform="translate(-1092.000000, -756.000000)">
        <g id="Label" transform="translate(1076.000000, 749.000000)">
            <rect id="Rectangle-4-Copy-29" x="0" y="0" width="64" height="64"></rect>
            <g id="label" transform="translate(16.000000, 7.000000)" fill="#5D5D5D">
                <g id="Shape">
                    <path d="M31.4,0.2 L8.4,0.2 C8.3,0.2 0.3,0.5 0.3,11.6 L0.3,47.7 C0.3,48.6 1,49.2 1.8,49.3 C2.1,49.3 2.4,49.2 2.7,49 L12.2,42.7 L14.5,42.7 L24,49 C24.3,49.2 24.5,49.3 24.8,49.3 C25.1,49.3 25.3,49.2 25.5,49.1 C26,48.8 26.3,48.3 26.3,47.8 L26.3,11.6 C26.3,3.6 31.2,3.3 31.4,3.3 C32.2,3.2 32.9,2.5 32.8,1.6 C32.8,0.9 32.2,0.3 31.4,0.2 Z M25.8,3.3 C24.7,4.7 23.4,7.3 23.4,11.6 L23.4,44.8 L15.9,39.8 C15.6,39.6 15.4,39.5 15.1,39.5 L11.8,39.5 C11.5,39.5 11.2,39.6 10.9,39.8 L3.4,44.8 L3.4,11.6 C3.4,3.6 8.2,3.3 8.4,3.3 L25.8,3.3 Z" fill-rule="nonzero"></path>
                </g>
            </g>
        </g>
    </g>
</svg>