<?xml version="1.0" encoding="UTF-8" standalone="no"?>
<svg width="49px" height="49px" viewBox="0 0 49 49" version="1.1" xmlns="http://www.w3.org/2000/svg" xmlns:xlink="http://www.w3.org/1999/xlink">
    <!-- Generator: Sketch 48 (47235) - http://www.bohemiancoding.com/sketch -->
    <title>Like</title>
    <desc>Created with Sketch.</desc>
    <defs></defs>
    <g id="Icons" stroke="none" stroke-width="1" fill="none" fill-rule="evenodd" transform="translate(-857.000000, -869.000000)">
        <g id="Like" transform="translate(849.000000, 862.000000)">
            <rect id="Rectangle-4-Copy-33" x="0" y="0" width="64" height="64"></rect>
            <g id="like1" transform="translate(8.000000, 7.000000)" fill="#5D5D5D">
                <g id="Shape">
                    <path d="M46.8,24.5 C48.2,22.9 48.2,20.5 46.7,19 C45.9,18.3 44.8,17.9 43.7,17.9 L37,17.9 C36.8,16.5 37,15 37.7,13.8 C38.4,12.4 38.4,9.9 37.7,7.4 C37.2,5.2 36.1,3.2 34.6,1.5 L34.4,1.3 C33.5,0.6 32.4,0.3 31.3,0.4 C30.3,0.6 29.4,1.3 28.8,2.2 C28.6,2.4 28.6,2.7 28.6,3 L28.6,8.6 C28.5,9.6 28.2,10.5 27.8,11.4 C27.4,12.1 25.5,15.3 23.8,17.9 C23.1,19.1 22.2,20.3 21.4,21.4 C20.7,21.9 19.7,22.2 18.8,22 C18.5,22 18.1,22.1 17.9,22.3 C17.9,21.6 17.6,20.9 17.2,20.4 C16.6,19.6 15.6,19.2 14.5,19.2 L5.4,19.2 C4.1,19.1 2.8,19.5 1.9,20.4 C0.9,21.4 0.4,22.8 0.6,24.2 C0.9,27.9 1.9,42 1.9,43 C1.8,45.9 4.1,48.3 7,48.3 C7.1,48.3 7.2,48.3 7.3,48.3 L15,48.3 C15.7,48.3 16.4,48 16.9,47.5 C17.6,46.8 17.9,45.9 17.8,44.9 L17.8,44 C18,44.2 18.2,44.3 18.5,44.3 L18.7,44.4 C20.9,45.6 23.3,46.2 25.8,46.2 L26.7,46.2 C31.3,46.2 35.8,45.7 40.3,44.7 L40.4,44.7 C41.4,44.4 42.4,44 43.3,43.4 C43.9,43 44.4,42.5 44.8,41.9 C45.2,41.3 45.4,40.5 45.4,39.8 C45.4,39 45.3,38.3 44.9,37.6 C46.1,36.9 46.9,35.5 46.8,34.1 C46.8,33.5 46.6,32.9 46.3,32.3 C47.6,31.6 48.4,30.4 48.6,29 C48.8,27.2 48.1,25.6 46.8,24.5 Z M14.9,22.8 C14.9,22.9 14.9,23 14.9,23.2 L14.9,45 C14.9,45.1 14.9,45.2 14.9,45.3 L7.3,45.3 C6.1,45.4 5,44.5 4.9,43.2 C4.9,43.1 4.9,43 4.9,42.8 C4.9,42.8 4.9,42.7 4.9,42.7 C4.9,42.7 3.9,27.7 3.6,23.9 C3.5,23.4 3.6,22.8 4,22.4 C4.3,22.1 4.8,22 5.2,22 L14.6,22 C14.8,22 14.9,22 14.9,22 C14.9,22.3 14.9,22.6 14.9,22.8 Z M45.7,28.6 C45.6,29.5 44.5,29.9 43.6,30.1 C42.8,30.2 42.1,30.9 42.1,31.8 C42.1,32.7 42.7,33.4 43.6,33.6 C43.8,33.8 43.9,34.1 43.9,34.4 C43.8,35 42.9,35.4 42.6,35.5 L42.5,35.5 C41.8,35.7 41.2,36.2 41.1,37 C40.9,37.8 41.3,38.7 42.1,39 C42.4,39.2 42.5,39.2 42.5,39.9 C42.5,40.1 42.4,40.3 42.3,40.5 C42.1,40.8 41.8,41 41.6,41.2 C41,41.5 40.4,41.8 39.8,42 L39.7,42 C35.1,43 30.5,43.5 25.8,43.5 C23.8,43.5 21.8,43.1 20,42.1 C19.4,41.7 18.7,41.6 18,41.9 C17.9,41.9 17.8,42 17.7,42.1 L17.7,24.6 C17.9,24.8 18.3,24.9 18.6,25 C19.8,25 22.1,24.9 23.5,23.4 C24.5,22.2 25.4,20.9 26.2,19.5 C27.9,16.9 29.9,13.7 30.3,12.9 C30.9,11.7 31.3,10.3 31.5,9 C31.5,8.9 31.5,8.8 31.5,8.6 L31.5,3.6 C31.6,3.5 31.7,3.5 31.7,3.5 C32,3.5 32.2,3.6 32.5,3.7 C33.6,5 34.4,6.5 34.8,8.2 C35.3,9.6 35.4,11.1 35,12.5 C33.9,14.5 33.6,16.8 34.1,18.9 C34.4,20.1 35.5,20.9 36.7,20.9 L43.6,20.9 C44,20.9 44.3,21 44.6,21.2 C44.7,21.4 44.8,21.6 44.8,21.9 C44.8,22.5 44.5,22.7 43.4,23.1 L43.2,23.2 C42.5,23.4 42,24.1 42,24.9 C42.1,26.1 43.2,26.4 43.8,26.5 C44.2,26.6 44.6,26.7 44.9,26.8 C45.4,27.2 45.7,27.9 45.7,28.6 Z" fill-rule="nonzero"></path>
                </g>
            </g>
        </g>
    </g>
</svg>