<?xml version="1.0" encoding="UTF-8" standalone="no"?>
<svg width="45px" height="53px" viewBox="0 0 45 53" version="1.1" xmlns="http://www.w3.org/2000/svg" xmlns:xlink="http://www.w3.org/1999/xlink">
    <!-- Generator: Sketch 48 (47235) - http://www.bohemiancoding.com/sketch -->
    <title>Lock</title>
    <desc>Created with Sketch.</desc>
    <defs></defs>
    <g id="Icons" stroke="none" stroke-width="1" fill="none" fill-rule="evenodd" transform="translate(-972.000000, -869.000000)">
        <g id="Lock" transform="translate(962.000000, 863.000000)">
            <rect id="Rectangle-4-Copy-34" x="0" y="0" width="64" height="64"></rect>
            <g id="lock" transform="translate(10.000000, 6.000000)" fill="#5D5D5D">
                <g id="Shape">
                    <path d="M39.2,17.7 C38.4,9.2 31.5,0.2 22.5,0.2 C13.5,0.2 6.5,9.2 5.8,17.8 C2.7,18.7 0.5,21.6 0.5,24.8 L0.5,44.8 C0.5,48.9 3.8,52.2 7.9,52.2 L37.1,52.2 C41.2,52.2 44.5,48.9 44.5,44.8 L44.5,24.8 C44.5,21.4 42.4,18.6 39.2,17.7 Z M22.5,3.2 C29.7,3.2 35.3,10.4 36.2,17.4 L11.7,17.3 L8.9,17.3 C9.8,10.4 15.4,3.2 22.5,3.2 Z M41.5,44.7 C41.5,47.1 39.5,49.1 37.1,49.1 L7.9,49.1 C5.5,49.1 3.5,47.1 3.5,44.7 L3.5,24.7 C3.5,22.6 5,20.9 7,20.5 L7.1,20.5 C7.7,20.5 9.9,20.4 11.7,20.4 L37.7,20.5 C39.8,20.8 41.4,22.6 41.5,24.8 L41.5,44.7 Z" fill-rule="nonzero"></path>
                    <path d="M22.5,28.3 C20.5,28.2 18.8,29.8 18.8,31.8 C18.7,33.4 19.7,34.8 21.2,35.3 L21.2,40.3 C21.2,41 21.8,41.6 22.5,41.6 C23.2,41.6 23.8,41 23.8,40.3 L23.8,35.3 C25.7,34.7 26.7,32.6 26,30.7 C25.6,29.2 24.1,28.3 22.5,28.3 Z" fill-rule="nonzero"></path>
                </g>
            </g>
        </g>
    </g>
</svg>