<?xml version="1.0" encoding="UTF-8" standalone="no"?>
<svg width="40px" height="42px" viewBox="0 0 40 42" version="1.1" xmlns="http://www.w3.org/2000/svg" xmlns:xlink="http://www.w3.org/1999/xlink">
    <!-- Generator: Sketch 48 (47235) - http://www.bohemiancoding.com/sketch -->
    <title>Menu</title>
    <desc>Created with Sketch.</desc>
    <defs></defs>
    <g id="Icons" stroke="none" stroke-width="1" fill="none" fill-rule="evenodd" transform="translate(-1088.000000, -179.000000)">
        <g id="Menu" transform="translate(1076.000000, 169.000000)">
            <rect id="Rectangle-4-Copy-10" x="0" y="0" width="64" height="64"></rect>
            <g id="menu" transform="translate(12.000000, 10.000000)">
                <g>
                    <g id="Group">
                        <path d="M37.5,0.5 L2.5,0.5 C1.1,0.5 0,1.6 0,3 C0,4.4 1.1,5.5 2.5,5.5 L37.5,5.5 C38.9,5.5 40,4.4 40,3 C40,1.6 38.9,0.5 37.5,0.5 Z" id="SVGID_1_" fill="#545454" fill-rule="nonzero"></path>
                        <path d="M37.5,0.5 L2.5,0.5 C1.1,0.5 0,1.6 0,3 C0,4.4 1.1,5.5 2.5,5.5 L37.5,5.5 C38.9,5.5 40,4.4 40,3 C40,1.6 38.9,0.5 37.5,0.5 Z" id="Shape"></path>
                    </g>
                    <path d="M37.5,18.5 L2.5,18.5 C1.1,18.5 0,19.6 0,21 C0,22.4 1.1,23.5 2.5,23.5 L37.5,23.5 C38.9,23.5 40,22.4 40,21 C40,19.6 38.9,18.5 37.5,18.5 Z" id="SVGID_5_" fill="#545454" fill-rule="nonzero"></path>
                    <path d="M37.5,36.5 L2.5,36.5 C1.1,36.5 0,37.6 0,39 C0,40.4 1.1,41.5 2.5,41.5 L37.5,41.5 C38.9,41.5 40,40.4 40,39 C40,37.6 38.9,36.5 37.5,36.5 Z" id="SVGID_9_" fill="#545454" fill-rule="nonzero"></path>
                </g>
            </g>
        </g>
    </g>
</svg>