<?xml version="1.0" encoding="UTF-8" standalone="no"?>
<svg width="51px" height="55px" viewBox="0 0 51 55" version="1.1" xmlns="http://www.w3.org/2000/svg" xmlns:xlink="http://www.w3.org/1999/xlink">
    <!-- Generator: Sketch 48 (47235) - http://www.bohemiancoding.com/sketch -->
    <title>Note pen</title>
    <desc>Created with Sketch.</desc>
    <defs></defs>
    <g id="Icons" stroke="none" stroke-width="1" fill="none" fill-rule="evenodd" transform="translate(-856.000000, -982.000000)">
        <g id="Note-pen" transform="translate(849.000000, 977.000000)">
            <rect id="Rectangle-4-Copy-39" x="0" y="0" width="64" height="64"></rect>
            <g id="notepen" transform="translate(7.000000, 5.000000)" fill="#545454">
                <g id="Shape">
                    <path d="M37.2,32.1 C36.5,32.1 36,32.6 36,33.2 C36,33.2 36,33.2 36,33.2 L36,51.2 C36,51.7 35.6,52 35.2,52 L3.9,52 C3.4,52 3.1,51.6 3.1,51.2 C3.1,51.2 3.1,51.2 3.1,51.2 L3.1,22.9 L11.7,22.9 C14.6,22.9 17.9,20.7 17.9,17.7 L17.9,8.1 L31.4,8.1 C32.1,8.1 32.6,7.6 32.6,6.9 C32.6,6.2 32.1,5.7 31.4,5.7 C31.4,5.7 31.4,5.7 31.4,5.7 L16.6,5.7 C16.3,5.7 16,5.8 15.7,6.1 L1,21 C0.8,21.2 0.7,21.5 0.7,21.8 L0.7,51.3 C0.7,53.1 2.2,54.5 3.9,54.5 L35.2,54.5 C37,54.5 38.4,53.1 38.4,51.3 C38.4,51.3 38.4,51.3 38.4,51.3 L38.4,33.3 C38.5,32.7 37.9,32.1 37.2,32.1 C37.3,32.1 37.2,32.1 37.2,32.1 Z M11.7,20.5 L4.8,20.5 L15.5,9.6 L15.5,17.6 C15.5,19.3 13.5,20.5 11.7,20.5 Z" fill-rule="nonzero"></path>
                    <path d="M27.7,13.5 C27.7,12.8 27.2,12.3 26.5,12.3 L20.2,12.3 C19.5,12.3 19,12.8 19,13.5 C19,14.2 19.5,14.7 20.2,14.7 L26.5,14.7 C27.1,14.6 27.7,14.1 27.7,13.5 Z" fill-rule="nonzero"></path>
                    <path d="M21.9,20.3 L18.9,20.3 C18.2,20.3 17.7,20.8 17.7,21.5 C17.7,22.2 18.2,22.7 18.9,22.7 L21.9,22.7 C22.6,22.7 23.1,22.2 23.1,21.5 C23.1,20.8 22.6,20.3 21.9,20.3 Z" fill-rule="nonzero"></path>
                    <path d="M8.2,30.6 L19.4,30.6 C20.1,30.6 20.6,30.1 20.6,29.4 C20.6,28.7 20.1,28.2 19.4,28.2 L8.2,28.2 C7.5,28.2 7,28.7 7,29.4 C7,30.1 7.5,30.6 8.2,30.6 Z" fill-rule="nonzero"></path>
                    <path d="M30.9,36.3 L8.2,36.3 C7.5,36.3 7,36.8 7,37.5 C7,38.2 7.5,38.7 8.2,38.7 L30.9,38.7 C31.6,38.7 32.1,38.2 32.1,37.5 C32.1,36.8 31.5,36.3 30.9,36.3 Z" fill-rule="nonzero"></path>
                    <path d="M30.9,44.3 L8.2,44.3 C7.5,44.3 7,44.8 7,45.5 C7,46.2 7.5,46.7 8.2,46.7 L30.9,46.7 C31.6,46.7 32.1,46.2 32.1,45.5 C32.1,44.8 31.5,44.3 30.9,44.3 Z" fill-rule="nonzero"></path>
                    <path d="M50.6,7 C50.2,5.5 48.7,4.2 45.6,2.4 C43.7,1.3 39.2,-1.2 37,2.4 L28,17.2 L26,20.5 L25.9,20.9 L25.9,21 C25.9,21.6 25.8,25.1 25.8,27 C25.8,33.6 25.8,33.6 26.7,33.9 C26.8,33.9 27,34 27.1,34 C27.3,34 27.5,34 27.6,33.9 L38.8,28.4 C38.9,28.4 38.9,28.3 39,28.3 L39.1,28.3 L41.7,24 L50,9.9 C50.6,9 50.8,8 50.6,7 Z M31.2,29.5 C30.4,28.7 29.4,28.2 28.3,28 C28.3,25.9 28.3,23.5 28.3,22.2 C29,22.4 29.6,22.9 29.9,23.6 C30.1,24.1 30.5,24.3 31,24.3 C32.1,24.3 33,24.9 33.5,25.8 C33.7,26.3 34.3,26.6 34.8,26.5 C35.4,26.5 35.9,26.6 36.4,27 L31.2,29.5 Z M38.2,25.4 C37.4,24.7 36.4,24.3 35.3,24.2 C34.4,23 33.2,22.2 31.7,22 C31.1,21 30.2,20.3 29.1,20 L37.7,5.6 C39.5,5.9 41.2,6.5 42.7,7.4 C44.2,8.2 45.6,9.4 46.7,10.7 L38.2,25.4 Z M48.1,8.5 C46.9,7.2 45.5,6.2 44,5.3 C42.5,4.4 40.9,3.8 39.2,3.4 C39.6,2.8 40.5,2.2 44.5,4.4 C46.9,5.8 48.2,6.8 48.4,7.6 C48.4,7.9 48.3,8.3 48.1,8.5 Z" fill-rule="nonzero"></path>
                </g>
            </g>
        </g>
    </g>
</svg>