<?xml version="1.0" encoding="UTF-8" standalone="no"?>
<svg width="39px" height="47px" viewBox="0 0 39 47" version="1.1" xmlns="http://www.w3.org/2000/svg" xmlns:xlink="http://www.w3.org/1999/xlink">
    <!-- Generator: Sketch 48 (47235) - http://www.bohemiancoding.com/sketch -->
    <title>Notification</title>
    <desc>Created with Sketch.</desc>
    <defs>
        <polygon id="path-1" points="0 0 38.9996 0 38.9996 47 0 47"></polygon>
    </defs>
    <g id="Icons" stroke="none" stroke-width="1" fill="none" fill-rule="evenodd" transform="translate(-632.000000, -1214.000000)">
        <g id="Notification" transform="translate(619.000000, 1205.000000)">
            <rect id="Rectangle-4-Copy-51" x="0" y="0" width="64" height="64"></rect>
            <g transform="translate(13.000000, 9.000000)" id="Page-1">
                <g>
                    <mask id="mask-2" fill="white">
                        <use xlink:href="#path-1"></use>
                    </mask>
                    <g id="Clip-2"></g>
                    <path d="M7.5166,38 C8.4736,36.735 9.0416,35.16 9.0416,33.454 L8.9996,21.5 C8.9996,15.71 13.7096,11 19.4996,11 C25.2896,11 29.9996,15.71 29.9996,21.495 L29.9576,33.459 C29.9576,35.162 30.5266,36.736 31.4826,38 L7.5166,38 Z M19.4996,44 C17.5466,44 15.8976,42.742 15.2766,41 L23.7236,41 C23.1026,42.742 21.4526,44 19.4996,44 Z M16.9996,5.5 C16.9996,4.121 18.1206,3 19.4996,3 C20.8786,3 21.9996,4.121 21.9996,5.5 C21.9996,6.879 20.8786,8 19.4996,8 C18.1206,8 16.9996,6.879 16.9996,5.5 Z M37.4996,38 C34.9956,38 32.9576,35.963 32.9576,33.464 L32.9996,21.5 C32.9996,15.605 29.1966,10.595 23.9206,8.758 C24.5956,7.845 24.9996,6.72 24.9996,5.5 C24.9996,2.468 22.5326,0 19.4996,0 C16.4676,0 13.9996,2.468 13.9996,5.5 C13.9996,6.72 14.4046,7.845 15.0796,8.758 C9.8026,10.595 5.9996,15.606 5.9996,21.505 L6.0416,33.459 C6.0416,35.963 4.0046,38 1.4996,38 C0.6716,38 -0.0004,38.672 -0.0004,39.5 C-0.0004,40.328 0.6716,41 1.4996,41 L12.1516,41 C12.8476,44.419 15.8776,47 19.4996,47 C23.1226,47 26.1516,44.419 26.8486,41 L37.4996,41 C38.3286,41 38.9996,40.328 38.9996,39.5 C38.9996,38.672 38.3286,38 37.4996,38 Z" id="Fill-1" fill="#5D5D5D" mask="url(#mask-2)"></path>
                </g>
            </g>
        </g>
    </g>
</svg>