<?xml version="1.0" encoding="UTF-8" standalone="no"?>
<svg width="37px" height="48px" viewBox="0 0 37 48" version="1.1" xmlns="http://www.w3.org/2000/svg" xmlns:xlink="http://www.w3.org/1999/xlink">
    <!-- Generator: Sketch 48 (47235) - http://www.bohemiancoding.com/sketch -->
    <title>Pin</title>
    <desc>Created with Sketch.</desc>
    <defs></defs>
    <g id="Icons" stroke="none" stroke-width="1" fill="none" fill-rule="evenodd" transform="translate(-515.000000, -870.000000)">
        <g id="Pin" transform="translate(501.000000, 862.000000)">
            <rect id="Rectangle-4-Copy-30" x="0" y="0" width="64" height="64"></rect>
            <g id="location" transform="translate(14.000000, 8.000000)" fill="#5D5D5D">
                <g id="Shape">
                    <path d="M18.6,0 C8.7,0 0.6,7.6 0.6,16.9 C0.6,25.8 16.7,46.6 17.4,47.4 C18,48.1 18.9,48.2 19.6,47.6 C19.7,47.5 19.8,47.5 19.8,47.4 C20.5,46.5 36.6,25.7 36.6,16.9 C36.6,7.5 28.5,0 18.6,0 Z M18.6,44.2 C13.5,37.4 3.6,23 3.6,16.9 C3.6,9.1 10.3,2.9 18.6,2.9 C26.9,2.9 33.6,9.2 33.6,16.9 C33.6,22.9 23.7,37.3 18.6,44.2 Z" fill-rule="nonzero"></path>
                    <path d="M18.6,9.5 C15.1,9.4 12.1,12.2 12,15.7 C12.1,19.2 15.1,22 18.6,21.9 C22.1,22 25.1,19.2 25.2,15.7 C25.1,12.2 22.1,9.4 18.6,9.5 Z M18.6,19 C16.7,18.9 15.3,17.3 15.5,15.4 C15.6,13.5 17.2,12.1 19.1,12.3 C20.9,12.4 22.3,13.9 22.2,15.7 C22.1,17.6 20.5,19.1 18.6,19 Z" fill-rule="nonzero"></path>
                </g>
            </g>
        </g>
    </g>
</svg>