<?xml version="1.0" encoding="UTF-8" standalone="no"?>
<svg width="45px" height="45px" viewBox="0 0 45 45" version="1.1" xmlns="http://www.w3.org/2000/svg" xmlns:xlink="http://www.w3.org/1999/xlink">
    <!-- Generator: Sketch 48 (47235) - http://www.bohemiancoding.com/sketch -->
    <title>Plus</title>
    <desc>Created with Sketch.</desc>
    <defs></defs>
    <g id="Icons" stroke="none" stroke-width="1" fill="none" fill-rule="evenodd" transform="translate(-858.000000, -294.000000)">
        <g id="Plus" transform="translate(848.000000, 284.000000)">
            <rect id="Rectangle-4-Copy-12" x="0" y="0" width="64" height="64"></rect>
            <g id="plus" transform="translate(10.000000, 10.000000)" fill="#767676">
                <g id="Shape">
                    <path d="M42.5,20 L27.5,20 C26.1,20 25,18.9 25,17.5 L25,2.5 C25,1.1 23.9,0 22.5,0 C21.1,0 20,1.1 20,2.5 L20,17.5 C20,18.9 18.9,20 17.5,20 L2.5,20 C1.1,20 0,21.1 0,22.5 C0,23.9 1.1,25 2.5,25 L17.5,25 C18.9,25 20,26.1 20,27.5 L20,42.5 C20,43.9 21.1,45 22.5,45 C23.9,45 25,43.9 25,42.5 L25,27.5 C25,26.1 26.1,25 27.5,25 L42.5,25 C43.9,25 45,23.9 45,22.5 C45,21.1 43.9,20 42.5,20 Z" fill-rule="nonzero"></path>
                </g>
            </g>
        </g>
    </g>
</svg>