<?xml version="1.0" encoding="UTF-8" standalone="no"?>
<svg width="45px" height="45px" viewBox="0 0 45 45" version="1.1" xmlns="http://www.w3.org/2000/svg" xmlns:xlink="http://www.w3.org/1999/xlink">
    <!-- Generator: Sketch 48 (47235) - http://www.bohemiancoding.com/sketch -->
    <title>Star</title>
    <desc>Created with Sketch.</desc>
    <defs></defs>
    <g id="Icons" stroke="none" stroke-width="1" fill="none" fill-rule="evenodd" transform="translate(-859.000000, -1099.000000)">
        <g id="Star" transform="translate(849.000000, 1091.000000)">
            <rect id="Rectangle-4-Copy-45" x="0" y="0" width="64" height="64"></rect>
            <g id="star" transform="translate(10.000000, 8.000000)" fill="#5D5D5D">
                <g id="Shape">
                    <path d="M43.6,20.3 C44.3,19.7 44.5,18.7 44.3,17.8 C44,16.9 43.2,16.3 42.3,16.2 L32,14.2 C31,13.9 30.2,13.3 29.6,12.4 L23.4,1.1 C23.2,0.7 22.8,0.5 22.3,0.5 C21.9,0.5 21.4,0.7 21.2,1.1 L15.1,12.4 C14.6,13.3 13.7,13.9 12.7,14.2 L2.3,16.2 C1.4,16.3 0.6,16.9 0.3,17.8 C0.1,18.7 0.3,19.7 1,20.3 L8.2,28.1 C8.8,28.9 9.2,29.9 9.1,31 L8,41.6 C7.8,42.5 8.2,43.5 8.9,44.1 C9.3,44.4 9.7,44.5 10.2,44.5 C10.6,44.5 11.1,44.4 11.5,44.2 L21,39.7 C21.9,39.3 23,39.3 23.9,39.7 L33.4,44.2 C34.2,44.7 35.2,44.6 35.9,44.1 C36.6,43.5 36.9,42.6 36.8,41.6 L35.5,31 C35.4,30 35.8,29 36.4,28.2 L43.6,20.3 Z M34.7,26.4 C33.6,27.7 33,29.5 33.1,31.3 L34.4,41.9 L24.9,37.4 C23.3,36.7 21.5,36.7 19.9,37.4 L10.4,41.9 L11.7,31.3 C11.8,29.5 11.3,27.8 10.2,26.5 L3,18.6 L13.3,16.6 C15,16.2 16.4,15.1 17.3,13.6 L22.4,4.2 L27.5,13.6 C28.4,15.1 29.8,16.2 31.5,16.6 L41.8,18.6 L34.7,26.4 Z" fill-rule="nonzero"></path>
                </g>
            </g>
        </g>
    </g>
</svg>