<?xml version="1.0" encoding="UTF-8" standalone="no"?>
<svg width="41px" height="31px" viewBox="0 0 41 31" version="1.1" xmlns="http://www.w3.org/2000/svg" xmlns:xlink="http://www.w3.org/1999/xlink">
    <!-- Generator: Sketch 48 (47235) - http://www.bohemiancoding.com/sketch -->
    <title>Tick</title>
    <desc>Created with Sketch.</desc>
    <defs></defs>
    <g id="Icons" stroke="none" stroke-width="1" fill="none" fill-rule="evenodd" transform="translate(-516.000000, -300.000000)">
        <g id="Tick" transform="translate(505.000000, 283.000000)">
            <rect id="Rectangle-4-Copy-13" x="0" y="0" width="64" height="64"></rect>
            <g id="tick" transform="translate(11.000000, 17.000000)" fill="#545454">
                <g id="Shape">
                    <path d="M11.5,21.5 L5.1,15 C4,13.9 2.2,13.9 1.1,15 C1.1,15 1.1,15 1.1,15 C2.10942375e-15,16.2 2.10942375e-15,18 1.1,19.2 L11.5,29.8 C12.6,30.9 14.4,30.9 15.5,29.8 C15.5,29.8 15.5,29.8 15.5,29.8 L39.4,5.7 C40.5,4.5 40.5,2.7 39.4,1.5 C38.3,0.4 36.5,0.4 35.4,1.5 C35.4,1.5 35.4,1.5 35.4,1.5 L15.5,21.5 C14.5,22.6 12.7,22.6 11.5,21.5 C11.6,21.5 11.5,21.5 11.5,21.5 Z" fill-rule="nonzero"></path>
                </g>
            </g>
        </g>
    </g>
</svg>