<?xml version="1.0" encoding="UTF-8" standalone="no"?>
<svg width="32px" height="32px" viewBox="0 0 32 32" version="1.1" xmlns="http://www.w3.org/2000/svg" xmlns:xlink="http://www.w3.org/1999/xlink">
    <!-- Generator: Sketch 40.2 (33826) - http://www.bohemiancoding.com/sketch -->
    <title>Add</title>
    <desc>Created with Sketch.</desc>
    <defs></defs>
    <g id="8-Dashboard" stroke="none" stroke-width="1" fill="none" fill-rule="evenodd">
        <g id="Dashboard" transform="translate(-571.000000, -521.000000)" stroke="#0DC5A0" fill="#00A69D">
            <g id="Projects" transform="translate(120.000000, 132.000000)">
                <g id="Asset-by-category-Copy-3" transform="translate(322.000000, 310.000000)">
                    <g id="Asset-1-(White-Paper)">
                        <g id="Group-11" transform="translate(40.000000, 55.000000)">
                            <path d="M119.598752,39.5984842 L105.400981,39.5984842 L105.400981,25.4012483 C105.400981,25.1797593 105.221222,25 104.999733,25 C104.778243,25 104.598484,25.1797593 104.598484,25.4012483 L104.598484,39.5984842 L90.4012483,39.5984842 C90.1797593,39.5984842 90,39.7782434 90,39.9997325 C90,40.2212216 90.1797593,40.4009808 90.4012483,40.4009808 L104.598484,40.4009808 L104.598484,54.5987517 C104.598484,54.8202407 104.778243,55 104.999733,55 C105.221222,55 105.400981,54.8202407 105.400981,54.5987517 L105.400981,40.4009808 L119.598752,40.4009808 C119.820241,40.4009808 120,40.2212216 120,39.9997325 C120,39.7782434 119.820241,39.5984842 119.598752,39.5984842" id="Add"></path>
                        </g>
                    </g>
                </g>
            </g>
        </g>
    </g>
</svg>