<?xml version="1.0" encoding="UTF-8"?>
<svg width="32px" height="30px" viewBox="0 0 32 30" version="1.1" xmlns="http://www.w3.org/2000/svg" xmlns:xlink="http://www.w3.org/1999/xlink">
    <!-- Generator: Sketch 42 (36781) - http://www.bohemiancoding.com/sketch -->
    <title>Page 1</title>
    <desc>Created with Sketch.</desc>
    <defs>
        <polygon id="path-1" points="28.0798609 29.3023256 0.417947826 29.3023256 0.417947826 0.219418605 28.0798609 0.219418605 28.0798609 29.3023256"></polygon>
    </defs>
    <g id="WIP" stroke="none" stroke-width="1" fill="none" fill-rule="evenodd">
        <g id="AccessDenied" transform="translate(-186.000000, -452.000000)">
            <g id="Group-2" transform="translate(126.000000, 155.000000)">
                <g id="Group" transform="translate(60.000000, 47.000000)">
                    <g id="Challenge-welcome" transform="translate(0.000000, 80.000000)">
                        <g id="Group-7" transform="translate(0.000000, 164.000000)">
                            <g id="Page-1" transform="translate(0.000000, 6.000000)">
                                <g id="Group-3" transform="translate(3.478261, 0.478256)">
                                    <mask id="mask-2" fill="white">
                                        <use xlink:href="#path-1"></use>
                                    </mask>
                                    <g id="Clip-2"></g>
                                    <path d="M25.7730783,0.219418605 L2.72751304,0.219418605 C1.45377391,0.219418605 0.417947826,1.25825581 0.417947826,2.53569767 L0.417947826,9.98127907 C0.417947826,10.3663953 0.728904348,10.6789535 1.1136,10.6789535 C1.4976,10.6789535 1.80925217,10.3663953 1.80925217,9.98127907 L1.80925217,2.53569767 C1.80925217,2.0277907 2.22177391,1.61476744 2.72751304,1.61476744 L25.7730783,1.61476744 C26.2781217,1.61476744 26.6885565,2.0277907 26.6885565,2.53569767 L26.6885565,26.987093 C26.6885565,27.4943023 26.2781217,27.9073256 25.7730783,27.9073256 L2.72751304,27.9073256 C2.22177391,27.9073256 1.80925217,27.4943023 1.80925217,26.987093 L1.80925217,19.5715116 C1.80925217,19.1863953 1.4976,18.8738372 1.1136,18.8738372 C0.728904348,18.8738372 0.417947826,19.1863953 0.417947826,19.5715116 L0.417947826,26.987093 C0.417947826,28.2638372 1.45377391,29.3026744 2.72751304,29.3026744 L25.7730783,29.3026744 C27.0454261,29.3026744 28.0798609,28.2638372 28.0798609,26.987093 L28.0798609,2.53569767 C28.0798609,1.25825581 27.0454261,0.219418605 25.7730783,0.219418605" id="Fill-1" fill="#599EE7" mask="url(#mask-2)"></path>
                                </g>
                                <g id="Group-6" transform="translate(0.000000, 9.548023)" fill="#599EE7">
                                    <path d="M17.3648,9.67513953 C17.0941913,9.94932558 17.0969739,10.3909535 17.3703652,10.6623488 C17.5053217,10.7963023 17.682713,10.8639767 17.8594087,10.8639767 C18.038887,10.8639767 18.2183652,10.7942093 18.3540174,10.6567674 L21.9526261,7.00932558 C22.6781913,6.27537209 22.6781913,5.08165116 21.9533217,4.34769767 L18.3540174,0.703046512 C18.082713,0.428860465 17.6430609,0.426069767 17.3696696,0.698162791 C17.0969739,0.968860465 17.0941913,1.41048837 17.3648,1.68467442 L20.6552348,5.01676744 L0.695582609,5.01676744 C0.310886957,5.01676744 -6.95652175e-05,5.32932558 -6.95652175e-05,5.71444186 C-6.95652175e-05,6.09955814 0.310886957,6.41211628 0.695582609,6.41211628 L20.5842783,6.41211628 L17.3648,9.67513953 Z" id="Fill-4"></path>
                                </g>
                            </g>
                        </g>
                    </g>
                </g>
            </g>
        </g>
    </g>
</svg>