<svg id="Layer_1" data-name="Layer 1" xmlns="http://www.w3.org/2000/svg" viewBox="0 0 50 50"><defs><style>.cls-1{fill:#3d82c3;}</style></defs><title>Artboard 1 copy 3</title><path class="cls-1" d="M39.64,5.34h-30A3.75,3.75,0,0,0,5.89,9.09v30a3.75,3.75,0,0,0,3.75,3.75h30a3.75,3.75,0,0,0,3.75-3.75v-30a3.75,3.75,0,0,0-3.75-3.75Zm-16.88,30a1.88,1.88,0,0,1-1.88,1.88H11.51a1.88,1.88,0,0,1-1.88-1.88V11a1.88,1.88,0,0,1,1.88-1.88h9.38A1.88,1.88,0,0,1,22.76,11ZM39.64,24.09A1.88,1.88,0,0,1,37.76,26H28.4a1.88,1.88,0,0,1-1.88-1.88V11A1.89,1.89,0,0,1,28.4,9.09h9.36A1.88,1.88,0,0,1,39.64,11V24.09Z"/></svg>