<svg xmlns="http://www.w3.org/2000/svg" xmlns:xlink="http://www.w3.org/1999/xlink" viewBox="0 0 50 50"><defs><style>.cls-1{filter:url(#luminosity-noclip-2);}.cls-2{mask:url(#mask);}.cls-14,.cls-15,.cls-3,.cls-8{mix-blend-mode:multiply;}.cls-3{fill:url(#radial-gradient);}.cls-4{fill:none;}.cls-5{isolation:isolate;}.cls-6{fill:#0f9d58;}.cls-13,.cls-7{fill:#fff;}.cls-7{fill-opacity:0.32;}.cls-8{opacity:0.24;}.cls-9{fill:#263238;}.cls-10{clip-path:url(#clip-path);}.cls-11{fill:#187c40;}.cls-12{fill:#f1f1f1;}.cls-13{fill-opacity:0.48;}.cls-14{opacity:0.16;}.cls-15,.cls-17{opacity:0.08;}.cls-16{mask:url(#mask-2);}.cls-17{fill:url(#radial-gradient-2);}.cls-18{filter:url(#luminosity-noclip);}</style><filter id="luminosity-noclip" x="6.16" y="-8217" width="37.78" height="32766" filterUnits="userSpaceOnUse" color-interpolation-filters="sRGB"><feFlood flood-color="#fff" result="bg"/><feBlend in="SourceGraphic" in2="bg"/></filter><mask id="mask" x="6.16" y="-8217" width="37.78" height="32766" maskUnits="userSpaceOnUse"><g class="cls-18"/></mask><radialGradient id="radial-gradient" cx="11.69" cy="10.49" r="39.86" gradientUnits="userSpaceOnUse"><stop offset="0" stop-color="#fff"/><stop offset="0.07" stop-color="#e0e0e0"/><stop offset="0.21" stop-color="#a5a5a5"/><stop offset="0.36" stop-color="#737373"/><stop offset="0.5" stop-color="#494949"/><stop offset="0.64" stop-color="#292929"/><stop offset="0.77" stop-color="#131313"/><stop offset="0.89" stop-color="#050505"/><stop offset="1"/></radialGradient><clipPath id="clip-path"><path id="_Clipping_Path_" data-name="&lt;Clipping Path&gt;" class="cls-4" d="M25,4.94A18.89,18.89,0,0,0,6.16,23.83c0,9.94,9,18,18.89,18v6.3c11.44-5.58,18.89-14.79,18.89-24.29A18.89,18.89,0,0,0,25,4.94Z"/></clipPath><filter id="luminosity-noclip-2" x="6.16" y="4.94" width="37.78" height="43.18" filterUnits="userSpaceOnUse" color-interpolation-filters="sRGB"><feFlood flood-color="#fff" result="bg"/><feBlend in="SourceGraphic" in2="bg"/></filter><mask id="mask-2" x="6.16" y="4.94" width="37.78" height="43.18" maskUnits="userSpaceOnUse"><g id="_Group_" data-name="&lt;Group&gt;" class="cls-1"><g class="cls-2"><path id="_Path_" data-name="&lt;Path&gt;" class="cls-3" d="M25,4.94A18.89,18.89,0,0,0,6.16,23.83c0,9.94,9,18,18.89,18v6.3c11.44-5.58,18.89-14.79,18.89-24.29A18.89,18.89,0,0,0,25,4.94Z"/></g></g></mask><radialGradient id="radial-gradient-2" cx="11.69" cy="10.49" r="39.86" gradientUnits="userSpaceOnUse"><stop offset="0" stop-color="#fff"/><stop offset="1" stop-color="#fff"/></radialGradient></defs><title>Artboard 1 copy 2</title><g class="cls-5"><g id="Layer_1" data-name="Layer 1"><g id="_Group_2" data-name="&lt;Group&gt;"><g id="_Group_3" data-name="&lt;Group&gt;"><g id="_Group_4" data-name="&lt;Group&gt;"><path id="_Path_2" data-name="&lt;Path&gt;" class="cls-6" d="M25,4.94A18.89,18.89,0,0,0,6.16,23.83c0,9.94,9,18,18.89,18v6.3c11.44-5.58,18.89-14.79,18.89-24.29A18.89,18.89,0,0,0,25,4.94Z"/><path id="_Path_3" data-name="&lt;Path&gt;" class="cls-7" d="M25,5.17A18.89,18.89,0,0,1,43.94,23.94s0-.08,0-.11a18.89,18.89,0,1,0-37.78,0s0,.07,0,.11A18.89,18.89,0,0,1,25,5.17Z"/><g id="_Group_5" data-name="&lt;Group&gt;"><g class="cls-8"><path class="cls-9" d="M25,41.6c-9.9,0-18.82-8-18.89-17.88,0,0,0,.08,0,.12,0,9.94,9,18,18.89,18ZM43.94,23.72C43.88,33.18,36.44,42.33,25,47.89v.22c11.44-5.58,18.89-14.79,18.89-24.29C43.94,23.79,43.94,23.76,43.94,23.72Z"/></g></g></g><g class="cls-10"><polygon class="cls-11" points="34.69 18.56 43.18 27.43 43.18 42.08 32.33 43.3 15.8 26.53 24.02 18.43 30.35 24.94 34.69 18.56"/></g><g id="_Group_6" data-name="&lt;Group&gt;"><g id="_Group_7" data-name="&lt;Group&gt;"><g id="_Group_8" data-name="&lt;Group&gt;"><path id="_Compound_Path_" data-name="&lt;Compound Path&gt;" class="cls-12" d="M16.05,26.53h4.5V31c2,0,3.6-2,3.6-4.5v-8.1h-8.1Zm10.79-8.1v8.1h4.5V31c2,0,3.6-2,3.6-4.5v-8.1Z"/></g></g></g><path id="_Compound_Path_2" data-name="&lt;Compound Path&gt;" class="cls-13" d="M26.85,18.43v.22h8.1v-.22Zm-10.79.22h8.1v-.22h-8.1Z"/><g id="_Group_9" data-name="&lt;Group&gt;"><g class="cls-14"><path class="cls-9" d="M20.55,26.53h-4.5l.22.22h4.28Zm0,4.5v.22c2,0,3.6-2,3.6-4.5v-.22C24.15,29,22.54,31,20.55,31Zm10.79-4.5h-4.5v.22h4.5Zm0,4.5v.22c2,0,3.6-2,3.6-4.5v-.22C34.94,29,33.33,31,31.35,31Z"/></g></g><g id="_Group_10" data-name="&lt;Group&gt;"><g class="cls-15"><path class="cls-9" d="M20.55,26.53h-4.5l.22.22h4.28Zm0,4.5v.22c2,0,3.6-2,3.6-4.5v-.22C24.15,29,22.54,31,20.55,31Zm10.79-4.5h-4.5v.22h4.5Zm0,4.5v.22c2,0,3.6-2,3.6-4.5v-.22C34.94,29,33.33,31,31.35,31Z"/></g></g></g><g id="_Group_11" data-name="&lt;Group&gt;"><g class="cls-16"><path id="_Path_4" data-name="&lt;Path&gt;" class="cls-17" d="M25,4.94A18.89,18.89,0,0,0,6.16,23.83c0,9.94,9,18,18.89,18v6.3c11.44-5.58,18.89-14.79,18.89-24.29A18.89,18.89,0,0,0,25,4.94Z"/></g></g></g></g></g></svg>