<svg id="Layer_1" data-name="Layer 1" xmlns="http://www.w3.org/2000/svg" viewBox="0 0 50 50"><defs><style>.cls-1{fill:#00aff0;}</style></defs><title>Artboard 1 copy</title><path class="cls-1" d="M43.65,27.34c0,.07,0,.14,0,.21l-.07-.41.1.19A19.26,19.26,0,0,0,44,23.86,19.15,19.15,0,0,0,24.8,4.7,19.29,19.29,0,0,0,21.17,5h0l.2.1L21,5.08l.2,0A11.34,11.34,0,0,0,5.92,20.56c0-.07,0-.14,0-.21l.07.4-.1-.19a19.3,19.3,0,0,0-.29,3.3A19.16,19.16,0,0,0,24.8,43a19.27,19.27,0,0,0,3.36-.3l-.2-.11.41.07-.21,0A11.34,11.34,0,0,0,43.65,27.34ZM24.88,35.6c-6.81,0-9.86-3.35-9.86-5.86a2.14,2.14,0,0,1,2.26-2.19c2.91,0,2.16,4.18,7.6,4.18,2.78,0,4.32-1.51,4.32-3.06,0-.93-.46-2-2.29-2.41l-6.06-1.51c-4.88-1.22-5.76-3.86-5.76-6.34,0-5.15,4.85-7.08,9.4-7.08,4.19,0,9.13,2.32,9.13,5.4a2.21,2.21,0,0,1-2.45,2.09c-2.49,0-2-3.44-7-3.44-2.49,0-3.86,1.13-3.86,2.74s2,2.12,3.67,2.51l4.48,1c4.91,1.09,6.16,4,6.16,6.66C34.57,32.48,31.36,35.6,24.88,35.6Zm3.08,7,.2.11.21,0ZM43.61,27.55c0-.07,0-.14,0-.21l-.1-.19ZM6,20.35c0,.07,0,.14,0,.21l.1.19ZM21.36,5.14l-.2-.1-.2,0Z"/></svg>