<svg id="Layer_1" data-name="Layer 1" xmlns="http://www.w3.org/2000/svg" viewBox="0 0 50 50"><title>Artboard 1</title><path d="M46.49,24.9a21,21,0,0,0-42.08,0A20.67,20.67,0,0,0,18,44.28c.24,0,1-.28,1.5-.28h0c.62,0,.87-.44.85-1.12,0-1.15,0-2.17,0-3.31a29.14,29.14,0,0,1-3.63,0,4.13,4.13,0,0,1-3.45-2.68,6.08,6.08,0,0,0-2.38-3c-.26-.16-.39-.52-.58-.79a3.07,3.07,0,0,1,1-.27,4.1,4.1,0,0,1,3.11,2.2,4.07,4.07,0,0,0,4,2.14,8,8,0,0,0,1-.18,1.27,1.27,0,0,0,1.16-1.12,9.34,9.34,0,0,1,.88-2c-.84-.19-1.74-.34-2.61-.58a8.31,8.31,0,0,1-6.47-7.67c-.3-2.67,0-5.17,1.76-7.32a.94.94,0,0,0,.08-.73,8.27,8.27,0,0,1,.11-4.31.85.85,0,0,1,1.1-.73,10.31,10.31,0,0,1,4.15,1.71A1.76,1.76,0,0,0,21,14.6a20,20,0,0,1,9,0,2.13,2.13,0,0,0,1.18-.19c1.26-.53,2.46-1.21,3.75-1.65s1.52-.26,1.7,1a16.72,16.72,0,0,1,.07,3.67,1.55,1.55,0,0,0,.3,1.3C39.85,22,38.91,29.59,35.15,32a13.08,13.08,0,0,1-5.29,1.84l-.4.07s0,0-.09.12c1.29,1.45,1.28,3.25,1.25,5.07,0,1.35,0,2.7,0,4a1.26,1.26,0,0,0,.8,1.36,2,2,0,0,0,1.12.19A21,21,0,0,0,46.49,24.9Z"/></svg>