<?xml version="1.0" encoding="UTF-8"?>
<svg width="29px" height="31px" viewBox="0 0 29 31" version="1.1" xmlns="http://www.w3.org/2000/svg" xmlns:xlink="http://www.w3.org/1999/xlink">
    <!-- Generator: Sketch 41.2 (35397) - http://www.bohemiancoding.com/sketch -->
    <title>Group 5</title>
    <desc>Created with Sketch.</desc>
    <defs></defs>
    <g id="1-Create-a-Challenge-(flow)" stroke="none" stroke-width="1" fill="none" fill-rule="evenodd" stroke-linecap="round">
        <g id="5.-Challenge-accepted" transform="translate(-154.000000, -269.000000)" stroke="#61C3D6">
            <g id="Challenge-welcome" transform="translate(128.000000, 98.000000)">
                <g id="Overview" transform="translate(27.000000, 165.915633)">
                    <g id="Group-5" transform="translate(0.000000, 5.925558)">
                        <path d="M21.6270492,17.1784032 L21.6270492,28.3189385 C21.6270492,28.9964921 21.0634426,29.5506775 20.3754098,29.5506775 L1.24967213,29.5506775 C0.562131148,29.5506775 0,28.9964921 0,28.3189385 L0,10.0997895 L8.98081967,0.88166069 L18.0172131,0.88166069 L21.6270492,17.1784032 L21.6270492,17.1784032 Z" id="Stroke-1" stroke-linejoin="round"></path>
                        <path d="M9.06009836,1.12485143 L9.05419672,7.5229973 C9.05419672,8.9762162 7.4607541,10.0345598 6.00354098,10.0345598 L0.409278689,10.0345598" id="Stroke-3" stroke-linejoin="round"></path>
                        <path d="M15.0491803,4.93796526 L11.1742623,4.93796526" id="Stroke-5" stroke-linejoin="round"></path>
                        <path d="M12.2659672,9.87593052 L10.4394098,9.87593052" id="Stroke-7" stroke-linejoin="round"></path>
                        <path d="M10.7060164,14.8138958 L3.84634426,14.8138958" id="Stroke-9" stroke-linejoin="round"></path>
                        <path d="M17.7291148,19.751861 L3.846,19.751861" id="Stroke-11" stroke-linejoin="round"></path>
                        <path d="M17.7291148,24.6898263 L3.846,24.6898263" id="Stroke-13" stroke-linejoin="round"></path>
                        <path d="M24.5917869,1.05539612 C22.2994918,-0.235598473 21.0158852,-0.37062349 20.3126066,0.807688352 C20.2737541,0.874229457 13.6668689,12.0210789 13.6668689,12.0210789 L13.6983443,12.0380785 C13.6993279,12.0045651 13.7003115,11.98028 13.7003115,11.9744516 C14.6962131,11.7175155 15.6045738,12.2527585 16.0447377,13.2489323 C16.0447377,13.2489323 17.5953934,13.2392183 18.2578525,14.588497 L18.3001475,14.6122964 C18.4762131,14.58364 19.5867049,14.4656146 20.5752295,15.852778 L20.5447377,15.8678348 L20.5619508,15.8775488 C20.5619508,15.8775488 27.0655574,4.70932851 27.1049016,4.64375881 C27.8603115,3.3789921 27.0576885,2.44595951 24.5917869,1.05539612 L24.5917869,1.05539612 Z" id="Stroke-15" stroke-linejoin="bevel" fill="#FFFFFF"></path>
                        <path d="M18.2732459,14.6170563 C17.6196393,13.2371783 16.0448852,13.2493209 16.0448852,13.2493209 C15.6042295,12.2526614 14.6963607,11.7174183 13.700459,11.9748401 C13.6861967,12.0933513 13.6025902,19.1695365 13.728,19.2137353 L20.575377,15.8526809 C19.4983279,14.3411778 18.2732459,14.6170563 18.2732459,14.6170563 L18.2732459,14.6170563 Z" id="Stroke-17" stroke-linejoin="round"></path>
                        <path d="M15.781082,17.8362858 C15.4323934,17.4865808 14.8574754,17.0543064 14.0700984,16.9110245" id="Stroke-19" stroke-linejoin="round"></path>
                        <path d="M26.559,5.56664023 C26.1552295,4.74386189 25.0644098,3.73845978 23.6062131,2.9040246 C22.1445738,2.06473241 20.709,1.62662965 19.7878525,1.69219936" id="Stroke-21" stroke-linejoin="round"></path>
                    </g>
                </g>
            </g>
        </g>
    </g>
</svg>