<?xml version="1.0" encoding="UTF-8" standalone="no"?>
<svg width="12px" height="14px" viewBox="0 0 12 14" version="1.1" xmlns="http://www.w3.org/2000/svg" xmlns:xlink="http://www.w3.org/1999/xlink">
    <!-- Generator: Sketch 40.2 (33826) - http://www.bohemiancoding.com/sketch -->
    <title>Edit</title>
    <desc>Created with Sketch.</desc>
    <defs></defs>
    <g id="8-Dashboard" stroke="none" stroke-width="1" fill="none" fill-rule="evenodd">
        <g id="Dashboard" transform="translate(-869.000000, -512.000000)" fill="#999999">
            <g id="Sidebar" transform="translate(868.000000, 140.000000)">
                <g id="Stats" transform="translate(0.000000, 275.000000)">
                    <path d="M10.3310654,97.9769851 C9.34317645,97.3014915 8.6431492,97 8.06033834,97 C7.55930637,97 7.15204752,97.2246193 6.85110122,97.6651349 L6.77368387,97.7654504 C6.67445883,97.8924802 6.50926548,98.104015 6.32935193,98.350442 L1.32666491,105.650571 C1.28577547,105.712177 1.26178699,105.783597 1.25742545,105.856653 L1.00063975,110.568753 C0.993007056,110.704506 1.05406862,110.835352 1.16256194,110.917676 C1.23452736,110.97165 1.32121298,111 1.40898899,111 C1.45369478,111 1.49894576,110.992367 1.54201597,110.977647 L6.21704226,109.368784 C6.29936634,109.340434 6.37024137,109.28646 6.4198539,109.21504 L11.2437178,102.252385 L11.4885092,101.905098 C11.6842333,101.622688 11.8379777,101.404611 11.9219373,101.286849 L11.9900864,101.189805 C12.880931,99.8867947 11.6591545,98.8885471 10.3310654,97.9769851 L10.3310654,97.9769851 Z M1.85059497,110.006659 L2.05013545,106.336968 C2.36307598,106.481989 2.72453866,106.737684 2.84448102,107.070797 C2.89354835,107.206005 3.01130995,107.305775 3.15142444,107.33358 C3.15960233,107.335216 3.91960077,107.493321 4.16439223,108.118657 C4.21945668,108.259317 4.34812213,108.357997 4.49805009,108.375988 C4.50295682,108.375988 4.92929741,108.441956 5.3485505,108.803419 L1.85059497,110.006659 L1.85059497,110.006659 Z M6.03930948,108.329102 C5.59661312,107.883134 5.11193692,107.691226 4.83007236,107.613264 C4.48660104,106.974843 3.85744882,106.69625 3.52379096,106.588847 C3.2424716,106.049651 2.71308961,105.739982 2.36307598,105.583512 L6.74042713,99.1785895 L6.85655314,99.0172125 C7.43881881,99.0984462 8.25170093,99.4550021 9.00406668,99.9702091 C9.76679108,100.493594 10.3975789,101.124927 10.6805338,101.635227 L6.03930948,108.329102 L6.03930948,108.329102 Z M11.3162284,100.726391 L11.2540764,100.814167 C11.2349947,100.841427 11.2115514,100.874684 11.1859273,100.911211 C10.8004762,100.369835 10.1980384,99.7979283 9.46584478,99.2952607 C8.75982041,98.8122201 8.03089794,98.4660228 7.3957486,98.2970131 C7.40229091,98.2893804 7.41210437,98.2762958 7.41810149,98.2686631 C7.4764371,98.1939717 7.51514577,98.143814 7.52441404,98.1290938 C7.67379681,97.9110168 7.83408342,97.8177889 8.06033834,97.8177889 C8.45723853,97.8177889 9.04877247,98.0903851 9.86874209,98.6519335 C11.6760555,99.8917014 11.6008189,100.310409 11.3162284,100.726391 L11.3162284,100.726391 Z" id="Edit"></path>
                </g>
            </g>
        </g>
    </g>
</svg>