<?xml version="1.0" encoding="utf-8"?>
<!-- Generator: Adobe Illustrator 20.0.0, SVG Export Plug-In . SVG Version: 6.00 Build 0)  -->
<svg version="1.1" id="Layer_1" xmlns="http://www.w3.org/2000/svg" xmlns:xlink="http://www.w3.org/1999/xlink" x="0px" y="0px"
	 viewBox="0 0 51.8 36.4" style="enable-background:new 0 0 51.8 36.4;" xml:space="preserve">
<style type="text/css">
	.st0{fill:#619CD4;}
</style>
<g>
	<path class="st0" d="M50.8,0H1C0.4,0,0,0.4,0,1v34.4c0,0.6,0.4,1,1,1h49.8c0.6,0,1-0.5,1-1V1C51.8,0.4,51.4,0,50.8,0z M49.8,2v27.8
		L35.7,19.1c-0.3-0.3-0.8-0.3-1.1-0.1l-9,5.2L14.9,13.3c-0.1-0.3-0.4-0.5-0.7-0.6c-0.1-0.1-0.3-0.1-0.5-0.1c-0.3,0-0.5,0.1-0.7,0.3
		L2,23.9V2H49.8z M14.6,15.9l18.2,18.5H11.2L14.6,15.9z M27.1,25.8l6.6-3.9l-1.9,8.7L27.1,25.8z M2,26.7l10.5-10.4L9.1,34.4H2V26.7z
		 M35.5,34.4l-2-2.1c0,0,0,0,0,0l2.3-10.6l14,10.7v2.1H35.5z"/>
	<path class="st0" d="M28.1,14.9c2.7,0,5-2.2,5-5s-2.3-5-5-5c-2.7,0-5,2.3-5,5S25.3,14.9,28.1,14.9z M28.1,6.8c1.6,0,3,1.4,3,3
		c0,1.6-1.3,3-3,3c-1.6,0-3-1.3-3-3C25.1,8.2,26.4,6.8,28.1,6.8z"/>
</g>
</svg>
