<?xml version="1.0" encoding="UTF-8" standalone="no"?>
<svg width="47px" height="35px" viewBox="0 0 47 35" version="1.1" xmlns="http://www.w3.org/2000/svg" xmlns:xlink="http://www.w3.org/1999/xlink">
    <!-- Generator: Sketch 40.2 (33826) - http://www.bohemiancoding.com/sketch -->
    <title>source_code</title>
    <desc>Created with Sketch.</desc>
    <defs></defs>
    <g id="1-Homepage" stroke="none" stroke-width="1" fill="none" fill-rule="evenodd">
        <g id="Homepage" transform="translate(-348.000000, -2189.000000)" stroke="#0DC5A0" fill="#0DC5A0">
            <g id="Asset-types-section-Copy" transform="translate(-1.000000, 1907.000000)">
                <g id="Icons" transform="translate(31.000000, 282.000000)">
                    <path d="M330.208397,9.54266258 C330.374979,9.41841946 330.374979,9.21742547 330.208397,9.09318234 C330.041815,8.96893922 329.771759,8.96893922 329.605178,9.09318234 L318.936553,17.0502547 L318.333333,17.500159 L318.936553,17.9500633 L329.605178,25.9067116 C329.688753,25.9690452 329.797344,26 329.906503,26 C330.015662,26 330.124822,25.9690452 330.208397,25.9067116 C330.374979,25.7824685 330.374979,25.5814745 330.208397,25.4572314 L319.539203,17.500159 L330.208397,9.54266258 Z M348.613108,1.05370694 L332.197892,33.4572619 L331.971938,33.9032941 L332.864002,34.3552023 L333.089956,33.90917 L349.505172,1.50561509 L349.731126,1.05958286 L348.839062,0.607674705 L348.613108,1.05370694 Z M352.45827,25.4573374 C352.291688,25.5815805 352.291688,25.7825745 352.45827,25.9068177 C352.624851,26.0310608 352.894907,26.0310608 353.061489,25.9068177 L363.730114,17.9497453 L364.333333,17.499841 L363.730114,17.0499367 L353.061489,9.09328835 C352.977914,9.03095477 352.869323,9 352.760164,9 C352.651004,9 352.541845,9.03095477 352.45827,9.09328835 C352.291688,9.21753148 352.291688,9.41852547 352.45827,9.54276859 L363.127463,17.499841 L352.45827,25.4573374 Z" id="source_code"></path>
                </g>
            </g>
        </g>
    </g>
</svg>