<?xml version="1.0" encoding="utf-8"?>
<!-- Generator: Adobe Illustrator 20.0.0, SVG Export Plug-In . SVG Version: 6.00 Build 0)  -->
<svg version="1.1" id="Layer_1" xmlns="http://www.w3.org/2000/svg" xmlns:xlink="http://www.w3.org/1999/xlink" x="0px" y="0px"
	 viewBox="0 0 26.9 35.5" style="enable-background:new 0 0 26.9 35.5;" xml:space="preserve">
<style type="text/css">
	.st0{fill:#619CD4;}
</style>
<path class="st0" d="M13.4,1.5"/>
<path class="st0" d="M13.4,19.7"/>
<g>
	<path class="st0" d="M26.4,11.4c0.3-0.1,0.5-0.5,0.5-0.8c0-0.3-0.1-0.6-0.4-0.7l-9.4-9.5c-0.3-0.3-0.6-0.3-1-0.2
		c-0.2,0.1-0.4,0.2-0.5,0.4C15.5,0.2,15.2,0,14.8,0H3.9C1.8,0,0.1,1.7,0,3.8l0,27.7c0,2.2,1.8,3.9,3.9,3.9h19c2.2,0,3.9-1.8,3.9-3.9
		V12.2C26.9,11.8,26.7,11.5,26.4,11.4z M17.4,3.1l6.4,6.5h-4.5c-1,0-1.9-0.8-1.9-1.9V3.1z M25.1,12.2v19.4c0,1.2-0.9,2.1-2.1,2.1
		h-19c-1.2,0-2.1-0.9-2.1-2.1l0-27.7c0-1.1,1-2,2.1-2h9v0.3c0,0.3,0.2,0.5,0.5,0.5s0.5-0.2,0.5-0.5V1.8h0.9c0.3,0,0.6-0.1,0.7-0.4
		v6.3c0,2,1.7,3.7,3.7,3.7h6.1C25.2,11.6,25.1,11.9,25.1,12.2z"/>
	<path class="st0" d="M13.4,18.8c-0.3,0-0.5,0.2-0.5,0.5v0.5c0,0.3,0.2,0.5,0.5,0.5s0.5-0.2,0.5-0.5v-0.5
		C13.9,19,13.7,18.8,13.4,18.8z"/>
	<path class="st0" d="M13.4,7.9c-0.3,0-0.5,0.2-0.5,0.5v0.9c0,0.3,0.2,0.5,0.5,0.5s0.5-0.2,0.5-0.5V8.4C13.9,8.1,13.7,7.9,13.4,7.9z
		"/>
	<path class="st0" d="M13.4,4.3c-0.3,0-0.5,0.2-0.5,0.5v0.9c0,0.3,0.2,0.5,0.5,0.5s0.5-0.2,0.5-0.5V4.8C13.9,4.5,13.7,4.3,13.4,4.3z
		"/>
	<path class="st0" d="M13.4,11.5c-0.3,0-0.5,0.2-0.5,0.5v0.9c0,0.3,0.2,0.5,0.5,0.5s0.5-0.2,0.5-0.5V12
		C13.9,11.8,13.7,11.5,13.4,11.5z"/>
	<path class="st0" d="M13.4,15.1c-0.3,0-0.5,0.2-0.5,0.5v0.9c0,0.3,0.2,0.5,0.5,0.5s0.5-0.2,0.5-0.5v-0.9
		C13.9,15.4,13.7,15.1,13.4,15.1z"/>
</g>
<path class="st0" d="M13.4,19.4c-1.3,0-2.3,1-2.3,2.3c0,1.3,1,2.3,2.3,2.3s2.3-1,2.3-2.3C15.8,20.4,14.7,19.4,13.4,19.4z M13.4,23
	c-0.7,0-1.3-0.6-1.3-1.3s0.6-1.3,1.3-1.3s1.3,0.6,1.3,1.3S14.2,23,13.4,23z"/>
</svg>
