<?xml version="1.0" encoding="UTF-8" standalone="no"?>
<svg width="43px" height="52px" viewBox="0 0 43 52" version="1.1" xmlns="http://www.w3.org/2000/svg" xmlns:xlink="http://www.w3.org/1999/xlink">
    <!-- Generator: Sketch 48 (47235) - http://www.bohemiancoding.com/sketch -->
    <title>Add note</title>
    <desc>Created with Sketch.</desc>
    <defs></defs>
    <g id="Icons" stroke="none" stroke-width="1" fill="none" fill-rule="evenodd" transform="translate(-512.000000, -983.000000)">
        <g id="Add-note" transform="translate(501.000000, 977.000000)">
            <rect id="Rectangle-4-Copy-36" x="0" y="0" width="64" height="64"></rect>
            <g id="note_add" transform="translate(11.000000, 6.000000)" fill="#5D5D5D">
                <g id="Shape">
                    <path d="M23.8,48.7 L4.2,48.7 C3.8,48.7 3.6,48.4 3.6,48 L3.6,3.4 C3.6,3 3.9,2.8 4.2,2.8 L22,2.8 L22,12.4 C22,15.7 25.3,18 28.3,18 L36.3,18 L36.3,31.5 C36.3,32.3 36.9,32.9 37.7,32.9 C38.5,32.9 39.1,32.3 39.1,31.5 L39.1,16.2 C39.1,15.8 39,15.5 38.7,15.2 L24.9,0.4 C24.6,0.1 24.3,0 23.9,0 L4.2,0 C2.3,0 0.7,1.6 0.7,3.5 L0.7,48 C0.7,49.9 2.2,51.5 4.2,51.5 L23.8,51.5 C24.6,51.5 25.2,50.9 25.2,50.1 C25.2,49.3 24.5,48.6 23.8,48.7 Z M34.8,15.1 L28.4,15.1 C26.8,15.1 24.9,13.9 24.9,12.4 L24.9,4.5 L34.8,15.1 Z" fill-rule="nonzero"></path>
                    <path d="M34.5,35.3 C29.9,35.2 26.1,38.9 26.1,43.5 C26,48.1 29.7,51.9 34.3,51.9 C38.9,52 42.7,48.3 42.7,43.7 C42.7,43.7 42.7,43.6 42.7,43.6 C42.7,39 39,35.3 34.5,35.3 Z M34.5,49.8 C31.1,49.9 28.3,47.1 28.2,43.7 C28.1,40.3 30.9,37.5 34.3,37.4 C37.7,37.3 40.5,40.1 40.6,43.5 C40.6,43.5 40.6,43.6 40.6,43.6 C40.6,47 37.9,49.7 34.5,49.8 Z" fill-rule="nonzero"></path>
                    <path d="M37.4,42.4 L35.5,42.4 L35.5,40.5 C35.5,39.9 35,39.4 34.4,39.4 C33.8,39.4 33.3,39.9 33.3,40.5 C33.3,40.5 33.3,40.5 33.3,40.5 L33.3,42.4 L31.4,42.4 C30.8,42.4 30.3,42.9 30.3,43.5 C30.3,44.1 30.8,44.6 31.4,44.6 L33.3,44.6 L33.3,46.5 C33.3,47.1 33.8,47.6 34.4,47.6 C35,47.6 35.5,47.1 35.5,46.5 C35.5,46.5 35.5,46.5 35.5,46.5 L35.5,44.6 L37.4,44.6 C38,44.6 38.5,44.1 38.5,43.5 C38.5,42.9 38,42.4 37.4,42.4 Z" fill-rule="nonzero"></path>
                </g>
            </g>
        </g>
    </g>
</svg>