<?xml version="1.0" encoding="UTF-8" standalone="no"?>
<svg width="49px" height="49px" viewBox="0 0 49 49" version="1.1" xmlns="http://www.w3.org/2000/svg" xmlns:xlink="http://www.w3.org/1999/xlink">
    <!-- Generator: Sketch 48 (47235) - http://www.bohemiancoding.com/sketch -->
    <title>Alert</title>
    <desc>Created with Sketch.</desc>
    <defs></defs>
    <g id="Icons" stroke="none" stroke-width="1" fill="none" fill-rule="evenodd" transform="translate(-855.000000, -407.000000)">
        <g id="Alert" transform="translate(847.000000, 399.000000)">
            <rect id="Rectangle-4-Copy-18" x="0" y="0" width="64" height="64"></rect>
            <g id="notification" transform="translate(8.000000, 8.000000)">
                <g>
                    <circle id="Oval" fill="#F4BD48" fill-rule="nonzero" cx="24.2" cy="24.5" r="24"></circle>
                    <path d="M32.2,20.4 L32.1,15.6 C32.1,15.2 31.9,14.8 31.5,14.6 C31,14.5 30.6,14.7 30.1,15.3 C28.4,17.7 25.7,19 22.8,19.1 L22.6,19.1 C22.5,19.1 22.5,19.1 22.4,19.1 L18,19.5 C16.5,19.5 15.3,20.7 15.3,22.2 L15.3,24.8 C15.3,25.6 15.6,26.4 16.1,27 C16.6,27.5 17.2,27.7 17.9,27.7 C18.4,27.7 19,27.8 19.5,27.9 L19.5,33.6 C19.5,34.4 20.2,35.1 21,35.1 L22.1,35.1 C22.9,35.1 23.6,34.4 23.6,33.6 L23.6,27.1 C28.3,27.8 30.1,30.7 30.2,30.8 L30.3,30.9 C30.5,31.2 30.9,31.4 31.3,31.5 C31.4,31.5 31.5,31.5 31.6,31.4 C32,31.2 32.2,30.8 32.2,30.4 L32.2,25.9 L32.3,25.9 C33.8,25.2 34.4,23.4 33.7,21.9 C33.3,21.2 32.8,20.7 32.2,20.4 Z M21,33.6 L21,27.7 C21,27.4 20.9,27.1 20.6,26.9 C19.8,26.4 18.8,26.1 17.9,26.2 C17.6,26.2 17.4,26.1 17.2,25.9 C16.9,25.6 16.8,25.2 16.8,24.7 L16.8,22.1 C16.8,21.4 17.4,20.9 18.1,20.9 C18.1,20.9 18.1,20.9 18.1,20.9 L22.1,20.5 L22.1,26.1 C22.1,26.1 22.1,26.1 22.1,26.2 C22.1,26.2 22.1,26.3 22.1,26.4 L22.1,26.7 C22.1,26.7 22.1,26.7 22.1,26.8 L22.1,33.6 L21,33.6 Z M30.6,28.9 C28.7,27 26.2,25.9 23.6,25.6 L23.6,20.5 C26.3,20.3 28.8,19.1 30.6,17.1 L30.6,28.9 Z M32.1,23.9 L32.1,22.3 C32.4,22.8 32.4,23.4 32.1,23.9 Z" id="Shape" fill="#FFFFFF" fill-rule="nonzero"></path>
                </g>
            </g>
        </g>
    </g>
</svg>