<?xml version="1.0" encoding="UTF-8" standalone="no"?>
<svg width="45px" height="23px" viewBox="0 0 45 23" version="1.1" xmlns="http://www.w3.org/2000/svg" xmlns:xlink="http://www.w3.org/1999/xlink">
    <!-- Generator: Sketch 48 (47235) - http://www.bohemiancoding.com/sketch -->
    <title>Arrow down</title>
    <desc>Created with Sketch.</desc>
    <defs></defs>
    <g id="Icons" stroke="none" stroke-width="1" fill="none" fill-rule="evenodd" transform="translate(-858.000000, -190.000000)">
        <g id="Arrow-down" transform="translate(848.000000, 169.000000)">
            <rect id="Rectangle-4-Copy-49" x="0" y="0" width="64" height="64"></rect>
            <g id="arrow_down" transform="translate(10.000000, 21.000000)" fill="#767676">
                <g transform="translate(22.500000, 11.500000) scale(1, -1) rotate(-270.000000) translate(-22.500000, -11.500000) translate(11.000000, -11.000000)" id="Shape">
                    <path d="M8.6,20.3 L21.7,4.8 C22.7,3.6 22.6,1.8 21.4,0.8 C20.2,-0.2 18.4,-0.1 17.4,1.1 L1.1,20.3 C0.2,21.4 0.2,22.9 1.1,24 L17.7,43.5 C18.7,44.7 20.5,44.8 21.7,43.8 C22.9,42.8 23,41 22,39.8 L8.6,24 C7.7,22.9 7.7,21.4 8.6,20.3 Z" fill-rule="nonzero"></path>
                </g>
            </g>
        </g>
    </g>
</svg>