<?xml version="1.0" encoding="UTF-8" standalone="no"?>
<svg width="45px" height="23px" viewBox="0 0 45 23" version="1.1" xmlns="http://www.w3.org/2000/svg" xmlns:xlink="http://www.w3.org/1999/xlink">
    <!-- Generator: Sketch 48 (47235) - http://www.bohemiancoding.com/sketch -->
    <title>Arrow up</title>
    <desc>Created with Sketch.</desc>
    <defs></defs>
    <g id="Icons" stroke="none" stroke-width="1" fill="none" fill-rule="evenodd" transform="translate(-744.000000, -190.000000)">
        <g id="Arrow-up" transform="translate(734.000000, 169.000000)">
            <rect id="Rectangle-4-Copy-48" x="0" y="0" width="64" height="64"></rect>
            <g id="arrow_up" transform="translate(9.000000, 20.000000)" fill="#767676">
                <g transform="translate(23.500000, 12.000000) rotate(-90.000000) translate(-23.500000, -12.000000) translate(12.000000, -11.000000)" id="Shape">
                    <path d="M14.2,25 L1,40.5 C1.44675938e-15,41.7 0.1,43.5 1.3,44.5 C2.5,45.5 4.3,45.4 5.3,44.2 L21.6,25 C22.5,23.9 22.5,22.4 21.6,21.3 L5,1.8 C4,0.6 2.2,0.5 1,1.5 C-0.2,2.5 -0.3,4.3 0.7,5.5 L14.2,21.3 C15.1,22.4 15.1,23.9 14.2,25 Z" fill-rule="nonzero"></path>
                </g>
            </g>
        </g>
    </g>
</svg>