<?xml version="1.0" encoding="UTF-8" standalone="no"?>
<svg width="41px" height="42px" viewBox="0 0 41 42" version="1.1" xmlns="http://www.w3.org/2000/svg" xmlns:xlink="http://www.w3.org/1999/xlink">
    <!-- Generator: Sketch 48 (47235) - http://www.bohemiancoding.com/sketch -->
    <title>Chat</title>
    <desc>Created with Sketch.</desc>
    <defs></defs>
    <g id="Icons" stroke="none" stroke-width="1" fill="none" fill-rule="evenodd" transform="translate(-974.000000, -532.000000)">
        <g id="Chat" transform="translate(962.000000, 520.000000)">
            <rect id="Rectangle-4-Copy-7" x="0" y="0" width="64" height="64"></rect>
            <g id="chat1" transform="translate(12.000000, 12.000000)" fill="#5D5D5D">
                <g id="Shape">
                    <path d="M8.8,41.8 C8,41.8 7.3,41.1 7.3,40.3 L7.3,30.5 L3.7,30.5 C1.7,30.5 0.1,28.9 0.1,26.9 L0.1,4.4 C0.1,2.4 1.7,0.9 3.6,0.8 L37.4,0.8 C39.4,0.8 41,2.4 41,4.4 L41,26.9 C41,28.9 39.4,30.5 37.4,30.5 L22.3,30.5 L9.8,41.5 C9.5,41.7 9.2,41.8 8.8,41.8 Z M37.5,3.8 L3.7,3.8 C3.4,3.8 3.1,4.1 3.1,4.4 L3.1,26.9 C3.1,27.2 3.4,27.5 3.7,27.5 L8.8,27.5 C9.6,27.5 10.3,28.2 10.3,29 L10.3,37 L20.7,27.8 C21,27.6 21.3,27.4 21.7,27.4 L37.5,27.4 C37.8,27.4 38.1,27.1 38.1,26.8 L38.1,4.4 C38.2,4.1 37.9,3.8 37.5,3.8 Z" fill-rule="nonzero"></path>
                </g>
            </g>
        </g>
    </g>
</svg>