<?xml version="1.0" encoding="UTF-8" standalone="no"?>
<svg width="39px" height="49px" viewBox="0 0 39 49" version="1.1" xmlns="http://www.w3.org/2000/svg" xmlns:xlink="http://www.w3.org/1999/xlink">
    <!-- Generator: Sketch 48 (47235) - http://www.bohemiancoding.com/sketch -->
    <title>Chemistry</title>
    <desc>Created with Sketch.</desc>
    <defs></defs>
    <g id="Icons" stroke="none" stroke-width="1" fill="none" fill-rule="evenodd" transform="translate(-975.000000, -643.000000)">
        <g id="Chemistry" transform="translate(962.000000, 635.000000)">
            <rect id="Rectangle-4-Copy-22" x="0" y="0" width="64" height="64"></rect>
            <g id="icon1" transform="translate(13.000000, 8.000000)" fill="#5D5D5D">
                <g>
                    <path d="M37.3,43.2 L27.8,28.4 C27,26.9 26.5,25.2 26.4,23.5 L26.4,17 L27.6,17 C28.3,17 28.9,16.4 28.9,15.7 C28.9,15.7 28.9,15.7 28.9,15.7 L28.9,14.3 C28.9,13.6 28.3,13 27.6,13 L11.1,13 C10.4,13 9.8,13.6 9.7,14.3 C9.7,14.3 9.7,14.3 9.7,14.3 L9.7,15.7 C9.7,16.4 10.3,17 11.1,17 L11.7,17 L11.7,23.4 C11.6,25.1 11.1,26.8 10.3,28.3 L0.8,43.1 C-0.1,44.3 -0.2,45.8 0.5,47.1 C1.3,48.3 2.6,49 4.1,48.9 L34.1,48.9 C35.5,49 36.9,48.3 37.7,47.1 C38.3,45.9 38.2,44.3 37.3,43.2 Z M12.5,29.8 C13.6,27.9 14.3,25.7 14.4,23.5 L14.4,15.7 L23.7,15.7 L23.7,23.5 C23.8,25.7 24.4,27.9 25.5,29.8 L28.7,34.7 C27.4,35.1 26,35.3 24.6,35.3 C23.7,35.3 22.7,35.2 21.8,35.1 C21.4,33.5 19.8,32.5 18.2,32.9 C17.4,33.1 16.7,33.6 16.3,34.3 C14.3,33.8 12.2,33.6 10.1,33.6 L12.5,29.8 Z M35.3,45.9 C35.1,46.3 34.4,46.4 34.1,46.4 L4,46.4 C3.6,46.4 3,46.3 2.8,45.9 C2.6,45.5 2.9,44.9 3,44.6 L8.1,36.6 C10.7,36 13.1,36.4 16,37 L16.2,37 C17,38.4 18.8,39 20.3,38.2 C20.5,38.1 20.7,37.9 20.9,37.7 C22.1,37.9 23.3,38 24.5,38 C26.4,38 28.3,37.7 30.1,37 L34.9,44.6 C35.2,44.9 35.5,45.5 35.3,45.9 Z" id="Shape" fill-rule="nonzero"></path>
                    <circle id="Oval" fill-rule="nonzero" cx="17.6" cy="23.5" r="1.7"></circle>
                    <ellipse id="Oval" fill-rule="nonzero" cx="22" cy="2.7" rx="2.8" ry="2.7"></ellipse>
                    <circle id="Oval" fill-rule="nonzero" cx="16.3" cy="7.9" r="2.4"></circle>
                </g>
            </g>
        </g>
    </g>
</svg>