<?xml version="1.0" encoding="UTF-8" standalone="no"?>
<svg width="57px" height="49px" viewBox="0 0 57 49" version="1.1" xmlns="http://www.w3.org/2000/svg" xmlns:xlink="http://www.w3.org/1999/xlink">
    <!-- Generator: Sketch 48 (47235) - http://www.bohemiancoding.com/sketch -->
    <title>Code</title>
    <desc>Created with Sketch.</desc>
    <defs></defs>
    <g id="Icons" stroke="none" stroke-width="1" fill="none" fill-rule="evenodd" transform="translate(-505.000000, -528.000000)">
        <g id="Code" transform="translate(501.000000, 520.000000)">
            <rect id="Rectangle-4-Copy-3" x="0" y="0" width="64" height="64"></rect>
            <g id="code" transform="translate(4.000000, 8.000000)" fill="#5D5D5D">
                <g id="Shape">
                    <path d="M20,14 C20,13.5 19.8,13.1 19.4,12.9 C18.8,12.5 17.9,12.5 17.3,12.9 L0.9,24.9 L17.3,36.9 C17.6,37.1 17.9,37.2 18.3,37.2 C18.7,37.2 19,37.1 19.3,36.9 C19.9,36.5 20.1,35.6 19.7,35 C19.6,34.9 19.5,34.7 19.3,34.6 L6.1,24.8 L19.4,15.1 C19.8,14.8 20,14.4 20,14 Z" fill-rule="nonzero"></path>
                    <path d="M40.5,12.8 C39.9,12.4 39,12.4 38.4,12.8 C37.8,13.2 37.6,14.1 38,14.7 C38.1,14.8 38.2,15 38.4,15.1 L51.7,24.8 L38.4,34.5 C37.8,34.9 37.6,35.8 38,36.4 C38.1,36.5 38.2,36.7 38.4,36.8 C39,37.2 39.9,37.2 40.5,36.8 L56.9,24.8 L40.5,12.8 Z" fill-rule="nonzero"></path>
                    <path d="M36.8,1.1 L36.2,0.9 C35.9,0.8 35.6,0.8 35.4,1 C35.1,1.1 34.9,1.3 34.9,1.6 L19.1,47.2 C18.9,47.7 19.2,48.3 19.7,48.5 L19.8,48.5 L20.4,48.7 C20.6,48.7 20.7,48.7 20.9,48.7 C21,48.7 21.1,48.6 21.2,48.6 C21.5,48.5 21.7,48.3 21.7,48 L37.4,2.3 C37.6,1.8 37.3,1.2 36.8,1.1 Z" fill-rule="nonzero"></path>
                </g>
            </g>
        </g>
    </g>
</svg>