<?xml version="1.0" encoding="UTF-8" standalone="no"?>
<svg width="52px" height="43px" viewBox="0 0 52 43" version="1.1" xmlns="http://www.w3.org/2000/svg" xmlns:xlink="http://www.w3.org/1999/xlink">
    <!-- Generator: Sketch 48 (47235) - http://www.bohemiancoding.com/sketch -->
    <title>Cogs</title>
    <desc>Created with Sketch.</desc>
    <defs></defs>
    <g id="Icons" stroke="none" stroke-width="1" fill="none" fill-rule="evenodd" transform="translate(-626.000000, -1102.000000)">
        <g id="Cogs" transform="translate(620.000000, 1091.000000)">
            <rect id="Rectangle-4-Copy-43" x="0" y="0" width="64" height="64"></rect>
            <g id="setting1" transform="translate(7.000000, 12.000000)" stroke="#5D5D5D" stroke-linecap="round" stroke-linejoin="round">
                <g>
                    <path d="M48.3,9 L47,9 C46.7,9 46.4,8.8 46.3,8.4 L45.5,6.5 C45.4,6.2 45.4,5.8 45.6,5.6 L46.5,4.6 C46.7,4.4 46.7,4 46.5,3.8 L45.4,2.7 C45.2,2.5 44.8,2.5 44.6,2.7 C44.6,2.7 44.6,2.7 44.6,2.7 L43.7,3.7 C43.5,3.9 43.1,4 42.8,3.8 L41,3 C40.7,2.9 40.5,2.6 40.5,2.3 L40.5,0.9 C40.5,0.6 40.3,0.3 39.9,0.3 C39.9,0.3 39.9,0.3 39.9,0.3 L38.4,0.3 C38.1,0.3 37.8,0.6 37.8,0.9 C37.8,0.9 37.8,0.9 37.8,0.9 L37.8,2.3 C37.8,2.6 37.6,2.9 37.3,3 L35.4,3.8 C35.1,3.9 34.8,3.9 34.5,3.7 L33.6,2.7 C33.4,2.5 33,2.5 32.8,2.7 C32.8,2.7 32.8,2.7 32.8,2.7 L31.7,3.8 C31.5,4 31.5,4.4 31.7,4.6 L32.6,5.6 C32.8,5.9 32.9,6.2 32.7,6.5 L31.9,8.4 C32,8.7 31.7,9 31.4,9 L30,9 C29.7,9 29.4,9.3 29.4,9.6 C29.4,9.6 29.4,9.6 29.4,9.6 L29.4,11.2 C29.4,11.5 29.6,11.8 30,11.8 C30,11.8 30,11.8 30,11.8 L31.3,11.8 C31.6,11.8 31.9,12 32,12.3 L32.8,14.2 C32.9,14.5 32.9,14.9 32.7,15.1 L31.8,16.1 C31.6,16.3 31.6,16.7 31.8,16.9 L32.9,18 C33.1,18.2 33.5,18.2 33.7,18 C33.7,18 33.7,18 33.7,18 L34.6,17 C34.8,16.8 35.2,16.7 35.5,16.9 L37.4,17.7 C37.7,17.8 37.9,18.1 37.9,18.4 L37.9,19.8 C37.9,20.1 38.1,20.4 38.5,20.4 C38.5,20.4 38.5,20.4 38.5,20.4 L40,20.4 C40.3,20.4 40.6,20.1 40.6,19.8 C40.6,19.8 40.6,19.8 40.6,19.8 L40.6,18.5 C40.6,18.2 40.8,17.9 41.1,17.8 L43,17 C43.3,16.9 43.6,16.9 43.9,17.1 L44.8,18.1 C45,18.3 45.3,18.3 45.6,18.1 C45.6,18.1 45.6,18.1 45.6,18.1 L46.7,17 C46.9,16.8 46.9,16.4 46.7,16.2 L45.8,15.2 C45.6,14.9 45.5,14.6 45.7,14.3 L46.5,12.4 C46.6,12.1 46.9,11.9 47.2,11.9 L48.5,11.9 C48.8,11.9 49.1,11.6 49.1,11.3 C49.1,11.3 49.1,11.3 49.1,11.3 L49.1,9.7 C48.9,9.3 48.6,9 48.3,9 Z" id="Shape" stroke-width="2"></path>
                    <path d="M30.4,22.3 L28.3,22.3 C27.8,22.3 27.3,21.9 27.2,21.4 L26,18.4 C25.8,17.9 25.9,17.4 26.2,17 L27.7,15.5 C28,15.1 28,14.6 27.7,14.2 L26,12.5 C25.7,12.2 25.1,12.1 24.8,12.5 C24.8,12.5 24.8,12.5 24.8,12.5 L23.3,14 C22.9,14.4 22.4,14.4 21.9,14.2 L19,13 C18.5,12.8 18.2,12.4 18.2,11.8 L18.2,9.6 C18.2,9.1 17.8,8.7 17.3,8.7 L14.9,8.7 C14.4,8.7 14,9.1 14,9.6 C14,9.6 14,9.6 14,9.6 L14,11.8 C14,12.3 13.7,12.8 13.2,13 L10.3,14.2 C9.8,14.4 9.3,14.3 8.9,14 L7.4,12.5 C7.1,12.2 6.5,12.1 6.2,12.5 C6.2,12.5 6.2,12.5 6.2,12.5 L4.5,14.3 C4.2,14.7 4.2,15.2 4.5,15.6 L6,17 C6.3,17.4 6.4,18 6.2,18.4 L5,21.4 C4.8,21.9 4.4,22.2 3.9,22.3 L1.8,22.3 C1.3,22.3 0.9,22.7 0.9,23.2 C0.9,23.2 0.9,23.2 0.9,23.2 L0.9,25.7 C0.9,26.2 1.3,26.6 1.8,26.6 C1.8,26.6 1.8,26.6 1.8,26.6 L3.9,26.6 C4.4,26.6 4.9,27 5,27.5 L6.2,30.5 C6.5,31 6.4,31.6 6,32 L4.5,33.5 C4.2,33.9 4.2,34.4 4.5,34.8 L6.2,36.6 C6.5,36.9 7.1,37 7.4,36.6 C7.4,36.6 7.4,36.6 7.4,36.6 L8.9,35.1 C9.3,34.7 9.8,34.7 10.3,34.9 L13.2,36.1 C13.7,36.3 14,36.8 14,37.3 L14,39.5 C14,40 14.4,40.4 14.9,40.4 C14.9,40.4 14.9,40.4 14.9,40.4 L17.3,40.4 C17.8,40.4 18.2,40 18.2,39.5 L18.2,37.3 C18.2,36.8 18.5,36.3 19,36.1 L21.9,34.9 C22.4,34.7 22.9,34.7 23.3,35.1 L24.8,36.6 C25.1,36.9 25.7,37 26,36.6 C26,36.6 26,36.6 26,36.6 L27.7,34.8 C28,34.4 28,33.9 27.7,33.5 L26.2,32 C25.8,31.6 25.7,31 26,30.5 L27.2,27.5 C27.4,27 27.8,26.7 28.3,26.6 L30.4,26.6 C30.9,26.6 31.3,26.2 31.3,25.7 L31.3,23.2 C31.3,22.8 30.9,22.4 30.4,22.3 Z" id="Shape" stroke-width="2"></path>
                    <ellipse id="Oval" stroke-width="2" cx="39.2" cy="10.3" rx="2.4" ry="2.5"></ellipse>
                    <ellipse id="Oval" stroke-width="2" cx="16.1" cy="24.5" rx="3.8" ry="4"></ellipse>
                </g>
            </g>
        </g>
    </g>
</svg>