<?xml version="1.0" encoding="UTF-8" standalone="no"?>
<svg width="55px" height="47px" viewBox="0 0 55 47" version="1.1" xmlns="http://www.w3.org/2000/svg" xmlns:xlink="http://www.w3.org/1999/xlink">
    <!-- Generator: Sketch 48 (47235) - http://www.bohemiancoding.com/sketch -->
    <title>Desktop</title>
    <desc>Created with Sketch.</desc>
    <defs></defs>
    <g id="Icons" stroke="none" stroke-width="1" fill="none" fill-rule="evenodd" transform="translate(-1081.000000, -646.000000)">
        <g id="Desktop" transform="translate(1076.000000, 635.000000)">
            <rect id="Rectangle-4-Copy-23" x="0" y="0" width="64" height="64"></rect>
            <g id="icon2" transform="translate(5.000000, 11.000000)" fill="#5D5D5D">
                <g id="Shape">
                    <path d="M52,0.5 L3.8,0.5 C2.2,0.5 0.9,1.8 0.9,3.5 L0.9,36.4 C0.9,38 2.2,39.4 3.8,39.4 L21,39.4 C21,40.2 20.9,41 20.7,41.7 C20.2,42.2 19.6,42.7 19,43.2 L19,43.3 C18.8,43.4 18.7,43.6 18.6,43.8 L18.6,43.9 C18.6,44 18.5,44.1 18.5,44.2 L18.5,44.3 C18.4,44.9 18.5,45.5 18.9,46 C19.2,46.3 19.6,46.5 20,46.5 L36.1,46.5 C36.5,46.5 37,46.3 37.3,46 C37.6,45.6 37.8,45.2 37.8,44.7 C37.9,44.1 37.6,43.6 37.2,43.2 L37.1,43.1 C36.5,42.6 35.9,42.1 35.4,41.6 C35.2,40.8 35.1,40 35.1,39.3 L52,39.3 C53.6,39.3 54.9,38 54.9,36.3 L54.9,3.5 C54.9,1.8 53.6,0.5 52,0.5 Z M32.9,43 L28.4,43.1 L23.2,43.1 C23.7,41.9 23.9,40.6 23.9,39.3 L32.4,39.3 C32.3,40.6 32.5,41.8 32.9,43 Z M52.1,36.3 C52.1,36.4 52,36.4 52.1,36.3 L3.8,36.4 C3.7,36.4 3.7,36.3 3.7,36.3 L3.7,3.5 C3.7,3.4 3.8,3.4 3.8,3.4 L52,3.4 C52.1,3.4 52.1,3.5 52.1,3.5 L52.1,36.3 Z" fill-rule="nonzero"></path>
                </g>
            </g>
        </g>
    </g>
</svg>