<?xml version="1.0" encoding="UTF-8" standalone="no"?>
<svg width="49px" height="48px" viewBox="0 0 49 48" version="1.1" xmlns="http://www.w3.org/2000/svg" xmlns:xlink="http://www.w3.org/1999/xlink">
    <!-- Generator: Sketch 48 (47235) - http://www.bohemiancoding.com/sketch -->
    <title>Error</title>
    <desc>Created with Sketch.</desc>
    <defs></defs>
    <g id="Icons" stroke="none" stroke-width="1" fill="none" fill-rule="evenodd" transform="translate(-513.000000, -407.000000)">
        <g id="Error" transform="translate(505.000000, 399.000000)">
            <rect id="Rectangle-4-Copy-15" x="0" y="0" width="64" height="64"></rect>
            <g id="deny_red" transform="translate(8.000000, 8.000000)">
                <g>
                    <path d="M22.1,47.9 C36.9,49.1 49.1,36.8 48,22 C47,10.4 37.6,1 25.9,0.1 C11.2,-1.1 -1.1,11.2 0.1,25.9 C1,37.6 10.4,47 22.1,47.9 Z" id="SVGID_1_" fill="#FF545A"></path>
                    <path d="M32.2,22.2 L15.2,22.2 C14.4,22.2 13.7,22.9 13.7,23.7 C13.7,24.5 14.4,25.2 15.2,25.2 L32.2,25.2 C33,25.2 33.7,24.5 33.7,23.7 C33.8,22.9 33.1,22.2 32.2,22.2 Z" id="SVGID_5_" fill="#FFFFFF" fill-rule="nonzero"></path>
                </g>
            </g>
        </g>
    </g>
</svg>