<?xml version="1.0" encoding="UTF-8" standalone="no"?>
<svg width="43px" height="42px" viewBox="0 0 43 42" version="1.1" xmlns="http://www.w3.org/2000/svg" xmlns:xlink="http://www.w3.org/1999/xlink">
    <!-- Generator: Sketch 48 (47235) - http://www.bohemiancoding.com/sketch -->
    <title>Expand</title>
    <desc>Created with Sketch.</desc>
    <defs></defs>
    <g id="Icons" stroke="none" stroke-width="1" fill="none" fill-rule="evenodd" transform="translate(-631.000000, -646.000000)">
        <g id="Expand" transform="translate(620.000000, 634.000000)">
            <rect id="Rectangle-4-Copy-19" x="0" y="0" width="64" height="64"></rect>
            <g id="expand" transform="translate(11.000000, 11.000000)" fill="#5D5D5D">
                <g id="Shape">
                    <path d="M24.2,20.8 C24.6,20.8 24.9,20.7 25.2,20.4 L40,5.7 L40.2,13.4 C40.2,14.1 40.8,14.7 41.6,14.7 C42.4,14.7 43,14.1 42.9,13.3 L42.7,2.6 C42.7,1.9 42.1,1.3 41.4,1.3 L30.5,1 C29.7,1 29.1,1.6 29.1,2.3 C29.1,3.1 29.7,3.7 30.4,3.7 L37.8,3.8 L23.3,18.5 C22.8,19 22.8,19.9 23.3,20.4 C23.5,20.7 23.9,20.8 24.2,20.8 Z" fill-rule="nonzero"></path>
                    <path d="M18.5,23.6 L3.8,38.3 L3.6,30.6 C3.6,29.8 3,29.2 2.2,29.3 C1.4,29.3 0.8,29.9 0.9,30.7 L1.1,41.5 C1.1,42.2 1.7,42.8 2.4,42.8 L13.2,43 C14,43 14.6,42.4 14.6,41.6 C14.6,40.8 14,40.2 13.2,40.2 L5.8,40 L20.4,25.4 C20.9,24.9 20.9,24 20.4,23.5 C19.9,23 19,23 18.5,23.6 Z" fill-rule="nonzero"></path>
                    <path d="M41.5,29.3 C40.7,29.3 40.1,29.9 40.1,30.6 L39.9,38 L25.4,23.4 C24.9,22.9 24,22.9 23.5,23.4 C23,23.9 23,24.8 23.5,25.3 L38.2,40 L30.5,40.2 C29.7,40.2 29.1,40.8 29.1,41.6 C29.1,42.4 29.7,43 30.5,43 L41.3,42.8 C42,42.8 42.6,42.2 42.6,41.5 L42.8,30.7 C42.8,29.9 42.2,29.3 41.5,29.3 Z" fill-rule="nonzero"></path>
                    <path d="M2.2,14.7 C2.9,14.7 3.6,14.1 3.6,13.4 L3.7,6 L18.3,20.6 C18.8,21.1 19.7,21.1 20.2,20.6 C20.7,20.1 20.7,19.2 20.2,18.7 L5.6,3.9 L13.3,3.7 C14.1,3.7 14.7,3.1 14.6,2.3 C14.6,1.5 14,0.9 13.2,1 L2.4,1.2 C1.7,1.2 1.1,1.8 1.1,2.5 L0.9,13.3 C0.8,14.1 1.4,14.7 2.2,14.7 Z" fill-rule="nonzero"></path>
                </g>
            </g>
        </g>
    </g>
</svg>