<?xml version="1.0" encoding="UTF-8" standalone="no"?>
<svg width="49px" height="45px" viewBox="0 0 49 45" version="1.1" xmlns="http://www.w3.org/2000/svg" xmlns:xlink="http://www.w3.org/1999/xlink">
    <!-- Generator: Sketch 48 (47235) - http://www.bohemiancoding.com/sketch -->
    <title>Graph</title>
    <desc>Created with Sketch.</desc>
    <defs></defs>
    <g id="Icons" stroke="none" stroke-width="1" fill="none" fill-rule="evenodd" transform="translate(-509.000000, -758.000000)">
        <g id="Graph" transform="translate(501.000000, 748.000000)">
            <rect id="Rectangle-4-Copy-24" x="0" y="0" width="64" height="64"></rect>
            <g id="icon3" transform="translate(8.000000, 10.000000)" fill="#5D5D5D">
                <g id="Shape">
                    <path d="M17,10.4 C16.1,10.4 15.5,11.1 15.5,12 L15.5,42.5 C15.4,43.3 16.1,44.1 16.9,44.1 C17.7,44.1 18.5,43.5 18.5,42.7 C18.5,42.6 18.5,42.5 18.5,42.5 L18.5,12 C18.5,11.1 17.9,10.5 17,10.4 Z" fill-rule="nonzero"></path>
                    <path d="M2,23.1 C1.2,23.1 0.5,23.8 0.5,24.6 L0.5,42.5 C0.4,43.3 1.1,44.1 1.9,44.1 C2.7,44.2 3.5,43.5 3.5,42.7 C3.5,42.6 3.5,42.5 3.5,42.5 L3.5,24.6 C3.6,23.8 2.9,23.1 2,23.1 Z" fill-rule="nonzero"></path>
                    <path d="M9.5,17.2 C8.7,17.2 8,17.9 8,18.8 L8,42.5 C7.9,43.3 8.6,44.1 9.4,44.1 C10.2,44.2 11,43.5 11,42.7 C11,42.6 11,42.5 11,42.5 L11,18.8 C11.1,17.9 10.4,17.2 9.5,17.2 Z" fill-rule="nonzero"></path>
                    <path d="M24.5,17.5 C23.7,17.5 23,18.2 23,19.1 L23,42.5 C22.9,43.3 23.6,44.1 24.4,44.1 C25.2,44.1 26,43.5 26,42.7 C26,42.6 26,42.5 26,42.5 L26,19.1 C26.1,18.2 25.4,17.5 24.5,17.5 Z" fill-rule="nonzero"></path>
                    <path d="M47,12.7 C46.2,12.7 45.5,13.4 45.5,14.2 L45.5,42.4 C45.4,43.2 46.1,44 46.9,44 C47.7,44.1 48.5,43.4 48.5,42.6 C48.5,42.5 48.5,42.4 48.5,42.4 L48.5,14.3 C48.5,13.4 47.8,12.7 47,12.7 Z" fill-rule="nonzero"></path>
                    <path d="M46.7,8.5 C47.5,8.5 48.2,7.8 48.2,6.9 L48.1,1.5 C48.1,1.1 47.9,0.7 47.6,0.4 C47.3,0.1 46.9,0 46.4,0 L41.1,0.5 C40.2,0.5 39.6,1.3 39.6,2.1 C39.6,2.9 40.4,3.6 41.2,3.6 L42.7,3.5 L32,15.6 L18,1.8 C17.4,1.2 16.5,1.2 15.9,1.8 L1,15.6 C0.4,16.2 0.3,17.1 0.9,17.8 C1.2,18 1.6,18.2 2,18.2 C2.4,18.2 2.8,18.1 3.1,17.8 L16.9,5 L30.9,18.9 C31.5,19.5 32.4,19.5 33,18.9 C33,18.9 33,18.9 33.1,18.8 L45.1,5.4 L45.1,7 C45.1,7.8 45.8,8.5 46.7,8.5 Z" fill-rule="nonzero"></path>
                    <path d="M32,23 C31.2,23 30.5,23.7 30.5,24.5 L30.5,42.4 C30.4,43.2 31.1,44 31.9,44 C32.7,44.1 33.5,43.4 33.5,42.6 C33.5,42.5 33.5,42.4 33.5,42.4 L33.5,24.6 C33.5,23.7 32.9,23 32,23 Z" fill-rule="nonzero"></path>
                    <path d="M39.5,17.3 C38.7,17.3 38,18 38,18.8 L38,42.4 C37.9,43.2 38.6,44 39.4,44 C40.2,44.1 41,43.4 41,42.6 C41,42.5 41,42.4 41,42.4 L41,18.8 C41.1,18 40.4,17.3 39.5,17.3 Z" fill-rule="nonzero"></path>
                </g>
            </g>
        </g>
    </g>
</svg>