<?xml version="1.0" encoding="UTF-8" standalone="no"?>
<svg width="45px" height="45px" viewBox="0 0 45 45" version="1.1" xmlns="http://www.w3.org/2000/svg" xmlns:xlink="http://www.w3.org/1999/xlink">
    <!-- Generator: Sketch 48 (47235) - http://www.bohemiancoding.com/sketch -->
    <title>Group 24</title>
    <desc>Created with Sketch.</desc>
    <defs></defs>
    <g id="Icons" stroke="none" stroke-width="1" fill="none" fill-rule="evenodd" transform="translate(-744.000000, -758.000000)">
        <g id="Group-24" transform="translate(734.000000, 748.000000)">
            <rect id="Rectangle-4-Copy-26" x="0" y="0" width="64" height="64"></rect>
            <g id="icon5" transform="translate(10.000000, 10.000000)" fill="#5D5D5D">
                <g id="Shape">
                    <path d="M40.6,1.8 C40.6,1.1 40,0.5 39.3,0.5 L3.3,0.5 C2,0.5 0.9,1.6 0.9,2.9 L0.9,38.9 C0.9,39.6 1.5,40.2 2.2,40.2 C2.9,40.2 3.5,39.6 3.5,38.9 L3.5,3.1 L39.3,3.1 C40.1,3.1 40.6,2.5 40.6,1.8 Z" fill-rule="nonzero"></path>
                    <path d="M43.7,6 L7.7,6 C7,6 6.4,6.6 6.4,7.3 C6.4,7.3 6.4,7.3 6.4,7.3 L6.4,43.3 C6.4,44 7,44.6 7.7,44.6 C7.7,44.6 7.7,44.6 7.7,44.6 L43.7,44.6 C44.4,44.6 45,44.1 45,43.4 C45,43.4 45,43.4 45,43.4 L45,7.4 C45,6.6 44.5,6 43.7,6 C43.7,6 43.7,6 43.7,6 Z M42.4,42 L9,42 L9,8.6 L42.4,8.6 L42.4,42 Z" fill-rule="nonzero"></path>
                    <path d="M29.1,30.5 L22.4,30.5 C21.7,30.5 21.1,31.1 21.1,31.8 C21.1,32.5 21.7,33.1 22.4,33.1 L30.7,33.1 C32.2,33.1 33.3,31.9 33.4,30.4 L33.4,22 C33.4,21.3 32.8,20.7 32.1,20.7 C32.1,20.7 32.1,20.7 32.1,20.7 C31.4,20.7 30.9,21.3 30.9,21.9 L30.9,28.6 L19.4,17.2 C18.9,16.7 18.1,16.7 17.6,17.2 C17.1,17.7 17.1,18.5 17.6,19 L29.1,30.5 Z" fill-rule="nonzero"></path>
                </g>
            </g>
        </g>
    </g>
</svg>