<?xml version="1.0" encoding="UTF-8" standalone="no"?>
<svg width="48px" height="47px" viewBox="0 0 48 47" version="1.1" xmlns="http://www.w3.org/2000/svg" xmlns:xlink="http://www.w3.org/1999/xlink">
    <!-- Generator: Sketch 48 (47235) - http://www.bohemiancoding.com/sketch -->
    <title>Group 33</title>
    <desc>Created with Sketch.</desc>
    <defs></defs>
    <g id="Icons" stroke="none" stroke-width="1" fill="none" fill-rule="evenodd" transform="translate(-1084.000000, -532.000000)">
        <g id="Group-33" transform="translate(1076.000000, 520.000000)">
            <rect id="Rectangle-4-Copy-8" x="0" y="0" width="64" height="64"></rect>
            <g id="chat2" transform="translate(8.000000, 12.000000)" fill="#5D5D5D">
                <g>
                    <path d="M44,0.3 L3.9,0.3 C1.7,0.4 0,2.1 0,4.3 L0,31.5 C0,33.7 1.8,35.5 3.9,35.5 L15.5,35.5 L22.7,45.7 C23.2,46.4 24.1,46.5 24.8,46 C24.9,45.9 25,45.8 25.1,45.7 L32.3,35.5 L44,35.5 C46.2,35.5 48,33.7 48,31.5 L48,4.3 C48,2.1 46.2,0.3 44,0.3 Z M45,31.5 C45,32.1 44.6,32.5 44,32.5 L31.7,32.5 C31.2,32.5 30.8,32.7 30.5,33.1 L24,42.2 L17.5,33.1 C17.2,32.7 16.8,32.5 16.3,32.5 L4,32.5 C3.4,32.5 3,32.1 3,31.5 L3,4.3 C3,3.7 3.4,3.3 4,3.3 L44,3.3 C44.6,3.3 45,3.7 45,4.3 L45,31.5 Z" id="Shape" fill-rule="nonzero"></path>
                    <circle id="Oval" fill-rule="nonzero" cx="13.2" cy="19.1" r="3.3"></circle>
                    <circle id="Oval" fill-rule="nonzero" cx="24" cy="19.1" r="3.3"></circle>
                    <circle id="Oval" fill-rule="nonzero" cx="34.9" cy="19.1" r="3.3"></circle>
                </g>
            </g>
        </g>
    </g>
</svg>