<?xml version="1.0" encoding="UTF-8" standalone="no"?>
<svg width="52px" height="49px" viewBox="0 0 52 49" version="1.1" xmlns="http://www.w3.org/2000/svg" xmlns:xlink="http://www.w3.org/1999/xlink">
    <!-- Generator: Sketch 48 (47235) - http://www.bohemiancoding.com/sketch -->
    <title>Home</title>
    <desc>Created with Sketch.</desc>
    <defs></defs>
    <g id="Icons" stroke="none" stroke-width="1" fill="none" fill-rule="evenodd" transform="translate(-856.000000, -642.000000)">
        <g id="Home" transform="translate(849.000000, 634.000000)">
            <rect id="Rectangle-4-Copy-21" x="0" y="0" width="64" height="64"></rect>
            <g id="home" transform="translate(6.000000, 8.000000)" fill="#5D5D5D">
                <g id="Shape">
                    <path d="M43,26.6 C42.1,26.6 41.5,27.3 41.5,28.1 L41.5,42.5 C41.5,44.1 40.2,45.3 38.7,45.3 L33,45.3 L33,35.5 C33,34.7 32.3,34 31.4,34 L22.5,34 C21.7,34 21,34.7 21,35.5 L21,45.3 L15.4,45.3 C13.8,45.3 12.6,44 12.6,42.5 L12.6,28.1 C12.6,27.2 11.9,26.6 11.1,26.6 C10.2,26.6 9.5,27.3 9.5,28.1 L9.5,42.5 C9.5,45.8 12.2,48.4 15.4,48.4 L22.5,48.4 C23.4,48.4 24,47.7 24,46.9 L24,37 L29.8,37 L29.8,46.8 C29.8,47.7 30.5,48.3 31.3,48.3 L38.4,48.3 C41.7,48.3 44.3,45.7 44.3,42.4 L44.3,28.1 C44.5,27.3 43.8,26.6 43,26.6 Z" fill-rule="nonzero"></path>
                    <path d="M51.4,17.5 L45.5,13.3 C44.9,12.7 44.4,12 44.4,11.1 L44.4,4.2 C44.4,2.1 42.7,0.5 40.6,0.5 L38.5,0.5 C36.4,0.5 34.8,2.1 34.8,4.2 L34.8,5.7 L29,1.6 L28,0.7 L27.8,0.6 C27.3,0.3 26.6,0.3 26,0.6 L26,0.8 L24.2,2 L2.6,17.5 C1.7,18 1.2,18.9 1,19.9 C0.8,20.9 1.1,21.9 1.7,22.7 L2.5,23.8 C3.3,24.9 4.6,25.4 5.9,25.3 C6.2,25.3 6.4,25.2 6.7,25 L27,10.5 L47.3,25 C47.5,25.2 47.8,25.3 48.1,25.3 L48.5,25.3 C49.7,25.3 50.8,24.8 51.5,23.8 L52.3,22.7 C53.5,20.9 53.1,18.6 51.4,17.5 Z M38,4.2 C38,3.8 38.3,3.6 38.6,3.6 L40.7,3.6 C41.1,3.6 41.3,3.9 41.3,4.2 L41.3,10.3 L37.7,7.8 C37.9,7.4 37.9,7 37.9,6.6 L37.9,4.2 L38,4.2 Z M49.8,20.8 L48.9,22 C48.8,22.1 48.7,22.2 48.6,22.2 L27.9,7.4 C27.3,7 26.6,7 26.1,7.4 L5.3,22.1 C5.2,22.1 5.1,22 5,22 L4.2,20.9 C4.1,20.8 4.1,20.6 4.1,20.4 C4.1,20.2 4.2,20.1 4.4,20 L26,4.5 L27,3.8 L27.3,4 L33.7,8.6 L43.7,15.7 L49.6,19.9 C49.9,20.1 50,20.5 49.8,20.8 Z" fill-rule="nonzero"></path>
                </g>
            </g>
        </g>
    </g>
</svg>