<?xml version="1.0" encoding="UTF-8" standalone="no"?>
<svg width="53px" height="52px" viewBox="0 0 53 52" version="1.1" xmlns="http://www.w3.org/2000/svg" xmlns:xlink="http://www.w3.org/1999/xlink">
    <!-- Generator: Sketch 48 (47235) - http://www.bohemiancoding.com/sketch -->
    <title>Info</title>
    <desc>Created with Sketch.</desc>
    <defs></defs>
    <g id="Icons" stroke="none" stroke-width="1" fill="none" fill-rule="evenodd" transform="translate(-968.000000, -755.000000)">
        <g id="Info" transform="translate(962.000000, 749.000000)">
            <rect id="Rectangle-4-Copy-28" x="0" y="0" width="64" height="64"></rect>
            <g id="info" transform="translate(6.000000, 6.000000)" fill="#545454">
                <g id="Shape">
                    <path d="M22.5,45.5 C21.8,45.5 21.1,45.3 20.5,45 C18.7,43.9 17.8,41.9 18.1,39.9 C18.8,37.7 19.5,35.5 20.4,33.4 C21,31.9 21.7,30.1 22.2,28.7 L21.5,29.3 C21.3,29.5 21,29.6 20.7,29.6 C19.9,29.6 19.2,28.9 19.2,28.1 C19.2,27.8 19.3,27.5 19.4,27.3 C21.4,23.9 23.2,21.5 25.5,21 C26.7,20.8 27.9,21 28.9,21.8 C32.8,24.5 29.4,31.9 28,35.1 C27.6,36.1 27.2,36.8 27,37.5 C26.8,38.1 27.1,38.7 27.6,38.9 C27.8,39 28.1,39 28.3,38.9 C29.1,38.7 29.9,39.1 30.1,39.9 C30.2,40.1 30.2,40.3 30.1,40.5 C30.1,40.8 30,41 29.8,41.2 C27.1,44.1 24.6,45.5 22.5,45.5 Z M25.3,24.5 C26,25 26.3,25.8 26,26.6 C25.8,27.7 24.7,30.4 23.2,34.5 C22.3,36.9 21.1,39.9 21,40.4 C20.9,41.2 21.2,41.9 21.8,42.4 C22.3,42.7 23.1,42.6 24.3,41.9 C24.1,41.8 24,41.6 23.8,41.4 C23.1,40.4 23,38.7 25.3,33.8 C28.6,26.6 27.9,24.7 27.2,24.2 C27,24 26.6,23.9 26.2,24 C25.9,24.1 25.6,24.2 25.3,24.5 Z M29.9,19.6 C26.9,19.6 24.5,17.2 24.5,14.2 C24.5,11.2 26.9,8.8 29.9,8.8 C32.9,8.8 35.3,11.2 35.3,14.2 C35.3,15.5 34.9,16.7 34.1,17.6 C33.2,18.7 31.9,19.5 30.4,19.6 L29.9,19.6 Z M29.9,11.7 L29.6,11.7 C28.9,11.8 28.3,12.1 27.9,12.6 C27.5,13.1 27.3,13.7 27.4,14.4 C27.5,15.8 28.8,16.8 30.1,16.6 C30.8,16.5 31.4,16.2 31.8,15.7 C32.2,15.2 32.4,14.5 32.3,13.9 C32.2,12.6 31.1,11.6 29.9,11.7 Z" fill-rule="nonzero"></path>
                    <path d="M26.5,52 C12.1,52 0.5,40.4 0.5,26 C0.5,11.6 12.1,0 26.5,0 C40.9,0 52.5,11.6 52.5,26 C52.5,40.4 40.9,52 26.5,52 Z M26.5,3 C13.8,3 3.5,13.4 3.6,26.1 C3.6,38.8 14,49.1 26.7,49 C39.4,49 49.6,38.7 49.6,26 C49.6,13.3 39.2,2.9 26.5,3 Z" fill-rule="nonzero"></path>
                </g>
            </g>
        </g>
    </g>
</svg>