<?xml version="1.0" encoding="UTF-8" standalone="no"?>
<svg width="45px" height="45px" viewBox="0 0 45 45" version="1.1" xmlns="http://www.w3.org/2000/svg" xmlns:xlink="http://www.w3.org/1999/xlink">
    <!-- Generator: Sketch 48 (47235) - http://www.bohemiancoding.com/sketch -->
    <title>Link</title>
    <desc>Created with Sketch.</desc>
    <defs></defs>
    <g id="Icons" stroke="none" stroke-width="1" fill="none" fill-rule="evenodd" transform="translate(-630.000000, -872.000000)">
        <g id="Link" transform="translate(620.000000, 862.000000)">
            <rect id="Rectangle-4-Copy-31" x="0" y="0" width="64" height="64"></rect>
            <g id="link" transform="translate(10.000000, 10.000000)" fill="#5D5D5D">
                <g id="Shape">
                    <path d="M42.5,5.8 L39.4,2.7 C36.6,-0.1 32.2,-0.1 29.4,2.7 L21.2,10.9 C18.6,13.5 18.4,17.6 20.8,20.4 C21.2,20.9 21.8,21 22.4,20.8 L20.8,22.4 C21,21.8 20.8,21.2 20.4,20.8 C17.6,18.5 13.5,18.7 10.9,21.2 L2.7,29.4 C-0.1,32.2 -0.1,36.6 2.7,39.4 L5.8,42.5 C8.6,45.3 13,45.3 15.8,42.5 L24,34.3 C26.6,31.7 26.8,27.6 24.4,24.8 C24,24.3 23.4,24.2 22.8,24.4 L24.4,22.8 C24.2,23.4 24.4,24 24.8,24.4 C26.1,25.4 27.7,26 29.3,26 C31.2,26 33,25.3 34.3,23.9 L42.5,15.7 C45.3,13 45.2,8.5 42.5,5.8 Z M22.2,26.7 C23.6,28.3 23.5,30.8 22,32.3 L13.8,40.5 C12.2,42.1 9.5,42.1 7.9,40.5 L4.8,37.4 C3.2,35.8 3.2,33.1 4.8,31.5 L13,23.3 C14.5,21.8 16.9,21.7 18.6,23.1 C19,23.4 19.5,23.5 20,23.3 L13.5,29.8 C13.1,30.5 13.2,31.4 13.9,31.8 C14.4,32.1 15,32.1 15.5,31.8 L22,25.3 C21.7,25.8 21.8,26.3 22.2,26.7 Z M40.5,13.8 L32.2,22 C30.7,23.5 28.3,23.6 26.6,22.2 C26.2,21.9 25.7,21.8 25.2,22 L31.7,15.5 C32.4,15.1 32.5,14.2 32.1,13.5 C31.7,12.8 30.8,12.7 30.1,13.1 C29.9,13.2 29.8,13.3 29.7,13.5 L23.2,20 C23.4,19.5 23.3,19 23,18.6 C21.6,16.9 21.7,14.5 23.2,13 L31.4,4.8 C33,3.2 35.7,3.2 37.3,4.8 L40.4,7.9 C42.1,9.5 42,12.1 40.5,13.8 Z" fill-rule="nonzero"></path>
                </g>
            </g>
        </g>
    </g>
</svg>