<?xml version="1.0" encoding="UTF-8" standalone="no"?>
<svg width="53px" height="48px" viewBox="0 0 53 48" version="1.1" xmlns="http://www.w3.org/2000/svg" xmlns:xlink="http://www.w3.org/1999/xlink">
    <!-- Generator: Sketch 48 (47235) - http://www.bohemiancoding.com/sketch -->
    <title>Marketplace</title>
    <desc>Created with Sketch.</desc>
    <defs>
        <polygon id="path-1" points="0 0 45.4668 0 45.4668 35 0 35"></polygon>
        <polygon id="path-3" points="0.4334 0 43.434 0 43.434 21 0.4334 21"></polygon>
    </defs>
    <g id="Icons" stroke="none" stroke-width="1" fill="none" fill-rule="evenodd" transform="translate(-507.000000, -1213.000000)">
        <g id="Marketplace" transform="translate(501.000000, 1205.000000)">
            <rect id="Rectangle-4-Copy-50" x="0" y="0" width="64" height="64"></rect>
            <g id="Page-1" transform="translate(6.000000, 8.000000)">
                <path d="M21.3242,40 C19.9462,40 18.8242,41.121 18.8242,42.5 C18.8242,43.879 19.9462,45 21.3242,45 C22.7022,45 23.8242,43.879 23.8242,42.5 C23.8242,41.121 22.7022,40 21.3242,40 M21.3242,48 C18.2912,48 15.8242,45.532 15.8242,42.5 C15.8242,39.468 18.2912,37 21.3242,37 C24.3572,37 26.8242,39.468 26.8242,42.5 C26.8242,45.532 24.3572,48 21.3242,48" id="Fill-1" fill="#5D5D5D"></path>
                <path d="M39.9668,40 C38.5888,40 37.4668,41.121 37.4668,42.5 C37.4668,43.879 38.5888,45 39.9668,45 C41.3448,45 42.4668,43.879 42.4668,42.5 C42.4668,41.121 41.3448,40 39.9668,40 M39.9668,48 C36.9338,48 34.4668,45.532 34.4668,42.5 C34.4668,39.468 36.9338,37 39.9668,37 C42.9998,37 45.4668,39.468 45.4668,42.5 C45.4668,45.532 42.9998,48 39.9668,48" id="Fill-3" fill="#5D5D5D"></path>
                <g id="Group-7">
                    <mask id="mask-2" fill="white">
                        <use xlink:href="#path-1"></use>
                    </mask>
                    <g id="Clip-6"></g>
                    <path d="M43.9668,35 L19.6258,35 C17.5928,35 15.8048,33.628 15.2798,31.664 L7.8968,4.112 C7.7208,3.457 7.1258,3 6.4478,3 L1.4998,3 C0.6718,3 -0.0002,2.329 -0.0002,1.5 C-0.0002,0.671 0.6718,0 1.4998,0 L6.4478,0 C8.4808,0 10.2678,1.372 10.7948,3.335 L18.1768,30.888 C18.3528,31.543 18.9478,32 19.6258,32 L43.9668,32 C44.7958,32 45.4668,32.672 45.4668,33.5 C45.4668,34.328 44.7958,35 43.9668,35" id="Fill-5" fill="#5D5D5D" mask="url(#mask-2)"></path>
                </g>
                <g id="Group-10" transform="translate(9.000000, 6.000000)">
                    <mask id="mask-4" fill="white">
                        <use xlink:href="#path-3"></use>
                    </mask>
                    <g id="Clip-9"></g>
                    <path d="M37.1104,21 L6.1804,21 C5.3524,21 4.6804,20.328 4.6804,19.5 C4.6804,18.671 5.3524,18 6.1804,18 L35.9594,18 L39.9794,3 L1.9334,3 C1.1054,3 0.4334,2.329 0.4334,1.5 C0.4334,0.671 1.1054,0 1.9334,0 L41.9344,0 C42.4014,0 42.8404,0.217 43.1244,0.587 C43.4074,0.957 43.5034,1.438 43.3834,1.888 L38.5594,19.888 C38.3834,20.544 37.7894,21 37.1104,21" id="Fill-8" fill="#5D5D5D" mask="url(#mask-4)"></path>
                </g>
            </g>
        </g>
    </g>
</svg>