<?xml version="1.0" encoding="UTF-8" standalone="no"?>
<svg width="44px" height="52px" viewBox="0 0 44 52" version="1.1" xmlns="http://www.w3.org/2000/svg" xmlns:xlink="http://www.w3.org/1999/xlink">
    <!-- Generator: Sketch 48 (47235) - http://www.bohemiancoding.com/sketch -->
    <title>Note help</title>
    <desc>Created with Sketch.</desc>
    <defs></defs>
    <g id="Icons" stroke="none" stroke-width="1" fill="none" fill-rule="evenodd" transform="translate(-630.000000, -983.000000)">
        <g id="Note-help" transform="translate(620.000000, 977.000000)">
            <rect id="Rectangle-4-Copy-37" x="0" y="0" width="64" height="64"></rect>
            <g id="note_help" transform="translate(10.000000, 6.000000)" fill="#5D5D5D">
                <g id="Group">
                    <g>
                        <path d="M24.2,48.7 L3.7,48.7 C3.3,48.7 3,48.4 3,48 L3,3.5 C3,3.1 3.3,2.8 3.7,2.8 L22.4,2.8 L22.5,12.4 C22.5,15.7 26,18 29.1,18 L37.4,18 L37.4,31.5 C37.4,32.3 38.1,32.9 38.9,32.9 C39.7,32.9 40.4,32.3 40.4,31.5 L40.4,16.3 C40.4,15.9 40.3,15.6 40,15.3 L25.4,0.4 C25.1,0.2 24.7,0 24.3,0 L3.7,0 C1.7,0 0.1,1.6 0.1,3.5 L0.1,48.1 C0.1,50 1.7,51.6 3.7,51.6 L24.2,51.6 C25,51.6 25.7,51 25.7,50.2 C25.7,49.4 25,48.7 24.2,48.7 Z M35.7,15.2 L29,15.2 C27.3,15.2 25.4,14 25.4,12.5 L25.4,4.6 L35.7,15.2 Z" id="Shape" fill-rule="nonzero"></path>
                        <path d="M35.4,35.4 C30.7,35.4 26.8,39.1 26.8,43.7 C26.8,48.3 30.6,52 35.4,52 C40.1,52 44,48.3 44,43.7 C44,39.1 40.1,35.4 35.4,35.4 Z M35.4,49.8 C31.9,49.8 29.1,47 29.1,43.6 C29.1,40.2 31.9,37.4 35.4,37.4 C38.9,37.4 41.7,40.2 41.7,43.6 C41.7,47.1 38.9,49.8 35.4,49.8 Z" id="Shape" fill-rule="nonzero"></path>
                        <path d="M35.5,46.4 L35,46.4 C34.7,46.4 34.5,46.6 34.5,46.9 L34.5,47.4 C34.5,47.7 34.7,47.9 35,47.9 L35.5,47.9 C35.8,47.9 36,47.7 36,47.4 L36,46.9 C36,46.6 35.8,46.4 35.5,46.4" id="SVGID_3_"></path>
                        <path d="M35.8,40.4 C35,40.2 34.2,40.5 33.6,41 C33.3,41.3 33.1,41.6 33,42 C33,42.1 32.9,42.2 32.9,42.4 C32.9,42.7 33.1,42.9 33.4,42.9 L34,42.9 C34.1,42.9 34.3,42.8 34.4,42.7 C34.5,42.6 34.6,42.5 34.6,42.4 C34.6,42.4 34.6,42.3 34.6,42.3 C34.7,42.1 34.9,42 35.1,41.9 C35.3,41.8 35.5,41.9 35.7,42 C35.9,42.1 36,42.3 36,42.5 C36,42.7 36,43 35.8,43.1 L35.3,43.6 C35.2,43.7 35.1,43.8 35,43.9 C34.7,44.2 34.5,44.6 34.4,45.1 C34.4,45.2 34.4,45.3 34.4,45.4 L34.4,45.5 L34.5,45.6 C34.6,45.8 34.8,45.9 35,45.9 L35.5,45.9 C35.7,45.9 35.9,45.8 36,45.6 C36,45.5 36,45.4 36,45.3 C36,45.3 36,45.2 36,45.2 C36,45.1 36.1,45 36.1,44.9 C36.1,44.8 36.2,44.7 36.3,44.6 C36.4,44.5 36.4,44.5 36.5,44.4 L36.8,44.1 C36.9,44 36.9,43.9 37,43.9 L37.1,43.8 C37.2,43.6 37.4,43.4 37.4,43.1 C37.5,42.7 37.5,42.3 37.3,41.9 C37.2,41.2 36.5,40.6 35.8,40.4" id="SVGID_1_"></path>
                    </g>
                </g>
            </g>
        </g>
    </g>
</svg>