<?xml version="1.0" encoding="UTF-8" standalone="no"?>
<svg width="37px" height="47px" viewBox="0 0 37 47" version="1.1" xmlns="http://www.w3.org/2000/svg" xmlns:xlink="http://www.w3.org/1999/xlink">
    <!-- Generator: Sketch 48 (47235) - http://www.bohemiancoding.com/sketch -->
    <title>Paperclip</title>
    <desc>Created with Sketch.</desc>
    <defs></defs>
    <g id="Icons" stroke="none" stroke-width="1" fill="none" fill-rule="evenodd" transform="translate(-748.000000, -529.000000)">
        <g id="Paperclip" transform="translate(734.000000, 520.000000)">
            <rect id="Rectangle-4-Copy-5" x="0" y="0" width="64" height="64"></rect>
            <g id="bookmark" transform="translate(14.000000, 9.000000)" fill="#5D5D5D">
                <g id="Shape">
                    <path d="M11.8,46.3 C9.4,46.3 7.1,45.5 5.1,44.1 C0.3,40.5 -1,33.8 2.1,28.6 C2.7,27.7 5.3,23.9 19.5,4.1 C22.5,-3.16413562e-15 28.3,-1 32.5,2 C36.6,5 37.6,10.6 34.9,14.9 L18.8,37.6 C17.7,39.2 16,40.3 14.1,40.6 C12.2,40.9 10.3,40.4 8.7,39.3 C5.6,37 4.8,32.7 6.9,29.4 L7,29.3 C7.4,28.8 9.2,26.1 19.7,11.4 C20.2,10.7 21.1,10.5 21.8,11 C22.5,11.5 22.6,12.4 22.1,13.1 C18.8,17.9 10,30.2 9.5,31 L9.5,31.1 C8.3,33 8.7,35.5 10.5,36.9 C11.4,37.6 12.5,37.8 13.6,37.7 C14.7,37.5 15.7,36.9 16.4,35.9 L32.5,13.3 C34.3,10.4 33.6,6.6 30.8,4.6 C28,2.5 24,3.2 21.9,6 C15.3,15.3 5.3,29.4 4.7,30.3 C2.4,34.1 3.3,39.1 6.9,41.8 C8.3,42.8 10.1,43.4 11.8,43.4 C14.2,43.5 16.4,42.5 17.9,40.7 L32.4,20.6 C32.9,19.9 33.8,19.8 34.5,20.2 C35.2,20.7 35.3,21.6 34.8,22.3 L20.5,42.3 C18.4,44.9 15.2,46.4 11.8,46.3 Z" fill-rule="nonzero"></path>
                </g>
            </g>
        </g>
    </g>
</svg>