<?xml version="1.0" encoding="UTF-8" standalone="no"?>
<svg width="57px" height="45px" viewBox="0 0 57 45" version="1.1" xmlns="http://www.w3.org/2000/svg" xmlns:xlink="http://www.w3.org/1999/xlink">
    <!-- Generator: Sketch 48 (47235) - http://www.bohemiancoding.com/sketch -->
    <title>People</title>
    <desc>Created with Sketch.</desc>
    <defs></defs>
    <g id="Icons" stroke="none" stroke-width="1" fill="none" fill-rule="evenodd" transform="translate(-966.000000, -988.000000)">
        <g id="People" transform="translate(962.000000, 978.000000)">
            <rect id="Rectangle-4-Copy-40" x="0" y="0" width="64" height="64"></rect>
            <g id="people" transform="translate(4.000000, 10.000000)" fill="#545454">
                <g id="Shape">
                    <path d="M12.3,17 C13.5,17 14.6,16.8 15.6,16.3 C15.9,16.2 16.1,16 16.2,15.7 C16.3,15.4 16.3,15.1 16.2,14.8 C16.1,14.5 15.9,14.3 15.6,14.2 C15.3,14.1 15,14.1 14.7,14.2 C14,14.5 13.2,14.7 12.4,14.7 L12.3,14.7 C9,14.3 6.6,11.4 7,8.1 C7.3,5.3 9.5,3.1 12.2,2.8 L12.3,2.8 C13.5,2.8 14.7,3.2 15.7,3.9 C16.2,4.3 16.9,4.1 17.3,3.6 C17.3,3.6 17.3,3.6 17.3,3.6 C17.7,3.1 17.5,2.4 17,2 C15.6,1 14,0.5 12.3,0.5 L12.2,0.5 C7.7,0.6 4,4.3 4.1,8.8 C4.1,13.3 7.8,17 12.3,17 Z" fill-rule="nonzero"></path>
                    <path d="M18.5,22.4 L18.6,22.5 L18.7,22.6 C19,23.1 19.7,23.3 20.3,22.9 C20.3,22.9 20.3,22.9 20.3,22.9 C20.8,22.5 21,21.8 20.6,21.3 L20.5,21.1 C18.7,18.1 14.5,18 13.7,18 L10.3,18 C7.9,18 5.7,19.2 4.3,21.1 C3.1,22.9 1.5,29.1 1.1,31.1 C1,31.5 1,31.7 0.9,31.9 C0.7,32.7 0.9,33.5 1.4,34.1 C1.9,34.7 2.7,35.1 3.5,35.1 L11.4,35 C11.7,35 12,34.9 12.2,34.7 C12.7,34.3 12.7,33.5 12.3,33.1 C12.1,32.9 11.7,32.7 11.4,32.7 L3.6,32.8 C3.5,32.8 3.4,32.8 3.3,32.7 C3.3,32.6 3.3,32.5 3.3,32.4 C3.3,32.4 3.3,32.3 3.3,32.3 C3.3,32.3 3.3,32.1 3.4,31.7 C4.1,28.7 5.5,23.6 6.3,22.5 C7.3,21.2 8.8,20.4 10.4,20.4 L13.9,20.4 L14,20.4 C14.5,20.4 17.5,20.5 18.5,22.4 Z" fill-rule="nonzero"></path>
                    <path d="M40.4,3.9 C40.7,3.9 41,3.9 41.2,3.7 C42.2,2.9 43.4,2.5 44.7,2.5 L44.8,2.5 C48.1,2.9 50.5,5.8 50.1,9.1 C49.8,11.9 47.6,14.1 44.9,14.4 C44.1,14.4 43.3,14.3 42.5,13.9 C42.2,13.8 41.9,13.8 41.6,13.9 C41.3,14 41.1,14.2 41,14.5 C40.8,15.1 41,15.7 41.6,16 C42.6,16.4 43.7,16.6 44.8,16.6 L44.9,16.6 C49.5,16.6 53.1,12.9 53.1,8.3 C53.1,3.7 49.4,0.1 44.8,0.1 L44.7,0.1 C43,0.1 41.3,0.7 39.9,1.7 C39.4,2.1 39.3,2.8 39.7,3.3 C39.8,3.6 40.1,3.8 40.4,3.9 Z" fill-rule="nonzero"></path>
                    <path d="M56.7,31.4 L56.7,31 C56.2,29 54.4,22.7 53,20.9 C51.2,17.9 47,17.8 46.2,17.8 L42.8,17.8 C40.4,17.8 38.2,18.9 36.8,20.9 C36.7,21.1 36.6,21.3 36.5,21.5 C36.2,22.1 36.4,22.8 37,23 C37.3,23.1 37.6,23.2 37.9,23.1 C38.2,23 38.4,22.8 38.6,22.5 C38.7,22.4 38.7,22.3 38.8,22.2 C39.7,20.9 41.3,20.1 42.9,20.1 L46.4,20.1 C46.6,20.1 50.1,20.1 51.2,22.1 C51.2,22.2 51.3,22.2 51.3,22.3 C52.2,23.4 53.9,28.6 54.6,31.5 L54.7,32 C54.7,32.1 54.7,32.2 54.7,32.3 C54.6,32.4 54.5,32.4 54.4,32.4 L46.4,32.5 C46.1,32.5 45.8,32.6 45.6,32.8 C45.1,33.2 45.1,34 45.5,34.4 C45.7,34.6 46.1,34.8 46.4,34.8 L54.4,34.7 C55.8,34.7 56.9,33.6 57,32.2 C56.8,32 56.8,31.7 56.7,31.4 Z" fill-rule="nonzero"></path>
                    <path d="M43.8,39.5 C43.2,36.9 40.8,28.7 39,26.4 C37.8,24.6 36,23.3 33.8,22.9 C32.6,22.6 31.5,22.5 30.3,22.5 L25.8,22.5 C22.8,22.5 20,24 18.3,26.4 C16.8,28.7 14.7,36.7 14.1,39.4 C14,39.9 13.9,40.2 13.9,40.4 C13.7,41.3 13.9,42.3 14.4,43 C15,43.7 15.9,44.2 16.9,44.1 L40.9,43.8 C41.9,43.8 42.8,43.4 43.4,42.6 C44,41.8 44.1,40.8 43.9,39.9 L43.8,39.5 Z M16.9,41.8 C16.6,41.8 16.4,41.7 16.2,41.5 C16.1,41.3 16,41 16.1,40.8 C16.1,40.8 16.1,40.7 16.1,40.7 C16.1,40.4 16.2,40.2 16.3,39.9 C17.2,35.8 19.1,29.2 20.1,27.7 C21.4,25.9 23.5,24.8 25.7,24.8 L25.8,24.8 L30.4,24.8 C30.4,24.8 35.4,24.6 37.1,27.6 L37.2,27.8 C38.5,29.4 40.8,36.6 41.6,40.1 L41.7,40.6 L41.7,40.7 C41.8,40.9 41.8,41.2 41.6,41.4 C41.4,41.6 41.2,41.7 40.9,41.7 L16.9,41.8 Z" fill-rule="nonzero"></path>
                    <path d="M28.5,21.3 L28.6,21.3 C34.4,21.3 39.1,16.5 39,10.7 C38.9,4.9 34.2,0.2 28.4,0.3 L28.3,0.3 C22.6,0.4 18,5.2 18,11 C18,13.8 19.2,16.4 21.2,18.4 C23.1,20.3 25.8,21.3 28.5,21.3 Z M28.5,2.6 C33,2.9 36.4,6.8 36.2,11.3 C35.9,15.4 32.7,18.6 28.6,19 L28.5,19 C24,18.9 20.4,15.1 20.5,10.6 C20.7,6.3 24.1,2.8 28.5,2.6 Z" fill-rule="nonzero"></path>
                </g>
            </g>
        </g>
    </g>
</svg>