<?xml version="1.0" encoding="UTF-8" standalone="no"?>
<svg width="33px" height="49px" viewBox="0 0 33 49" version="1.1" xmlns="http://www.w3.org/2000/svg" xmlns:xlink="http://www.w3.org/1999/xlink">
    <!-- Generator: Sketch 48 (47235) - http://www.bohemiancoding.com/sketch -->
    <title>Profile</title>
    <desc>Created with Sketch.</desc>
    <defs></defs>
    <g id="Icons" stroke="none" stroke-width="1" fill="none" fill-rule="evenodd" transform="translate(-1092.000000, -986.000000)">
        <g id="Profile" transform="translate(1076.000000, 978.000000)">
            <rect id="Rectangle-4-Copy-41" x="0" y="0" width="64" height="64"></rect>
            <g id="profile" transform="translate(16.000000, 8.000000)" fill="#545454">
                <g id="Shape">
                    <path d="M32.3,43.7 C31.6,40.9 29.1,31.8 27.2,29.3 C26,27.3 24,25.9 21.7,25.5 C20.5,25.1 19.3,25 18,25 L13.2,25 C10,25 7,26.6 5.2,29.3 C3.6,31.8 1.4,40.6 0.8,43.5 C0.7,44 0.6,44.4 0.6,44.6 C0.4,45.6 0.6,46.6 1.2,47.5 C1.8,48.3 2.8,48.8 3.8,48.7 L29.3,48.4 C30.3,48.4 31.3,47.9 31.9,47.1 C32.5,46.2 32.7,45.2 32.4,44.2 L32.3,43.7 Z M3.8,46.3 C3.5,46.3 3.3,46.2 3.1,46 C3,45.8 2.9,45.5 3,45.2 C3,45.2 3,45.1 3,45.1 C3,44.8 3.1,44.5 3.2,44.2 C4.2,39.7 6.1,32.5 7.2,30.8 C8.5,28.8 10.8,27.7 13.1,27.6 L13.2,27.6 L18.1,27.6 C18.1,27.6 23.4,27.4 25.2,30.7 C25.2,30.8 25.3,30.8 25.3,30.9 C26.6,32.6 29.1,40.6 30,44.3 L30.1,44.8 L30.1,44.9 C30.2,45.2 30.2,45.4 30,45.7 C29.8,45.9 29.6,46 29.3,46 L3.8,46.3 Z" fill-rule="nonzero"></path>
                    <path d="M16.1,23.8 L16.2,23.8 C22.4,23.6 27.4,18.4 27.2,12.2 C27.2,6 22.3,0.9 16.1,0.8 L16,0.8 C13,0.8 10.2,2.1 8.2,4.3 C3.9,8.8 4,16 8.4,20.5 C10.4,22.6 13.2,23.8 16.1,23.8 Z M16.1,3.3 C20.9,3.4 24.8,7.3 24.8,12.2 C24.8,14.6 23.9,16.9 22.3,18.6 C20.7,20.3 18.5,21.3 16.2,21.3 L16.1,21.3 C11.3,21.2 7.4,17.3 7.4,12.4 C7.3,7.5 11.1,3.5 16,3.3 L16.1,3.3 Z" fill-rule="nonzero"></path>
                </g>
            </g>
        </g>
    </g>
</svg>