<?xml version="1.0" encoding="UTF-8" standalone="no"?>
<svg width="47px" height="47px" viewBox="0 0 47 47" version="1.1" xmlns="http://www.w3.org/2000/svg" xmlns:xlink="http://www.w3.org/1999/xlink">
    <!-- Generator: Sketch 48 (47235) - http://www.bohemiancoding.com/sketch -->
    <title>Return</title>
    <desc>Created with Sketch.</desc>
    <defs></defs>
    <g id="Icons" stroke="none" stroke-width="1" fill="none" fill-rule="evenodd" transform="translate(-509.000000, -1100.000000)">
        <g id="Return" transform="translate(501.000000, 1091.000000)">
            <rect id="Rectangle-4-Copy-42" x="0" y="0" width="64" height="64"></rect>
            <g id="return" transform="translate(8.000000, 9.000000)" fill="#5D5D5D">
                <g id="Shape">
                    <path d="M25.3,0.7 C24.4,0.8 23.8,1.5 23.9,2.4 C24,3.2 24.6,3.8 25.3,3.8 C35.5,3.8 43.8,12.7 43.8,23.6 C43.8,34.5 35.5,43.4 25.3,43.4 C17.7,43.4 10.8,38.3 8.1,30.8 L12.6,33.8 C13.3,34.2 14.1,34 14.6,33.4 C14.6,33.4 14.6,33.4 14.6,33.3 C15,32.6 14.8,31.6 14.1,31.1 L7.9,26.9 C6.5,26 4.6,26.4 3.6,27.8 C3.6,27.9 3.5,27.9 3.5,28 C3.5,28.1 3.4,28.2 3.4,28.2 L0.9,35 C0.6,35.8 0.9,36.7 1.7,37.1 C1.9,37.2 2.1,37.2 2.3,37.2 C2.9,37.2 3.5,36.8 3.7,36.2 L5.4,31.8 C8.5,40.6 16.6,46.7 25.4,46.7 C37.2,46.7 46.9,36.4 46.9,23.7 C46.9,11 37.2,0.7 25.3,0.7 Z" fill-rule="nonzero"></path>
                </g>
            </g>
        </g>
    </g>
</svg>