<?xml version="1.0" encoding="UTF-8" standalone="no"?>
<svg width="41px" height="49px" viewBox="0 0 41 49" version="1.1" xmlns="http://www.w3.org/2000/svg" xmlns:xlink="http://www.w3.org/1999/xlink">
    <!-- Generator: Sketch 48 (47235) - http://www.bohemiancoding.com/sketch -->
    <title>Search</title>
    <desc>Created with Sketch.</desc>
    <defs></defs>
    <g id="Icons" stroke="none" stroke-width="1" fill="none" fill-rule="evenodd" transform="translate(-631.000000, -291.000000)">
        <g id="Search" transform="translate(619.000000, 283.000000)">
            <rect id="Rectangle-4-Copy-14" x="0" y="0" width="64" height="64"></rect>
            <g id="search" transform="translate(12.000000, 8.000000)" fill="#5D5D5D">
                <g id="Shape">
                    <path d="M40,44.8 L30.3,32.2 C37.2,26.7 38.9,16.9 34.2,9.3 C31.7,5.2 27.6,2.2 22.9,1.1 C18.3,-2.10942375e-15 13.3,0.7 9.2,3.1 C5.1,5.5 2.1,9.5 0.9,14.1 C-0.3,18.7 0.4,23.6 2.9,27.6 C5.4,31.7 9.4,34.6 14.1,35.7 C18.1,36.7 22.2,36.3 26,34.7 L36,47.8 C36.8,48.9 38.4,49.1 39.5,48.3 C40.6,47.5 40.8,46 40,44.8 C40,44.9 40,44.9 40,44.8 Z M25.5,29.7 C22.5,31.5 18.9,32 15.5,31.2 C12.1,30.4 9.2,28.3 7.4,25.3 C5.6,22.3 5,18.8 5.9,15.4 C6.8,12 8.9,9.2 11.9,7.4 C18.2,3.7 26.2,5.7 30,11.9 C33.7,18 31.8,26 25.7,29.7 C25.6,29.6 25.5,29.7 25.5,29.7 Z" fill-rule="nonzero"></path>
                </g>
            </g>
        </g>
    </g>
</svg>