<?xml version="1.0" encoding="UTF-8" standalone="no"?>
<svg width="49px" height="49px" viewBox="0 0 49 49" version="1.1" xmlns="http://www.w3.org/2000/svg" xmlns:xlink="http://www.w3.org/1999/xlink">
    <!-- Generator: Sketch 48 (47235) - http://www.bohemiancoding.com/sketch -->
    <title>Settings</title>
    <desc>Created with Sketch.</desc>
    <defs></defs>
    <g id="Icons" stroke="none" stroke-width="1" fill="none" fill-rule="evenodd" transform="translate(-742.000000, -1099.000000)">
        <g id="Settings" transform="translate(734.000000, 1091.000000)">
            <rect id="Rectangle-4-Copy-44" x="0" y="0" width="64" height="64"></rect>
            <g id="setting2" transform="translate(8.000000, 8.000000)" fill="#5D5D5D">
                <g id="Shape">
                    <path d="M24.9,17.4 C21,17.4 17.8,20.6 17.8,24.5 C17.8,28.4 21,31.6 24.9,31.6 C28.8,31.6 32,28.4 32,24.5 C32,20.6 28.8,17.4 24.9,17.4 Z M24.9,28.7 C22.6,28.7 20.7,26.8 20.7,24.5 C20.7,22.2 22.6,20.3 24.9,20.3 C27.2,20.3 29.1,22.2 29.1,24.5 C29.1,26.8 27.2,28.7 24.9,28.7 Z" fill-rule="nonzero"></path>
                    <path d="M46.2,20 L43.1,20 C43,20 42.9,19.9 42.8,19.8 L42.8,19.7 L41,15.3 L40.9,15.2 C40.9,15.1 40.9,15 40.9,14.9 L43.1,12.7 C44.2,11.6 44.2,9.9 43.1,8.8 L40.6,6.3 C39.5,5.3 37.8,5.3 36.8,6.3 L34.6,8.5 C34.5,8.6 34.4,8.6 34.2,8.5 L34,8.4 L29.7,6.6 L29.6,6.6 C29.5,6.5 29.4,6.4 29.4,6.3 L29.4,3.2 C29.4,1.7 28.2,0.5 26.7,0.5 L23.1,0.5 C21.6,0.5 20.4,1.7 20.4,3.2 C20.4,3.2 20.4,3.2 20.4,3.2 L20.4,6.3 C20.4,6.4 20.3,6.5 20.2,6.6 L20.1,6.6 L15.8,8.4 L15.7,8.5 C15.6,8.5 15.5,8.5 15.3,8.5 L13.1,6.3 C12,5.2 10.3,5.2 9.2,6.3 L6.7,8.8 C5.6,9.9 5.6,11.6 6.7,12.7 C6.7,12.7 6.7,12.7 6.7,12.7 L8.9,14.9 C9,15 9,15.1 8.9,15.2 L8.8,15.3 L7,19.6 L7,19.7 C6.9,19.8 6.8,19.9 6.7,19.9 L3.6,19.9 C2.1,19.9 0.9,21.1 0.9,22.6 L0.9,26.1 C0.9,27.6 2.1,28.9 3.6,28.9 C3.6,28.9 3.6,28.9 3.7,28.9 L6.8,28.9 C6.9,28.9 7,29 7.1,29.1 L7.1,29.2 L8.9,33.5 L9,33.7 C9,33.8 9,33.9 9,34 L6.8,36.1 C5.7,37.2 5.7,38.9 6.8,40 C6.8,40 6.8,40 6.8,40 L9.3,42.5 C10.4,43.6 12.1,43.6 13.2,42.5 L15.4,40.3 C15.5,40.2 15.6,40.2 15.8,40.3 L15.9,40.4 L20.2,42.2 L20.3,42.2 C20.4,42.3 20.5,42.4 20.5,42.5 L20.5,45.6 C20.5,47.1 21.7,48.3 23.2,48.3 C23.2,48.3 23.2,48.3 23.2,48.3 L26.7,48.3 C28.2,48.3 29.4,47.1 29.4,45.6 L29.4,42.6 C29.4,42.5 29.5,42.4 29.6,42.3 L29.7,42.3 L34,40.5 L34.1,40.4 C34.2,40.4 34.3,40.4 34.4,40.4 L36.6,42.6 C37.7,43.7 39.4,43.7 40.5,42.6 L43,40.1 C44.1,39 44.1,37.3 43,36.2 L41,34.1 C40.9,34 40.9,33.9 41,33.8 L41.1,33.6 L42.9,29.3 L42.9,29.2 C43,29.1 43.1,29 43.2,29 L46.3,29 C47.8,29 49,27.8 49,26.3 L49,22.8 C48.9,21.2 47.7,20 46.2,20 Z M46.1,26.1 L43.2,26.1 C41.8,26.1 40.7,27 40.2,28.3 L38.5,32.5 C37.9,33.7 38.1,35.2 39.1,36.2 L41.1,38.3 L38.8,40.6 L36.7,38.5 C35.7,37.6 34.2,37.3 33,37.9 L28.8,39.6 C27.5,40.1 26.6,41.2 26.6,42.6 L26.6,45.6 L23.4,45.6 L23.4,42.7 C23.4,41.3 22.5,40.2 21.2,39.7 L17,38 C15.8,37.4 14.3,37.6 13.3,38.6 L11.2,40.7 L8.9,38.4 L11,36.3 C11.9,35.3 12.2,33.8 11.6,32.6 L9.9,28.4 C9.4,27.1 8.3,26.3 6.9,26.2 L3.9,26.2 L3.9,22.9 L6.8,22.9 C8.2,22.9 9.3,22 9.8,20.7 L11.5,16.5 C12.1,15.3 11.9,13.8 10.9,12.8 L8.8,10.7 L11.1,8.4 L13.2,10.5 C14.2,11.4 15.7,11.7 16.9,11 L21.1,9.3 C22.4,8.8 23.3,7.7 23.3,6.3 L23.3,3.4 L26.6,3.4 L26.6,6.3 C26.6,7.7 27.5,8.8 28.8,9.3 L33,11 C34.2,11.6 35.7,11.4 36.7,10.4 L38.8,8.3 L41.1,10.6 L39,12.7 C38.1,13.7 37.8,15.2 38.4,16.4 L40.1,20.6 C40.6,21.9 41.7,22.7 43.1,22.8 L46.1,22.8 L46.1,26.1 Z" fill-rule="nonzero"></path>
                </g>
            </g>
        </g>
    </g>
</svg>