<?xml version="1.0" encoding="UTF-8" standalone="no"?>
<svg width="57px" height="40px" viewBox="0 0 57 40" version="1.1" xmlns="http://www.w3.org/2000/svg" xmlns:xlink="http://www.w3.org/1999/xlink">
    <!-- Generator: Sketch 48 (47235) - http://www.bohemiancoding.com/sketch -->
    <title>View</title>
    <desc>Created with Sketch.</desc>
    <defs></defs>
    <g id="Icons" stroke="none" stroke-width="1" fill="none" fill-rule="evenodd" transform="translate(-1080.000000, -875.000000)">
        <g id="View" transform="translate(1076.000000, 863.000000)">
            <rect id="Rectangle-4-Copy-35" x="0" y="0" width="64" height="64"></rect>
            <g id="look" transform="translate(4.000000, 12.000000)" fill="#5D5D5D">
                <g>
                    <path d="M56.5,19.2 C49.9,10.3 40.8,0.2 28.4,0.2 C18.1,0.2 10,7.4 0.4,19 C-2.23432384e-15,19.5 -2.23432384e-15,20.3 0.4,20.8 L1.2,21.8 C9.2,31.4 16.1,39.6 28.4,39.6 C40.7,39.6 49.8,28.8 55.8,21.7 L56.4,21 C56.9,20.5 56.9,19.7 56.5,19.2 Z M28.4,36.7 C17.5,36.7 11,28.9 3.4,19.9 C12.4,9.2 19.4,3.1 28.4,3.1 C39.1,3.1 47.4,12 53.5,20.1 C47.5,27.1 39.3,36.7 28.4,36.7 Z" id="Shape" fill-rule="nonzero"></path>
                    <path d="M28.4,9.6 C22.7,9.6 18.2,14.2 18.2,19.9 C18.2,25.6 22.8,30.1 28.5,30.1 C34.2,30.1 38.7,25.5 38.7,19.9 C38.7,14.2 34.1,9.6 28.4,9.6 Z M28.4,27.2 C24.3,27.2 21,23.9 21,19.8 C21,15.7 24.3,12.4 28.4,12.4 C32.5,12.4 35.8,15.7 35.8,19.8 C35.8,23.9 32.5,27.2 28.4,27.2 Z" id="Shape" fill-rule="nonzero"></path>
                    <circle id="Oval" fill-rule="nonzero" cx="28.4" cy="19.9" r="4"></circle>
                </g>
            </g>
        </g>
    </g>
</svg>