<?xml version="1.0" encoding="UTF-8" standalone="no"?>
<svg width="48px" height="48px" viewBox="0 0 48 48" version="1.1" xmlns="http://www.w3.org/2000/svg" xmlns:xlink="http://www.w3.org/1999/xlink">
    <!-- Generator: Sketch 48 (47235) - http://www.bohemiancoding.com/sketch -->
    <title>Warning</title>
    <desc>Created with Sketch.</desc>
    <defs></defs>
    <g id="Icons" stroke="none" stroke-width="1" fill="none" fill-rule="evenodd" transform="translate(-741.000000, -407.000000)">
        <g id="Warning" transform="translate(733.000000, 399.000000)">
            <rect id="Rectangle-4-Copy-17" x="0" y="0" width="64" height="64"></rect>
            <g id="warning" transform="translate(8.000000, 8.000000)">
                <g id="Shape">
                    <path d="M24,0 C37.3,0 48,10.7 48,24 C48,37.3 37.3,48 24,48 C10.7,48 0,37.3 0,24 C0,10.7 10.7,0 24,0 Z" fill="#FF545A" fill-rule="nonzero"></path>
                    <path d="M25.7,30 C25.5,29.5 25,29.1 24.5,28.8 C23.9,28.6 23.3,28.6 22.8,28.8 C22.3,29 21.9,29.5 21.7,30 C21.5,30.6 21.5,31.2 21.7,31.7 C21.9,32.3 22.4,32.7 23,32.9 C23.6,33.1 24.2,33.1 24.7,32.9 C25.2,32.7 25.6,32.2 25.9,31.7 C25.9,31.2 25.9,30.6 25.7,30 Z" fill="#FFFFFF" fill-rule="nonzero"></path>
                    <path d="M23.3,15 C24.3,15 25.1,15.8 25.1,16.8 L25.3,24.6 C25.3,25.6 24.5,26.4 23.5,26.4 C22.5,26.4 21.7,25.6 21.7,24.6 L21.5,16.8 C21.5,15.9 22.3,15 23.3,15 Z" fill="#FFFFFF" fill-rule="nonzero"></path>
                </g>
            </g>
        </g>
    </g>
</svg>