<?xml version="1.0" encoding="UTF-8" standalone="no"?>
<svg width="39px" height="49px" viewBox="0 0 39 49" version="1.1" xmlns="http://www.w3.org/2000/svg" xmlns:xlink="http://www.w3.org/1999/xlink">
    <!-- Generator: Sketch 48 (47235) - http://www.bohemiancoding.com/sketch -->
    <title>Zoom in</title>
    <desc>Created with Sketch.</desc>
    <defs></defs>
    <g id="Icons" stroke="none" stroke-width="1" fill="none" fill-rule="evenodd" transform="translate(-975.000000, -1098.000000)">
        <g id="Zoom-in" transform="translate(962.000000, 1092.000000)">
            <rect id="Rectangle-4-Copy-46" x="0" y="0" width="64" height="64"></rect>
            <g id="zoomin" transform="translate(13.000000, 6.000000)" fill="#5D5D5D">
                <g id="Shape">
                    <path d="M38.2,46.3 L28,32.4 C35.1,26.9 37,17 32.5,9.3 C27.7,1.1 17.3,-1.7 9.2,3 C9.1,3.1 9,3.1 8.9,3.2 C5,5.6 2.1,9.5 1,14 C-0.1,18.5 0.6,23.3 3,27.3 C6,32.6 11.7,35.8 17.8,35.8 C20.5,35.8 23.1,35.2 25.5,33.9 L35.9,48 C36.4,48.6 37.3,48.8 37.9,48.3 C37.9,48.3 37.9,48.3 37.9,48.3 C38.6,47.9 38.7,47 38.2,46.3 C38.2,46.3 38.2,46.3 38.2,46.3 Z M25,30.8 C21.8,32.8 17.9,33.4 14.2,32.4 C10.5,31.5 7.4,29.1 5.4,25.8 C3.5,22.5 2.9,18.5 3.8,14.8 C4.7,11.1 7,7.8 10.3,5.8 C12.5,4.4 15,3.7 17.6,3.7 C22.6,3.7 27.3,6.4 29.8,10.8 C33.9,17.7 31.8,26.5 25,30.8 Z" fill-rule="nonzero"></path>
                    <path d="M25.5,16.7 L18.7,16.7 L18.7,9.9 C18.6,9.1 17.9,8.5 17,8.6 C16.3,8.7 15.8,9.2 15.7,9.9 L15.7,16.7 L8.9,16.7 C8.1,16.8 7.5,17.5 7.6,18.4 C7.7,19.1 8.2,19.6 8.9,19.7 L15.7,19.7 L15.7,26.5 C15.8,27.3 16.5,27.9 17.4,27.8 C18.1,27.7 18.6,27.2 18.7,26.5 L18.7,19.7 L25.5,19.7 C26.3,19.6 26.9,18.9 26.8,18 C26.7,17.3 26.2,16.8 25.5,16.7 Z" fill-rule="nonzero"></path>
                </g>
            </g>
        </g>
    </g>
</svg>