<?xml version="1.0" encoding="UTF-8"?>
<svg width="22px" height="17px" viewBox="0 0 22 17" version="1.1" xmlns="http://www.w3.org/2000/svg" xmlns:xlink="http://www.w3.org/1999/xlink">
    <!-- Generator: Sketch 41.2 (35397) - http://www.bohemiancoding.com/sketch -->
    <title>Fill 141</title>
    <desc>Created with Sketch.</desc>
    <defs></defs>
    <g id="Messages" stroke="none" stroke-width="1" fill="none" fill-rule="evenodd">
        <g transform="translate(-259.000000, -176.000000)" id="Challenge-welcome" stroke-width="1.5" stroke="#FFFFFF" fill="#FFFFFF">
            <g transform="translate(128.000000, 128.000000)">
                <g id="Group-6" transform="translate(111.000000, 25.000000)">
                    <g id="Group-14">
                        <g id="Group-9">
                            <path d="M40.8177721,24.070037 C40.6817274,23.9609485 40.4833463,23.9811656 40.3738366,24.1176316 L31.455535,35.1600002 C31.44669,35.1713724 31.4386874,35.1827445 31.4311059,35.1949591 C31.4285788,35.199171 31.4260516,35.2038041 31.4231033,35.2088584 L29.0096779,38.2203752 C28.939339,38.3067194 28.8424651,38.3589471 28.7367461,38.3673709 C28.6272364,38.3732676 28.5278353,38.3387299 28.4469666,38.2658638 L21.5284806,31.975795 C21.4000173,31.8591251 21.1999515,31.8679701 21.0820179,31.9972758 C20.9649268,32.1261603 20.974193,32.3262261 21.1034987,32.4433172 L28.0228271,38.7342284 C28.2148902,38.9069168 28.4549692,39 28.7064203,39 C28.7325342,39 28.758648,38.9991576 28.7851831,38.9970517 C29.0652752,38.9755709 29.3188323,38.8412109 29.501208,38.6171372 L31.9453803,35.5672921 C31.953383,35.5563411 31.9618068,35.5432842 31.9693882,35.5293848 L40.8653667,24.5143936 C40.9748764,24.3787701 40.9533956,24.1799679 40.8177721,24.070037" id="Fill-141"></path>
                        </g>
                    </g>
                </g>
            </g>
        </g>
    </g>
</svg>