<?xml version="1.0" encoding="UTF-8"?>
<svg width="20px" height="22px" viewBox="0 0 20 22" version="1.1" xmlns="http://www.w3.org/2000/svg" xmlns:xlink="http://www.w3.org/1999/xlink">
    <!-- Generator: Sketch 41.2 (35397) - http://www.bohemiancoding.com/sketch -->
    <title>Group 11</title>
    <desc>Created with Sketch.</desc>
    <defs></defs>
    <g id="Messages" stroke="none" stroke-width="1" fill="none" fill-rule="evenodd" stroke-linecap="round" stroke-linejoin="round">
        <g transform="translate(-260.000000, -310.000000)" id="Challenge-welcome-Copy" stroke="#FFFFFF" stroke-width="1.5">
            <g transform="translate(128.000000, 265.000000)">
                <g id="Group-6" transform="translate(111.000000, 25.000000)">
                    <g id="Group-14">
                        <g id="Group-11" transform="translate(22.000000, 21.000000)">
                            <path d="M7.31451064,11.4185957 C13.306,11.8981702 15.6140851,15.7228511 15.6140851,15.7228511 C15.6140851,15.7228511 16.1617447,16.3994468 16.1234468,15.695617 L16.1328085,0.374765957 C16.1328085,-0.371617021 15.4962128,0.456893617 15.4962128,0.456893617 C13.0864255,4.17689362 8.89025532,4.67306383 7.31451064,4.72412766" id="Stroke-758"></path>
                            <path d="M16.6031064,10.2880851 C17.3775745,9.88425532 17.9171489,9.09531915 17.9171489,8.17446809 C17.9197021,7.25191489 17.3826809,6.46425532 16.6039574,6.05531915" id="Stroke-759"></path>
                            <path d="M7.33612766,11.8788511 L7.33612766,4.72480851 C7.16421277,4.72395745 7.06591489,4.71885106 7.06591489,4.71885106 L7.06761702,4.73289362 L7.03442553,4.7286383 L2.34506383,5.16438298 C2.34506383,5.16438298 0.321659574,5.25246809 0.321659574,7.19970213 L0.321659574,9.88182979 C0.321659574,9.88182979 0.278255319,12.1282128 2.25782979,12.130766 C2.25782979,12.130766 4.69825532,12.1273617 4.69825532,12.9503404 L4.69825532,18.9997021 C4.69825532,19.418 5.04038298,19.7601277 5.46038298,19.7601277 L6.574,19.7601277 C6.99357447,19.7601277 7.33697872,19.418 7.33697872,18.9997021 L7.33868085,11.8788511 L7.33612766,11.8788511 L7.33612766,11.8788511 Z" id="Stroke-760"></path>
                        </g>
                    </g>
                </g>
            </g>
        </g>
    </g>
</svg>