<?xml version="1.0" encoding="UTF-8"?>
<svg width="51px" height="62px" viewBox="0 0 51 62" version="1.1" xmlns="http://www.w3.org/2000/svg" xmlns:xlink="http://www.w3.org/1999/xlink">
    <!-- Generator: Sketch 41.2 (35397) - http://www.bohemiancoding.com/sketch -->
    <title>Group 10</title>
    <desc>Created with Sketch.</desc>
    <defs></defs>
    <g id="3-Assets-(flow)" stroke="none" stroke-width="1" fill="none" fill-rule="evenodd" stroke-linecap="round" stroke-linejoin="round">
        <g id="Asset-detail" transform="translate(-957.000000, -151.000000)" stroke="#599EE7" stroke-width="1.417">
            <g id="Summary" transform="translate(814.000000, 101.000000)">
                <g id="Group-10" transform="translate(144.000000, 50.000000)">
                    <path d="M44.114,41.6633 L44.114,18.7423 L27.046,0.7883 L25.853,0.7883 L2.684,0.7883 C1.286,0.7883 0.139,1.9293 0.139,3.3233 L0.139,57.2783 C0.139,58.6733 1.286,59.8133 2.684,59.8133 L32.077,59.8133" id="Stroke-589"></path>
                    <path d="M26.4421,1.1511 L26.5101,14.1401 C26.5101,17.0451 29.6581,19.1621 32.5361,19.1621 L43.5831,19.1621" id="Stroke-590"></path>
                    <path d="M40.0945,43.1663 C35.2465,43.1663 31.3045,47.1013 31.3045,51.9373 C31.3045,56.7743 35.2465,60.7093 40.0945,60.7093 C44.9375,60.7093 48.8805,56.7743 48.8805,51.9373 C48.8805,47.1013 44.9375,43.1663 40.0945,43.1663 L40.0945,43.1663 Z" id="Stroke-591"></path>
                    <path d="M40.0925,56.1028 L36.5925,52.6028" id="Stroke-592"></path>
                    <path d="M40.0925,56.1028 L43.5925,52.6028" id="Stroke-593"></path>
                    <path d="M40.0925,56.1028 L40.0925,47.7728" id="Stroke-594"></path>
                </g>
            </g>
        </g>
    </g>
</svg>