<?xml version="1.0" encoding="UTF-8"?>
<svg width="20px" height="35px" viewBox="0 0 20 35" version="1.1" xmlns="http://www.w3.org/2000/svg" xmlns:xlink="http://www.w3.org/1999/xlink">
    <!-- Generator: Sketch 42 (36781) - http://www.bohemiancoding.com/sketch -->
    <title>Page 1</title>
    <desc>Created with Sketch.</desc>
    <defs></defs>
    <g id="WIP" stroke="none" stroke-width="1" fill="none" fill-rule="evenodd">
        <g id="AccessDenied" transform="translate(-822.000000, -452.000000)" fill="#599EE7">
            <g id="Group-2" transform="translate(126.000000, 155.000000)">
                <g id="Group" transform="translate(60.000000, 47.000000)">
                    <g id="Challenge-welcome" transform="translate(0.000000, 80.000000)">
                        <g id="Submissions" transform="translate(636.000000, 164.915633)">
                            <g id="Group-5">
                                <g id="Page-1" transform="translate(0.000000, 5.084367)">
                                    <path d="M11.9202344,8.7325 L11.9264844,8.7325 L11.9202344,8.7325 Z M9.72398438,4.065625 C9.08898438,4.065625 8.45398438,4.306875 7.97085938,4.790625 C7.00648438,5.755625 7.00648438,7.325625 7.97085938,8.290625 C8.44148438,8.763125 9.06273438,9.023125 9.71960938,9.023125 C10.3858594,9.0175 11.0121094,8.7575 11.4777344,8.290625 C12.4414844,7.325625 12.4414844,5.755625 11.4777344,4.79 C10.9946094,4.306875 10.3589844,4.065625 9.72398438,4.065625 L9.72398438,4.065625 Z M9.72523438,10.273125 C8.72773438,10.273125 7.79210938,9.8825 7.08585938,9.17375 C5.63460938,7.721875 5.63460938,5.359375 7.08710938,3.906875 C8.53960938,2.453125 10.9058594,2.4525 12.3621094,3.90625 C13.8121094,5.359375 13.8121094,7.721875 12.3627344,9.174375 L12.3621094,9.174375 C11.6633594,9.87375 10.7271094,10.264375 9.72523438,10.273125 L9.72523438,10.273125 Z M13.1521094,22.4075 L13.1577344,22.4075 L13.1521094,22.4075 Z M13.0552344,28.67 C13.0658594,28.685 13.0789844,28.701875 13.0946094,28.719375 L13.0552344,28.67 Z M13.0696094,29.318125 C13.0639844,29.32375 13.0596094,29.33 13.0552344,29.335625 L13.0696094,29.318125 Z M4.83148438,16.645625 C4.97835938,16.728125 5.12273438,16.820625 5.25210938,16.921875 C6.39460938,17.789375 7.05460938,19.114375 7.05460938,20.55125 L7.05460938,30.571875 C7.05460938,32.04 8.25023438,33.235 9.71960938,33.235 C10.3814844,33.235 11.0146094,32.995625 11.5008594,32.560625 L11.6296094,32.4375 C12.1177344,31.94875 12.3927344,31.283125 12.3927344,30.571875 L12.3927344,30.393125 C12.3927344,30.253125 12.4396094,30.116875 12.5271094,30.00625 L13.0233594,29.37625 C13.0302344,29.340625 13.0377344,29.28625 13.0377344,29.23 L13.0377344,28.7775 C13.0377344,28.72 13.0302344,28.665 13.0233594,28.629375 L12.5264844,27.999375 C12.4396094,27.88875 12.3927344,27.753125 12.3927344,27.6125 L12.3927344,27.269375 C12.3927344,27.0675 12.4902344,26.8775 12.6552344,26.760625 L13.5471094,26.125 C13.5496094,26.1 13.5514844,26.0725 13.5514844,26.044375 L13.5514844,25.590625 C13.5514844,25.563125 13.5496094,25.535625 13.5471094,25.51125 L12.6552344,24.875625 C12.4902344,24.75875 12.3927344,24.56875 12.3927344,24.366875 L12.3927344,24.11625 C12.3927344,23.965 12.4477344,23.81875 12.5471094,23.705 L13.0983594,23.075 C13.1052344,23.03875 13.1108594,22.98875 13.1108594,22.93625 L13.1108594,22.48375 C13.1108594,22.431875 13.1052344,22.381875 13.0977344,22.34625 L12.5477344,21.719375 C12.4477344,21.605625 12.3927344,21.45875 12.3927344,21.3075 L12.3927344,20.55125 C12.3927344,19.111875 13.0527344,17.786875 14.2021094,16.915625 C14.3452344,16.8125 14.4727344,16.7275 14.6583594,16.608125 C15.0214844,16.3525 15.3852344,16.046875 15.7196094,15.7125 C19.0233594,12.4075 19.0233594,7.03125 15.7196094,3.728125 C12.4127344,0.4225 7.03398438,0.42375 3.72710938,3.728125 C0.42273438,7.03125 0.42335938,12.4075 3.72710938,15.713125 C4.07210938,16.0575 4.42398438,16.354375 4.83148438,16.645625 L4.83148438,16.645625 Z M9.71960938,34.485 C7.56085938,34.485 5.80460938,32.729375 5.80460938,30.571875 L5.80460938,20.55125 C5.80460938,19.50875 5.32460938,18.54625 4.48898438,17.911875 C4.39335938,17.83625 4.29148438,17.775625 4.19085938,17.71875 C4.17148438,17.708125 4.15210938,17.69625 4.13460938,17.68375 C3.65710938,17.345 3.24710938,17 2.84398438,16.5975 C-0.94789062,12.804375 -0.94789062,6.635 2.84335938,2.844375 C6.63773438,-0.948125 12.8114844,-0.948125 16.6033594,2.844375 C20.3952344,6.635 20.3952344,12.804375 16.6033594,16.596875 C16.2177344,16.9825 15.7983594,17.335 15.3558594,17.645 C15.1721094,17.76375 15.0602344,17.8375 14.9446094,17.92125 C14.1214844,18.545 13.6427344,19.506875 13.6427344,20.55125 L13.6427344,21.071875 L14.1033594,21.596875 C14.3433594,21.886875 14.3608594,22.34875 14.3608594,22.48375 L14.3608594,22.93625 C14.3608594,23.07375 14.3427344,23.5425 14.1096094,23.816875 L13.8077344,24.161875 L14.4346094,24.60875 C14.4739844,24.636875 14.5096094,24.66875 14.5408594,24.705 C14.7827344,24.97875 14.8014844,25.451875 14.8014844,25.590625 L14.8014844,26.044375 C14.8014844,26.184375 14.7827344,26.66125 14.5377344,26.935 C14.5077344,26.969375 14.4727344,27.000625 14.4346094,27.026875 L13.7408594,27.52125 L14.0514844,27.91625 C14.2621094,28.15 14.2877344,28.5975 14.2877344,28.7775 L14.2877344,29.23 C14.2877344,29.366875 14.2696094,29.83375 14.0377344,30.108125 L13.6427344,30.61 C13.6327344,31.640625 13.2289844,32.60625 12.5033594,33.331875 L12.3489844,33.479375 C11.6177344,34.1325 10.6889844,34.485 9.71960938,34.485 L9.71960938,34.485 Z" id="Fill-1"></path>
                                </g>
                            </g>
                        </g>
                    </g>
                </g>
            </g>
        </g>
    </g>
</svg>