<svg id="Layer_1" data-name="Layer 1" xmlns="http://www.w3.org/2000/svg" viewBox="0 0 50 50"><defs><style>.cls-1{fill:#f64969;}.cls-2{fill:#85ad9a;}.cls-3{fill:#6f8a7c;}.cls-4{fill:#fefefe;}</style></defs><title>Artboard 1 copy 5</title><path class="cls-1" d="M37.08,34.09c0,.9,0,1.79,0,2.69a2.35,2.35,0,0,1-2.46,2.45c-3,0-5.91,0-8.86,0-.3,0-.37.08-.37.37,0,2.25,0,4.5,0,6.75,0,.09.05.22-.05.26s-.15-.07-.22-.12L15,39.4a.93.93,0,0,0-.57-.18H4.24a2.39,2.39,0,0,1-2-.89,2.33,2.33,0,0,1-.49-1.49q0-10.44,0-20.88a2.32,2.32,0,0,1,2.38-2.38H34.57a2.85,2.85,0,0,1,.84.1,2.34,2.34,0,0,1,1.67,1.88s0,.08,0,.12q0,9,0,18.07C37.07,33.86,37.08,34,37.08,34.09Zm-14.76-12-.08,0-.35-.31a4.84,4.84,0,0,0-4-1.22,5.21,5.21,0,0,0-3.85,2.56,6.62,6.62,0,0,0-.95,3.82,6.77,6.77,0,0,0,1,3.51,5.23,5.23,0,0,0,7.63,1.44l.56-.45c0,.34,0,.63,0,.92s.07.26.26.26q1.13,0,2.25,0c.19,0,.25-.05.25-.25,0-.89,0-1.77,0-2.66q0-4.28,0-8.57c0-.14.06-.31-.21-.31-.78,0-1.56,0-2.34,0-.17,0-.21.06-.21.22C22.33,21.38,22.32,21.73,22.32,22.11Z"/><path class="cls-2" d="M37.07,15.55a2.34,2.34,0,0,0-1.67-1.88,2.85,2.85,0,0,0-.84-.1h-28c0-.9,0-1.79,0-2.69A2.28,2.28,0,0,1,8.88,8.6H39.41a2.29,2.29,0,0,1,2.3,1.82,1.82,1.82,0,0,1,0,.41q0,6.21,0,12.43s0,.1,0,.15-.11-.13-.16-.2l-1.13-1.93C39.63,19.84,38.8,18.42,38,17A15.48,15.48,0,0,0,37.07,15.55Z"/><path class="cls-2" d="M48.35,21.45q0,6,0,12,0,.12,0,.23c0,.1,0,.21-.09.26s-.18,0-.25-.11l-3.6-3.72a1,1,0,0,1-.27-.72q0-8,0-16a1.07,1.07,0,0,1,.31-.76L48,9.08c.08-.08.16-.24.31-.17s.09.22.09.34Q48.35,15.35,48.35,21.45Z"/><path class="cls-3" d="M37.07,15.55A15.48,15.48,0,0,1,38,17c.84,1.41,1.66,2.83,2.49,4.24l1.13,1.93c0,.07.07.16.16.2s0,.17,0,.26q0,4.31,0,8.61a2.64,2.64,0,0,1-.3,1.29.93.93,0,0,1-.9.53c-1.16,0-2.32,0-3.47,0,0-.12,0-.23,0-.35q0-9,0-18.07S37.07,15.59,37.07,15.55Z"/><path class="cls-4" d="M22.32,22.11c0-.39,0-.73,0-1.08,0-.16,0-.22.21-.22.78,0,1.56,0,2.34,0,.27,0,.21.16.21.31q0,4.28,0,8.57c0,.89,0,1.77,0,2.66,0,.19-.06.25-.25.25q-1.13,0-2.25,0c-.2,0-.28,0-.26-.26s0-.58,0-.92l-.56.45a5.23,5.23,0,0,1-7.63-1.44,6.77,6.77,0,0,1-1-3.51,6.62,6.62,0,0,1,.95-3.82,5.21,5.21,0,0,1,3.85-2.56,4.84,4.84,0,0,1,4,1.22l.35.31Zm.18,4.63a4.87,4.87,0,0,0-.18-1.32A3.21,3.21,0,0,0,19.51,23a3.11,3.11,0,0,0-3.23,2,4.43,4.43,0,0,0,.13,3.83,3.17,3.17,0,0,0,5.22.6A4.15,4.15,0,0,0,22.5,26.75Z"/><path class="cls-1" d="M22.5,26.75a4.15,4.15,0,0,1-.87,2.63,3.17,3.17,0,0,1-5.22-.6,4.43,4.43,0,0,1-.13-3.83,3.11,3.11,0,0,1,3.23-2,3.21,3.21,0,0,1,2.81,2.43A4.87,4.87,0,0,1,22.5,26.75Z"/></svg>