<svg id="Layer_1" data-name="Layer 1" xmlns="http://www.w3.org/2000/svg" viewBox="0 0 50 50"><defs><style>.cls-1{fill:#70cadb;}.cls-2{fill:#e01765;}.cls-3{fill:#e8a723;}.cls-4{fill:#3eb890;}.cls-5{fill:#cc2027;}.cls-6{fill:#361238;}.cls-7{fill:#65863a;}.cls-8{fill:#1a937d;}</style></defs><title>Artboard 1 copy 4</title><path class="cls-1" d="M7.68,26a3.43,3.43,0,0,1-3.34-2.35l-.05-.16a3.59,3.59,0,0,1,2.32-4.39L35.95,9.31A4,4,0,0,1,37,9.16a3.52,3.52,0,0,1,3.43,2.4l0,.14A3.52,3.52,0,0,1,38,15.87l-29.17,10a3.8,3.8,0,0,1-1.19.2Z"/><path class="cls-2" d="M12.57,40.47a3.42,3.42,0,0,1-3.35-2.31L9.16,38a3.62,3.62,0,0,1,2.32-4.43l29.34-9.92a3.78,3.78,0,0,1,1.16-.2,3.55,3.55,0,0,1,3.42,2.38l0,.15A3.71,3.71,0,0,1,45,29a4.92,4.92,0,0,1-1.74,1.23L13.81,40.25a4,4,0,0,1-1.25.21Z"/><path class="cls-3" d="M37,40.53a3.6,3.6,0,0,1-3.45-2.45L23.75,9l0-.16a3.61,3.61,0,0,1,6.89-2.14l9.79,29.08,0,.09A3.6,3.6,0,0,1,37,40.53Z"/><path class="cls-4" d="M22.43,45.43A3.6,3.6,0,0,1,19,43L9.19,13.89l-.05-.16a3.6,3.6,0,0,1,2.32-4.41,3.65,3.65,0,0,1,1.12-.19A3.6,3.6,0,0,1,16,11.59l9.79,29.08,0,.16a3.61,3.61,0,0,1-3.44,4.6h0Z"/><path class="cls-5" d="M32.16,34,39,31.64,36.76,25l-6.84,2.31Z"/><path class="cls-6" d="M17.63,38.95l6.83-2.33-2.25-6.68-6.83,2.31Z"/><path class="cls-7" d="M27.3,19.54l6.83-2.33-2.21-6.55L25.08,13Z"/><path class="cls-8" d="M12.77,24.5l6.83-2.33-2.23-6.63-6.84,2.29,2.25,6.67Z"/></svg>